<svg id="Layer_1" data-name="Layer 1" xmlns="http://www.w3.org/2000/svg" viewBox="0 0 135.85 97.81"><path d="M343.47 1045.18a15.65 15.65 0 0 0-11-11c-9.76-2.67-48.81-2.67-48.81-2.67s-39.05 0-48.81 2.57a15.94 15.94 0 0 0-11 11.09c-2.56 9.76-2.56 30-2.56 30s0 20.34 2.56 30a15.64 15.64 0 0 0 11 11c9.86 2.67 48.81 2.67 48.81 2.67s39 0 48.81-2.57a15.63 15.63 0 0 0 11-11c2.57-9.77 2.57-30 2.57-30s.1-20.33-2.57-30.09zm-72.24 48.71v-37.4l32.47 18.7z" transform="translate(-210.19 -1021.05)" fill="#abffd6"/><path d="M332 1040a11.72 11.72 0 0 0-5.36-6.89 11.4 11.4 0 0 0-2-.92 8.36 8.36 0 0 0-1.07-.32l-1.23-.25c-1.7-.31-3.61-.52-5.52-.69-7.69-.64-15.62-.87-23.51-1s-15.79-.28-23.7-.27-15.83.13-23.69.44c-3.93.15-7.85.37-11.68.73-1 .09-1.91.18-2.82.31l-1.38.19-1.23.24-.61.12c-.2 0-.35.1-.53.15a9.15 9.15 0 0 0-1 .37 13.8 13.8 0 0 0-2 1 12.52 12.52 0 0 0-3.25 3.16 12.86 12.86 0 0 0-1.13 2 10.36 10.36 0 0 0-.41 1l-.18.53-.16.64a79.08 79.08 0 0 0-1.73 11.22c-.37 3.87-.62 7.79-.78 11.71-.08 2-.14 4-.17 5.85s0 3.92 0 5.88c.07 3.93.23 7.85.52 11.74a74.24 74.24 0 0 0 1.62 11.36 12.74 12.74 0 0 0 5.62 7.62 12 12 0 0 0 2.19 1.08 10.65 10.65 0 0 0 1.17.37l1.3.29c1.77.35 3.71.6 5.63.81 7.76.79 15.7 1.11 23.61 1.37q5.94.18 11.88.27c4 .08 7.91.08 11.88 0 7.93-.09 15.86-.29 23.75-.72 3.94-.2 7.88-.52 11.73-1 1-.11 1.93-.22 2.86-.38l1.4-.22 1.3-.28a12.41 12.41 0 0 0 4.47-2 13.91 13.91 0 0 0 1.85-1.58 13.75 13.75 0 0 0 1.51-1.89 13.1 13.1 0 0 0 1.12-2.13 11.68 11.68 0 0 0 .4-1.13l.16-.58.14-.67a81.69 81.69 0 0 0 1.4-11.35c.26-3.89.39-7.82.44-11.74s0-7.8-.15-11.73-.41-7.83-.79-11.69A69.72 69.72 0 0 0 332 1040zm7.43-2a77.66 77.66 0 0 1 1.79 12.45c.3 4.07.46 8.11.52 12.14s0 8.11-.15 12.12-.43 8-.82 12.08a86.83 86.83 0 0 1-1.92 12.25l-.2.78-.26.85a16 16 0 0 1-.64 1.67 19.18 19.18 0 0 1-1.73 3.1 18.6 18.6 0 0 1-8.13 6.58 17.07 17.07 0 0 1-3.33 1l-1.62.31-1.55.21c-1 .15-2.05.24-3.07.34-4.05.37-8.06.56-12.06.73s-8 .29-12 .37-8 .16-12 .2q-12 .12-23.94-.12c-8-.18-16-.41-24-1.14-2-.21-4.05-.43-6.17-.83l-1.62-.35a14.56 14.56 0 0 1-1.67-.51 18.14 18.14 0 0 1-3.19-1.49 18.54 18.54 0 0 1-8.44-10.93 80.09 80.09 0 0 1-2-12.28c-.4-4-.65-8.06-.82-12.08-.09-2-.16-4-.19-6s0-4 0-6.07c.06-4 .21-8.06.49-12.11a85.6 85.6 0 0 1 1.61-12.38l.18-.81.27-.9c.18-.6.4-1.17.63-1.74a20.74 20.74 0 0 1 1.75-3.25 20.28 20.28 0 0 1 5.12-5.25 21.33 21.33 0 0 1 3.23-1.83c.58-.24 1.15-.49 1.76-.68.3-.09.62-.2.91-.27l.84-.19c.56-.12 1.15-.26 1.69-.36l1.58-.24c1.06-.18 2.07-.28 3.1-.4 4.08-.45 8.1-.74 12.11-1 8-.45 16-.69 24-.85l6-.09h6q6 .06 12 .2c8 .28 16 .6 24.13 1.49 2.05.24 4.09.5 6.29 1l1.69.39c.58.17 1.19.34 1.77.57a19.59 19.59 0 0 1 12 13.35z" transform="translate(-210.19 -1021.05)"/><path d="M261.53 1091.07c-.74-6.06-1.48-12.87-1.82-19.87s-.3-14.1 0-20.86l.29-6.65 5.34 3.39 7.91 5 7.93 5q4 2.49 8 4.91c2.67 1.64 5.37 3.2 8.06 4.8l3.77 2.25-3.77 2.15-8.68 4.94c-2.91 1.69-5.86 3.29-8.83 5l-9 4.94zm3.85-6.66l7.07-4.37c2.39-1.49 4.8-2.94 7.24-4.42s4.91-2.94 7.41-4.37l7.56-4.41v4.4c-2.73-1.52-5.44-3.08-8.19-4.56s-5.49-3-8.25-4.43l-8.32-4.34-8.32-4.32 5.63-3.25a149.55 149.55 0 0 1 0 16.54c-.35 5.47-1.09 11.12-1.83 17.53z" transform="translate(-210.19 -1021.05)"/></svg>