<svg id="Layer_1" data-name="Layer 1" xmlns="http://www.w3.org/2000/svg" viewBox="0 0 120.02 87"><path d="M611.7 1090.83a2.28 2.28 0 0 1-2.28 2.28H500.66a3 3 0 0 1-3-3v-74.2a2.88 2.88 0 0 1 2.87-2.87h109.21a2 2 0 0 1 2 2v75.83z" transform="translate(-491.68 -1006.11)" fill="#abffd6"/><path d="M79.79 34.57" fill="none" stroke-miterlimit="10" stroke="#fff" stroke-width="4.76"/><path d="M540.66 1046.11c-2.73 4.26-6.42 7.62-10 11.1s-7.32 6.77-11 10.16-7.22 6.86-10.64 10.47a122.86 122.86 0 0 0-9.69 11.39l-3.44-3.29a118.74 118.74 0 0 0 10.95-10.18c3.47-3.57 6.78-7.29 10-11.08s6.38-7.66 9.67-11.41 6.51-7.54 10.66-10.46zm-46.08-27.17q7.23 2.73 14.38 5.65c4.78 1.91 9.54 3.89 14.28 5.89s9.48 4 14.2 6.11l7.06 3.13 3.53 1.58 1.76.79.34.15.2.07a1.54 1.54 0 0 0 .43.06 1.64 1.64 0 0 0 .44 0h.27l.45-.18 1.81-.69 3.61-1.37c2.4-.93 4.81-1.83 7.21-2.78q7.19-2.82 14.33-5.76c9.52-3.94 19-8 28.27-12.52l1.81 4.4c-9.76 3.34-19.35 7.12-28.88 11q-7.14 2.94-14.23 6c-2.37 1-4.72 2.07-7.08 3.11l-3.53 1.56-1.77.79-.44.19-.29.12-.35.13a6 6 0 0 1-1.46.27 5.76 5.76 0 0 1-1.49-.1c-.24 0-.48-.12-.72-.19l-.56-.21-1.81-.69-3.61-1.38-7.21-2.78q-7.2-2.81-14.35-5.73c-4.77-1.94-9.53-3.9-14.26-5.94s-9.47-4-14.17-6.18zm78.87 20.42c2.3 4.06 4.75 8 7.28 11.92s5.17 7.75 7.78 11.6l3.91 5.78 4 5.74q4 5.73 8.09 11.38l-4 2.65q-3.64-6-7.43-11.82l-3.78-5.88-3.85-5.82c-2.56-3.89-5.1-7.79-7.75-11.62s-5.37-7.61-8.24-11.28z" transform="translate(-491.68 -1006.11)" fill="#fff"/><path d="M609.7 1085.89a4.86 4.86 0 0 1-.76 2.72 4.31 4.31 0 0 1-2.34 1.77 4 4 0 0 1-.75.15H597l-12-.16c-8-.13-16-.15-24-.21l-24-.12c-8 0-16-.1-24 .07-4 .08-8 .16-12 .14h-4.58a3.62 3.62 0 0 1-2.27-.87 4.26 4.26 0 0 1-1.23-2 7.5 7.5 0 0 1-.31-2v-3c-.06-8 0-16-.18-24l-.41-24-.19-12-.09-6-.05-3V1011a4.38 4.38 0 0 1 .13-1.21 4.81 4.81 0 0 1 3.36-3.49 4.71 4.71 0 0 1 1.24-.19h2.3l6 .05 12 .09 24 .18 24 .17 12 .09c2 0 4 .06 6 0s4-.1 6-.15l12-.37 3-.1h2.43a4 4 0 0 1 3.39 2.66 3.78 3.78 0 0 1 .17.74v1.38l-.05 3q-.2 12-.31 24c-.07 4 0 8 0 12s0 8 .08 12c.09 8.05.04 16.05.27 24.04zm-4 0c.24-8 .19-16 .32-24q.08-6 .08-12v-12q-.11-12-.32-24v-3.84l-5-.15-12-.37c-2-.05-4-.15-6-.16s-4 0-6 0l-12 .09-24 .18-24 .18-12 .09h-8.2a.64.64 0 0 0-.23 0 .94.94 0 0 0-.59.65l-.81 47.51c-.15 8-.12 16-.18 24v3a1 1 0 0 0 .51.8 1.45 1.45 0 0 0 .86.15 3.78 3.78 0 0 1 .56 0h4.42c4 0 8 .06 12 .14 8 .17 16 .08 24 .07l24-.12c8 0 16-.08 24-.21l12-.15h8.41c-.18.19.14.31.17.14z" transform="translate(-491.68 -1006.11)"/><path d="M493.66 1017.07" transform="translate(-491.68 -1006.11)" stroke="#000" fill="none" stroke-miterlimit="10"/><path d="M494.58 1022.31c4.82 1.81 9.61 3.71 14.38 5.65s9.54 3.89 14.28 5.89 9.48 4 14.2 6.11l7.06 3.13 3.53 1.58 1.76.79.34.15.2.07a1.54 1.54 0 0 0 .43.06 1.32 1.32 0 0 0 .44 0h.11l.16-.05.45-.18 1.81-.69 3.61-1.38c2.4-.92 4.81-1.82 7.21-2.77q7.19-2.82 14.33-5.76c9.52-3.94 19-8 28.27-12.52l1.81 4.4c-9.76 3.34-19.35 7.11-28.88 11q-7.14 2.94-14.23 6c-2.37 1-4.72 2.07-7.08 3.11l-3.53 1.56-1.77.78-.44.2-.29.12a3.59 3.59 0 0 1-.35.12 6 6 0 0 1-1.46.28 6.23 6.23 0 0 1-1.49-.1c-.24 0-.48-.12-.72-.19l-.56-.21-1.81-.69-3.61-1.38-7.21-2.78q-7.2-2.8-14.35-5.73t-14.26-5.94c-4.75-2-9.47-4.05-14.17-6.18z" transform="translate(-491.68 -1006.11)"/><path d="M538.26 1045c-2.73 4.27-6.43 7.63-10 11.11s-7.32 6.76-11 10.16-7.22 6.86-10.63 10.47a118.63 118.63 0 0 0-9.69 11.39l-3.44-3.29a121.37 121.37 0 0 0 10.95-10.18c3.47-3.57 6.78-7.29 10-11.09s6.39-7.66 9.67-11.4 6.52-7.54 10.66-10.46zm37.08-7.57c2.54 4.24 5.22 8.38 8 12.46s5.63 8.1 8.46 12.13l4.26 6 4.33 6q4.32 6 8.77 11.91l-3.9 2.72q-4-6.23-8.13-12.36l-4.12-6.14-4.19-6.09c-2.8-4.06-5.57-8.13-8.44-12.14s-5.82-8-8.92-11.8z" transform="translate(-491.68 -1006.11)"/></svg>