<svg version="1.1" id="Layer_1" xmlns="http://www.w3.org/2000/svg" x="0" y="0" viewBox="0 0 242 242" xml:space="preserve"><style>.st0{fill:#aaffd5}.st1{fill:none;stroke:#000;stroke-width:7;stroke-miterlimit:10}</style><path class="st0" d="M169 231.5H78.7c-34.6 0-62.6-28-62.6-62.5V78.7c0-34.6 28-62.6 62.5-62.6H169c34.6 0 62.6 28 62.6 62.6V169c0 34.6-28 62.6-62.6 62.5zM78.7 32.8c-25.3 0-45.8 20.5-45.8 45.8V169c0 25.3 20.5 45.8 45.8 45.8H169c25.3 0 45.8-20.5 45.8-45.8V78.7c0-25.3-20.5-45.8-45.8-45.8l-90.3-.1z"/><path class="st0" d="M122.4 178c-29.9 0-54.2-24.2-54.2-54.1 0-29.9 24.2-54.2 54.1-54.2 29.9 0 54.2 24.2 54.2 54.1.1 29.9-24.1 54.2-54.1 54.2zm0-92.6c-21.2 0-38.5 17.2-38.5 38.4s17.2 38.5 38.4 38.5 38.5-17.2 38.5-38.4c.1-21.2-17-38.5-38.4-38.5.1 0 .1 0 0 0z"/><circle class="st0" cx="182.8" cy="64.8" r="8.4"/><path class="st1" d="M168.8 235H73.2C36.7 235 7 205.3 7 168.8V73.3C7 36.7 36.6 7.1 73.2 7.1h95.5c36.5 0 66.2 29.7 66.2 66.2v95.5c0 36.5-29.6 66.1-66.1 66.2zM73.2 24.9c-26.7 0-48.4 21.7-48.4 48.4v95.5c0 26.7 21.7 48.4 48.4 48.4h95.5c26.7 0 48.4-21.7 48.4-48.4V73.3c0-26.7-21.7-48.4-48.4-48.4H73.2z"/><path class="st1" d="M121 182.4c-33.9 0-61.4-27.5-61.4-61.4S87.1 59.7 121 59.6s61.4 27.5 61.4 61.4c0 34-27.5 61.4-61.4 61.4z"/><circle class="st1" cx="183.2" cy="58.7" r="8.9"/></svg>