<svg id="Layer_1" data-name="Layer 1" xmlns="http://www.w3.org/2000/svg" viewBox="0 0 51.31 92.04"><defs><style>.cls-1{fill:#abffd6;}</style></defs><path class="cls-1" d="M452.33,1039.16h8v-13.93a103.1,103.1,0,0,0-11.66-.62c-11.54,0-19.44,7.26-19.44,20.6v12.27H416.49v15.59h12.74V1111a1.32,1.32,0,0,0,1.32,1.32h12.29a2,2,0,0,0,2-2v-37.21H455a2.35,2.35,0,0,0,2.34-2.06l1.68-13.52H444.84v-10.74c0-4.5,1.21-7.59,7.49-7.59Z" transform="translate(-409.02 -1020.23)"/><path d="M446.66,1035l8,0-1.8,1.8c0-4.64,0-9.29,0-13.94l1.57,1.8c-2.18-.22-4.54-.34-6.81-.38a61.94,61.94,0,0,0-6.74.16,16,16,0,0,0-10.73,5.35,18.94,18.94,0,0,0-4,11.47l-.06,1.61,0,1.75c0,1.16-.08,2.33-.13,3.5-.12,2.33-.24,4.67-.32,7l-.08,2.12-2-.06-6.37-.21-6.36-.12,1.72-1.73-.06,7.79c0,2.6,0,5.2.1,7.8l-1.76-1.77c2.12,0,4.24-.22,6.36-.34s4.25-.21,6.37-.19l2.3,0v2.28c0,7.71-.15,15.43-.32,23.15-.09,3.85-.12,7.71-.17,11.57l0,2.9v.24l0-.13a.48.48,0,0,0-.14-.2.52.52,0,0,0-.23-.1h12.3l.07,0a.29.29,0,0,0,.08-.14v-2.52l-.06-11.58c-.05-7.72,0-15.43.05-23.15v-1.82h1.79c2.27,0,4.53.26,6.8.45,1.12.11,2.28.18,3.37.22a1.16,1.16,0,0,0,1.19-1.1c.48-4.51.54-9.06,1-13.57l1.81,2c-2.36,0-4.72.08-7.08,0s-4.72,0-7.08,0h-1.81l0-1.84-.1-5.8,0-2.89c0-1,0-1.88,0-3a13.14,13.14,0,0,1,.57-3.37,6.89,6.89,0,0,1,2.18-3.27,8.06,8.06,0,0,1,3.42-1.57A15.65,15.65,0,0,1,446.66,1035Zm0,3.69c-1.73,0-3.41.35-4.24,1.12a3.08,3.08,0,0,0-.93,1.52,9.43,9.43,0,0,0-.32,2.33l-.06,5.71-.1,5.8-1.84-1.85q3.54,0,7.08,0t7.08,0l2.11,0-.3,2c-.67,4.48-1.73,8.91-2.36,13.4a3.58,3.58,0,0,1-3.39,3.1c-1.18.05-2.28.11-3.42.21-2.27.2-4.53.44-6.8.46l1.81-1.81c0,7.72.1,15.43,0,23.15l0,11.58V1108a3.94,3.94,0,0,1-.08.68,3.79,3.79,0,0,1-1.44,2.25,3.66,3.66,0,0,1-1.89.72l-.34,0H424.89l-.41,0a3.1,3.1,0,0,1-2.51-2,3,3,0,0,1-.18-.83v-.48l0-2.9c-.05-3.86-.08-7.72-.17-11.57-.17-7.72-.3-15.44-.32-23.15l2.3,2.29q-3.18,0-6.37-.19c-2.12-.12-4.24-.29-6.36-.34l-1.81,0,0-1.72c.06-2.6.1-5.2.1-7.8l-.06-7.79v-1.69l1.74,0,6.36-.13,6.37-.2-2.05,2.05c-.09-2.33-.21-4.67-.33-7-.05-1.17-.12-2.34-.13-3.5l0-1.75.07-1.89a27.56,27.56,0,0,1,1.45-7.54,20.47,20.47,0,0,1,4-6.78,18.86,18.86,0,0,1,6.43-4.6,22.78,22.78,0,0,1,7.49-1.79,62,62,0,0,1,7.26.14c2.39.16,4.69.32,7.15.66l1.57.22v1.57c0,4.65,0,9.3,0,13.94v1.8h-1.82Z" transform="translate(-409.02 -1020.23)"/></svg>