<?xml version="1.0" encoding="utf-8"?>
<!-- Generator: Adobe Illustrator 24.0.1, SVG Export Plug-In . SVG Version: 6.00 Build 0)  -->
<svg version="1.1" id="Layer_1" xmlns="http://www.w3.org/2000/svg" xmlns:xlink="http://www.w3.org/1999/xlink" x="0px" y="0px"
	 viewBox="0 0 242 242" style="enable-background:new 0 0 242 242;" xml:space="preserve">
<style type="text/css">
	.st0{fill:#AAFFD5;}
	.st1{fill:none;stroke:#000000;stroke-width:7;stroke-miterlimit:10;}
</style>
<title>stay-minty-instagram-icon</title>
<path class="st0" d="M169,231.5H78.7c-34.6,0-62.6-28-62.6-62.5V78.7c0-34.6,28-62.6,62.5-62.6c0,0,0,0,0.1,0H169
	c34.6,0,62.6,28,62.6,62.6V169C231.6,203.6,203.6,231.6,169,231.5C169,231.5,169,231.5,169,231.5z M78.7,32.8
	c-25.3,0-45.8,20.5-45.8,45.8V169c0,25.3,20.5,45.8,45.8,45.8H169c25.3,0,45.8-20.5,45.8-45.8V78.7c0-25.3-20.5-45.8-45.8-45.8
	L78.7,32.8z"/>
<path class="st0" d="M122.4,178c-29.9,0-54.2-24.2-54.2-54.1c0-29.9,24.2-54.2,54.1-54.2c29.9,0,54.2,24.2,54.2,54.1l0,0
	C176.6,153.7,152.4,178,122.4,178z M122.4,85.4c-21.2,0-38.5,17.2-38.5,38.4c0,21.2,17.2,38.5,38.4,38.5c21.2,0,38.5-17.2,38.5-38.4
	l0,0C160.9,102.7,143.8,85.4,122.4,85.4C122.5,85.4,122.5,85.4,122.4,85.4L122.4,85.4z"/>
<circle class="st0" cx="182.8" cy="64.8" r="8.4"/>
<path class="st1" d="M168.8,235H73.2c-36.5,0-66.2-29.7-66.2-66.2V73.3c0-36.6,29.6-66.2,66.2-66.2h95.5c36.5,0,66.2,29.7,66.2,66.2
	v95.5C234.9,205.3,205.3,234.9,168.8,235z M73.2,24.9c-26.7,0-48.4,21.7-48.4,48.4v95.5c0,26.7,21.7,48.4,48.4,48.4h95.5
	c26.7,0,48.4-21.7,48.4-48.4V73.3c0-26.7-21.7-48.4-48.4-48.4L73.2,24.9z"/>
<path class="st1" d="M121,182.4c-33.9,0-61.4-27.5-61.4-61.4S87.1,59.7,121,59.6s61.4,27.5,61.4,61.4l0,0l0,0
	C182.4,155,154.9,182.4,121,182.4z"/>
<circle class="st1" cx="183.2" cy="58.7" r="8.9"/>
</svg>
