<svg version="1.1" id="Layer_1" xmlns="http://www.w3.org/2000/svg" x="0" y="0" viewBox="0 0 120 120" xml:space="preserve"><path fill="#3cd3af" d="M37.1 46.7h14.5v65.4H37.1z"/><path fill="#9041b7" d="M51.5 28.7H66V63H51.5z"/><path fill="#aaffd5" d="M70.7 68.8h13.7v42.3H70.7z"/><path fill="#617280" d="M88.8 20h14.5v95.1H88.8z"/><path d="M107.1 111.8H104v-97c0-1-.8-1.9-1.9-1.9H67.6c-1 0-1.9.8-1.9 1.9v8H62v-8c0-1-.8-1.9-1.9-1.9h-8V7.4c0-1-.8-1.9-1.9-1.9s-1.9.8-1.9 1.9V13h-8c-1 0-1.9.8-1.9 1.9v8H33c-1 0-1.9.8-1.9 1.9v15.4H15.7c-1 0-1.9.8-1.9 1.9v69.8h-3.1c-1 0-1.9.8-1.9 1.9 0 1 .8 1.9 1.9 1.9h96.4c1 0 1.9-.8 1.9-1.9 0-1.1-.8-2-1.9-2zM69.4 16.7h30.9v95.2H86.7V61.8c0-1-.8-1.9-1.9-1.9s-1.8.9-1.8 1.9v.6h-3.7v-.6c0-1-.8-1.9-1.9-1.9s-1.9.8-1.9 1.9v.6h-6.2V16.7zm-27.1 0h16.1v6.2H42.3v-6.2zm-7.5 9.9h30.9v35.8H52.1v-6.2h5.6c1 0 1.9-.8 1.9-1.9s-.8-1.9-1.9-1.9h-5.6v-6.2h5.6c1 0 1.9-.8 1.9-1.9 0-1-.8-1.9-1.9-1.9h-5.6V42c0-1-.8-1.9-1.9-1.9H34.8V26.6zM17.5 43.9h30.9v68h-8.7v-8c0-1-.8-1.9-1.9-1.9H28c-1 0-1.9.8-1.9 1.9v8h-8.7v-68zm17.3 67.9v-3.1c0-1-.8-1.9-1.9-1.9-1 0-1.9.8-1.9 1.9v3.1h-1.2v-6.2H36v6.2h-1.2zm17.3 0V66.1H83v45.7H52.1z"/><path d="M60.2 69.8c-1 0-1.9.8-1.9 1.9v34.6c0 1 .8 1.9 1.9 1.9s1.9-.8 1.9-1.9V71.7c-.1-1.1-.9-1.9-1.9-1.9zm7.4 0c-1 0-1.9.8-1.9 1.9v34.6c0 1 .8 1.9 1.9 1.9s1.9-.8 1.9-1.9V71.7c-.1-1.1-.9-1.9-1.9-1.9zm7.4 0c-1 0-1.9.8-1.9 1.9v34.6c0 1 .8 1.9 1.9 1.9s1.9-.8 1.9-1.9V71.7c0-1.1-.9-1.9-1.9-1.9zM77.5 29c1 0 1.9-.8 1.9-1.9v-2.5c0-1-.8-1.9-1.9-1.9s-1.9.8-1.9 1.9v2.5c0 1.1.9 1.9 1.9 1.9zm7.4 0c1 0 1.9-.8 1.9-1.9v-2.5c0-1-.8-1.9-1.9-1.9s-1.9 1-1.9 2v2.5c0 1 .9 1.8 1.9 1.8zm7.4 0c1 0 1.9-.8 1.9-1.9v-2.5c0-1-.8-1.9-1.9-1.9s-1.9.8-1.9 1.9v2.5c.1 1.1.9 1.9 1.9 1.9zM77.5 41.4c1 0 1.9-.8 1.9-1.9V37c0-1-.8-1.9-1.9-1.9s-1.9.8-1.9 1.9v2.5c0 1.1.9 1.9 1.9 1.9zm7.4 0c1 0 1.9-.8 1.9-1.9V37c0-1-.8-1.9-1.9-1.9s-1.9.9-1.9 2v2.5c0 1 .9 1.8 1.9 1.8zm7.4 0c1 0 1.9-.8 1.9-1.9V37c0-1-.8-1.9-1.9-1.9s-1.9.8-1.9 1.9v2.5c.1 1.1.9 1.9 1.9 1.9zM77.5 53.7c1 0 1.9-.8 1.9-1.9v-2.5c0-1-.8-1.9-1.9-1.9s-1.9.8-1.9 1.9v2.5c0 1.1.9 1.9 1.9 1.9zm7.4 0c1 0 1.9-.8 1.9-1.9v-2.5c0-1-.8-1.9-1.9-1.9s-1.9 1-1.9 2v2.5c0 1 .9 1.8 1.9 1.8zm7.4 0c1 0 1.9-.8 1.9-1.9v-2.5c0-1-.8-1.9-1.9-1.9s-1.9.8-1.9 1.9v2.5c.1 1.1.9 1.9 1.9 1.9zm-66.7 5c1 0 1.9-.8 1.9-1.9v-2.5c0-1-.8-1.9-1.9-1.9s-1.9.8-1.9 1.9v2.5c0 1.1.8 1.9 1.9 1.9zm7.4 0c1 0 1.9-.8 1.9-1.9v-2.5c0-1-.8-1.9-1.9-1.9-1 0-1.9.8-1.9 1.9v2.5c0 1.1.9 1.9 1.9 1.9zm7.4 0c1 0 1.9-.8 1.9-1.9v-2.5c0-1-.8-1.9-1.9-1.9s-1.9.8-1.9 1.9v2.5c0 1.1.9 1.9 1.9 1.9zM25.6 71c1 0 1.9-.8 1.9-1.9v-2.5c0-1-.8-1.9-1.9-1.9s-1.9.8-1.9 1.9v2.5c0 1.1.8 1.9 1.9 1.9zm7.4 0c1 0 1.9-.8 1.9-1.9v-2.5c0-1-.8-1.9-1.9-1.9-1 0-1.9.8-1.9 1.9v2.5c0 1.1.9 1.9 1.9 1.9zm7.4 0c1 0 1.9-.8 1.9-1.9v-2.5c0-1-.8-1.9-1.9-1.9s-1.9.8-1.9 1.9v2.5c0 1.1.9 1.9 1.9 1.9zM25.6 83.4c1 0 1.9-.8 1.9-1.9V79c0-1-.8-1.9-1.9-1.9s-1.9.8-1.9 1.9v2.5c0 1.1.8 1.9 1.9 1.9zm7.4 0c1 0 1.9-.8 1.9-1.9V79c0-1-.8-1.9-1.9-1.9-1 0-1.9.8-1.9 1.9v2.5c0 1.1.9 1.9 1.9 1.9zm7.4 0c1 0 1.9-.8 1.9-1.9V79c0-1-.8-1.9-1.9-1.9s-1.9.8-1.9 1.9v2.5c0 1.1.9 1.9 1.9 1.9zm-13 10.5v-2.5c0-1-.8-1.9-1.9-1.9s-1.9.8-1.9 1.9v2.5c0 1 .8 1.9 1.9 1.9s1.9-.9 1.9-1.9zm5.6 1.9c1 0 1.9-.8 1.9-1.9v-2.5c0-1-.8-1.9-1.9-1.9-1 0-1.9.8-1.9 1.9v2.5c0 1 .9 1.9 1.9 1.9zm7.4 0c1 0 1.9-.8 1.9-1.9v-2.5c0-1-.8-1.9-1.9-1.9s-1.9.8-1.9 1.9v2.5c0 1 .9 1.9 1.9 1.9zm51.9-29.7c1 0 1.9-.8 1.9-1.9v-2.5c0-1-.8-1.9-1.9-1.9s-1.9.8-1.9 1.9v2.5c.1 1.1.9 1.9 1.9 1.9zm0 12.4c1 0 1.9-.8 1.9-1.9v-2.5c0-1-.8-1.9-1.9-1.9s-1.9.8-1.9 1.9v2.5c.1 1 .9 1.9 1.9 1.9zm0 12.3c1 0 1.9-.8 1.9-1.9v-2.5c0-1-.8-1.9-1.9-1.9s-1.9.8-1.9 1.9V89c.1 1 .9 1.8 1.9 1.8zm0 12.4c1 0 1.9-.8 1.9-1.9v-2.5c0-1-.8-1.9-1.9-1.9s-1.9.8-1.9 1.9v2.5c.1 1.1.9 1.9 1.9 1.9zM59.6 34.6c0-1-.8-1.9-1.9-1.9H42.9c-1 0-1.9.8-1.9 1.9 0 1 .8 1.9 1.9 1.9h14.8c1-.1 1.9-.9 1.9-1.9z"/></svg>