<svg version="1.1" id="Layer_1" xmlns="http://www.w3.org/2000/svg" xmlns:xlink="http://www.w3.org/1999/xlink" x="0" y="0" viewBox="0 0 120 120" xml:space="preserve"><path d="M99.4 83.3H20.9c-1.7 0-3.1-1.4-3.1-3.1 0-1.7 1.4-3.1 3.1-3.1h78.5c1.7 0 3.1 1.4 3.1 3.1 0 1.7-1.4 3.1-3.1 3.1z" fill="#617280"/><ellipse cx="48.2" cy="40.8" rx="4.3" ry="4.6" fill="#aaffd5"/><ellipse cx="41.3" cy="45.4" rx="1.9" ry="2.1" fill="#aaffd5"/><path d="M83.2 32.1c-2.2 1-4.7 1.1-7 .4-.6-.2-1.1.1-1.3.7v.1c-1 5.7-6.3 9.5-11.8 8.5-3.3-.6-6.1-2.8-7.5-5.9-.2-.4-.5-.6-1-.6h-1.1c-5.8.2-10.5-4.3-10.7-10.1-.2-5.8 4.3-10.7 9.9-10.9h.7c.7 0 1.4.1 2 .2.5.1.9-.1 1.2-.6 2.6-5.2 8.8-7.2 13.8-4.5 1.3.7 2.5 1.7 3.4 3 .3.4.8.5 1.3.3 5.2-2.3 11.2.2 13.5 5.5 2.2 5.4-.2 11.6-5.4 13.9z" fill="#aaffd5"/><defs><path id="SVGID_13_" d="M32.9 6.5H92v52.7H32.9z"/></defs><clipPath id="SVGID_2_"><use xlink:href="#SVGID_13_" overflow="visible"/></clipPath><path d="M60.1 27.3c-.2-.2-.5-.3-.8-.2H55l4-4.5.4-.4.2-.3c.1-.1.1-.2.2-.3 0-.1.1-.2.1-.4 0-.3-.1-.6-.4-.7-.3-.2-.7-.2-1.1-.2h-5.1c-.3 0-.5.1-.7.3-.2.2-.3.4-.3.6 0 .3.1.6.3.6.3.1.7.1 1.1.1h3.1c-.1.2-.3.4-.5.7l-.8 1-1.1 1.2-1.3 1.4c-.5.5-.8.9-.9 1.1-.1.2-.2.4-.2.6 0 .3.1.6.3.7.3.2.6.3.9.3h6c.3 0 .6-.1.8-.2.2-.2.3-.4.3-.6 0-.4-.1-.7-.2-.8zm9 5.2c-.2-.1-.4-.2-.6-.2H65l3.2-3.6.3-.3.2-.2c.1-.1.1-.2.1-.2 0-.1.1-.2.1-.3 0-.2-.1-.5-.3-.6-.3-.1-.6-.2-.9-.2h-4c-.2 0-.4.1-.6.2-.1.1-.2.3-.2.5 0 .3.1.4.3.5.3.1.5.1.8.1h2.6c-.1.1-.2.3-.4.5l-.7.8-.9 1-1.1 1.2c-.4.4-.6.7-.7.8-.1.1-.2.3-.2.4 0 .2.1.4.2.6.2.2.5.2.8.2h4.8c.2 0 .4 0 .6-.2.1-.1.2-.3.2-.5.1-.2 0-.4-.1-.5zm10.7-5.8c-.2-.2-.5-.3-.8-.2h-4.3l4-4.5.4-.4.2-.3c.1-.1.1-.2.2-.3 0-.1.1-.2.1-.4 0-.3-.1-.6-.4-.7-.3-.2-.7-.2-1.1-.2H73c-.3 0-.5.1-.7.2-.2.1-.3.4-.3.6 0 .3.1.6.3.6.3.1.7.1 1.1.1h3.3c-.1.2-.3.4-.5.7l-.8 1-1.1 1.2-1.3 1.5c-.5.5-.8.9-.9 1.1-.1.2-.2.4-.2.6 0 .3.1.6.3.7.3.2.6.3.9.3h6c.3 0 .6-.1.8-.2.2-.2.3-.4.3-.6l-.4-.8zm35.5 30.4h-11.4c-1 0-1.9.9-1.9 1.9v5.7c-1.6-1.3-3.6-1.9-5.7-1.9H24.1c-2.1 0-4.1.7-5.7 1.9V40c0-1-.9-1.9-1.9-1.9H5.1c-1 0-1.9.9-1.9 1.9v70.3c0 1 .9 1.9 1.9 1.9h11.4c1 0 1.9-.9 1.9-1.9v-9.5H102v9.5c0 1 .9 1.9 1.9 1.9h11.4c1 0 1.9-.9 1.9-1.9V59c0-1-.9-1.9-1.9-1.9zm-9.5 3.8h7.6V97h-7.6V60.9zm-81.7 5.7h72.2c3.1 0 5.7 2.6 5.7 5.7v9.5H18.4v-9.5c0-3.1 2.5-5.7 5.7-5.7zM7 41.9h7.6V97H7V41.9zm7.6 66.5H7v-7.6h7.6v7.6zm3.8-22.8H102V97H18.4V85.6zm95 22.8h-7.6v-7.6h7.6v7.6zm0 0"/><path d="M27.9 60.9h15.2c3.1 0 5.7-2.6 5.7-5.7s-2.6-5.7-5.7-5.7H27.9c-3.1 0-5.7 2.6-5.7 5.7 0 3.2 2.5 5.7 5.7 5.7zm0-7.6h15.2c1 0 1.9.9 1.9 1.9 0 1-.9 1.9-1.9 1.9H27.9c-1 0-1.9-.9-1.9-1.9 0-1 .8-1.9 1.9-1.9zm68.4 36.1H24.1c-1 0-1.9.9-1.9 1.9 0 1 .9 1.9 1.9 1.9h72.2c1 0 1.9-.9 1.9-1.9 0-1-.9-1.9-1.9-1.9zm0 0"/></svg>