<svg id="Layer_1" data-name="Layer 1" xmlns="http://www.w3.org/2000/svg" viewBox="0 0 225.64 161.36"><path d="M247.89 95q2.61 10.71 3.74 32.53l.37 19.84-.37 19.84q-1.12 22.22-3.74 32.93a28.06 28.06 0 0 1-6.73 11.9 25.67 25.67 0 0 1-11.59 7.15q-9.72 2.78-45.6 4l-34 .4-34-.4q-35.89-1.18-45.6-4A25.67 25.67 0 0 1 58.75 212 28 28 0 0 1 52 200.09q-2.62-10.71-3.74-32.93l-.37-19.84q0-8.73.37-19.84Q49.41 105.66 52 95a27.78 27.78 0 0 1 6.73-12.3 25.67 25.67 0 0 1 11.61-7.2q9.7-2.77 45.6-4l34-.4 34 .4q35.88 1.18 45.6 4a25.67 25.67 0 0 1 11.59 7.15A27.87 27.87 0 0 1 247.89 95z" transform="translate(-30.41 -63.64)" fill="#aaffd5"/><path d="M113.51 176.9v-61.4l53.87 30.5zm7-49.4v37.31L153.24 146z" transform="translate(-30.41 -63.64)" fill="#9041b7"/><path d="M143.28 225l-36.21-.4c-26.07-.81-42.25-2.16-49.53-4.12A32.7 32.7 0 0 1 35 198.36v-.14c-2-7.5-3.29-18.57-4.11-33.82v-.15l-.39-19.84c0-5.95.13-12.67.4-20.09.82-15.07 2.16-26 4.11-33.5a32.18 32.18 0 0 1 22.5-22.65C64.83 66.2 81 64.85 107 64l36.2-.4 36.2.4c26.08.81 42.25 2.16 49.53 4.12a32.23 32.23 0 0 1 22.61 22.58v.08c1.94 7.5 3.29 18.43 4.1 33.42v.15l.4 19.93-.41 20.08c-.81 15.25-2.16 26.32-4.1 33.82v.14a32.69 32.69 0 0 1-22.56 22.11c-7.31 2-23.48 3.32-49.47 4.13zm-99.67-29.11a23 23 0 0 0 6 9.92 22.78 22.78 0 0 0 10.32 6c6.47 1.74 22.41 3 47.34 3.81l36 .39 36-.4c24.84-.77 40.78-2.06 47.29-3.81a22.84 22.84 0 0 0 10.29-6 23.09 23.09 0 0 0 6-9.92c1.76-6.81 3-17.54 3.81-31.9l.39-19.67-.39-19.67c-.77-14.12-2.05-24.73-3.81-31.54a23.25 23.25 0 0 0-16.31-16.27c-6.47-1.74-22.41-3-47.34-3.81l-36-.39-36 .39c-24.84.78-40.78 2.07-47.29 3.82a23.26 23.26 0 0 0-16.27 16.3c-1.75 6.74-3 17.39-3.81 31.58-.26 7.22-.39 13.84-.39 19.59L39.8 164c.77 14.35 2.05 25.08 3.81 31.89zm72.9-11.27v-80.16l70.32 39.84zm9-64.72v49.19l43.15-24.75z" transform="translate(-30.41 -63.64)"/></svg>