<svg width="96" height="96" xmlns="http://www.w3.org/2000/svg"><path fill="none" id="canvas_background" d="M-1-1h582v402H-1z"/><g fill="#c7ffd9"><path id="svg_1" d="M80.122 4.122h-12a4 4 0 0 0 0 8h12c2.21 0 4 1.79 4 4v12a4 4 0 0 0 8 0v-12c0-6.627-5.373-12-12-12z"/><path id="svg_2" d="M28 4H16C9.373 4 4 9.373 4 16v12a4 4 0 0 0 8 0V16c0-2.21 1.79-4 4-4h12a4 4 0 0 0 0-8z"/><path id="svg_3" d="M88 64a4 4 0 0 0-4 4v12c0 2.21-1.79 4-4 4H68a4 4 0 0 0 0 8h12c6.627 0 12-5.373 12-12V68a4 4 0 0 0-4-4z"/><path id="svg_4" d="M28 84H16c-2.21 0-4-1.79-4-4V68a4 4 0 0 0-8 0v12c0 6.627 5.373 12 12 12h12a4 4 0 0 0 0-8z"/></g></svg>