<svg version="1.1" id="Layer_1" xmlns="http://www.w3.org/2000/svg" x="0" y="0" viewBox="0 0 120 120" xml:space="preserve"><path d="M26.5 21.6c0 2.8-2.2 5-5 5s-5-2.2-5-5 2.2-5 5-5 5 2.3 5 5z" fill="#3cd3af"/><path fill="#9041b7" d="M13.3 88.3h65.5V93H13.3z"/><path d="M66.6 15.7c6.6-6 15.8-8.1 24-4.9 8.9 3.4 18.7 15.7 16 26.8-.2.8-.5 1.6-1 2.2-1 1-2.5 1.1-3.8.5-9-4.1-20.1-21.5-34.6-24.6" fill="#aaffd5"/><path d="M2.2 99c0 1.1.9 1.9 2 1.9h12l-9.7 14.5c-.6.9-.4 2.1.5 2.7.9.6 2.1.4 2.7-.5l11-16.6h53.6v15.6c0 1.1.9 2 2 2s1.9-.9 1.9-2V101h24.3l11.1 16.7c.6.9 1.8 1.1 2.7.5.9-.6 1.1-1.8.5-2.7l-9.7-14.5h10c1.1 0 1.9-.9 1.9-1.9 0-1.1-.9-2-1.9-2h-6.8L99.4 82.5l9.4-9.4c.7-.8.7-2 0-2.8-.8-.7-2-.7-2.8 0L79.3 97.1H4.1c-1.1 0-1.9.9-1.9 1.9zm103.3-1.9H84.9l11.8-11.8 8.8 11.8z"/><path d="M74.3 41.3v39.4l-2.8 2.8H10c-1.1 0-2 .9-2 2v7.8c0 1.1.9 2 2 2h66.3c.5 0 1-.2 1.4-.6L101 71.2c.8-.8.8-2 0-2.8l-5.8-5.9c-.8-.8-2-.8-2.8 0L78.2 76.8V41.3c2.5 1.7 5.8 1.6 8.2-.3.9-.6 2.1-.6 3 0 2.6 1.9 6.1 1.9 8.7 0 .9-.6 2.1-.6 3 0 1.3.9 2.8 1.4 4.3 1.4 1.8 0 3.5-.7 4.8-1.8.7-.6 1-1.4 1-2.3-.6-17.2-14.1-31-35.1-31-19.1 0-34.4 13.8-35.1 31 0 .9.4 1.7 1 2.3 2.6 2.3 6.4 2.4 9.1.4.9-.6 2.1-.6 3 0 2.6 1.9 6.1 1.9 8.7 0 .9-.6 2.1-.6 3 0 1.3.9 2.8 1.4 4.3 1.4 1.7.1 3-.3 4.2-1.1zm-.6 45.5l3.9-3.9 16.2-16.2 3.1 3.1-21.5 21.4H11.9v-3.9h60.5c.5 0 1-.2 1.3-.5zm6.4-48.9c-2.3-1.6-5.3-1.6-7.6 0-1.2.9-2.9.9-4.1 0-2.3-1.6-5.3-1.6-7.6 0-1.2.9-2.9.9-4.1 0-2.3-1.6-5.3-1.6-7.6 0-.6.4-1.3.7-2 .7s-1.3-.2-1.9-.6c.8-15 14.4-26.7 31.1-26.7 17.6 0 30.3 10.9 31.2 26.7-.6.4-1.2.6-1.9.6s-1.5-.3-2-.7c-2.3-1.6-5.3-1.6-7.6 0-1.2.9-2.9.9-4.1 0-2.3-1.6-5.3-1.6-7.6 0-.6.4-1.3.7-2 .7-.9 0-1.6-.3-2.2-.7zM19.7 10.2c-4.9 0-8.9 4-8.9 8.9s4 8.9 8.9 8.9 8.9-4 8.9-8.9-4-8.9-8.9-8.9zm5 8.9c0 2.8-2.2 5-5 5s-5-2.2-5-5 2.2-5 5-5 5 2.2 5 5z"/><path d="M37.3 19.1c0 1.1-.9 2-1.9 2h-3.5c-1.1 0-1.9-.9-1.9-2s.9-1.9 1.9-1.9h3.5c1-.1 1.9.8 1.9 1.9zM29.4 6.7c.8-.7 2-.7 2.8 0 .7.8.7 2 0 2.7l-2.5 2.5c-.8.7-2 .7-2.8 0-.7-.8-.7-2 0-2.7l2.5-2.5zM17.8 7V3.5c0-1.1.9-1.9 1.9-1.9 1.1 0 2 .9 2 1.9V7c0 1.1-.9 1.9-2 1.9S17.8 8 17.8 7zM7.3 6.7c.8-.8 2-.8 2.8 0l2.5 2.5c.8.7.8 2 0 2.8-.7.8-2 .8-2.8 0L7.3 9.4c-.8-.7-.8-2 0-2.7zM4.1 17.1h3.5c1.1 0 1.9.9 1.9 1.9s-.9 2-1.9 2H4.1c-1.1 0-2-.9-2-2s.9-1.9 2-1.9zm8.4 9.2c.8.8.8 2 0 2.8L10 31.6c-.8.7-2 .7-2.8 0-.7-.8-.7-2 0-2.7l2.5-2.5c.8-.9 2-.9 2.8-.1zm9.2 4.9v3.5c0 1.1-.9 2-2 2s-1.9-.9-1.9-2v-3.5c0-1.1.9-2 1.9-2 1.1.1 2 1 2 2zm8-4.9l2.5 2.5c.8.7.8 2 0 2.8-.7.8-2 .8-2.8 0l-2.5-2.5c-.7-.8-.7-2 0-2.8.8-.7 2-.7 2.8 0z" fill="#3cd3af"/></svg>