<svg version="1.1" id="Layer_1" xmlns="http://www.w3.org/2000/svg" xmlns:xlink="http://www.w3.org/1999/xlink" x="0" y="0" viewBox="0 0 120 120" xml:space="preserve"><ellipse cx="62.8" cy="41.6" rx="12" ry="14.3" fill="#aaffd5"/><path d="M119 104.4l-10.1-27.8c-.1-1.1-.5-2.1-1.1-2.9.7-1 1.1-2.2 1.1-3.4V12.9c0-3.2-2.6-5.8-5.8-5.8H17.2c-3.2 0-5.8 2.6-5.8 5.8v57.4c0 1.2.4 2.4 1.1 3.4-.6.9-1 1.9-1.1 2.9L1.3 104.4c-.1.3-.1.5-.1.8 0 3.2 2.6 5.8 5.8 5.8h106.4c3.2 0 5.8-2.6 5.8-5.8 0-.3-.1-.6-.2-.8zM16.2 12.9c0-.5.5-1 1-1h85.9c.5 0 1 .4 1 1v57.4c0 .6-.5 1-1 1H17.2c-.6 0-1-.5-1-1V12.9zm-.2 65c.1-.3.1-.5.1-.8 0-.6.5-1 1-1H103c.6 0 1 .5 1 1 0 .3 0 .6.1.8l3.3 9.1H12.7l3.3-9.1zm55.1 28.3H49.2v-6.8h21.9v6.8zm42.3 0H75.9V99c-.2-2.5-2.3-4.4-4.8-4.3H49.2c-2.5-.1-4.7 1.8-4.8 4.3v7.2H7c-.4 0-.8-.3-1-.7l5-13.6h98.4l5 13.6c-.2.4-.6.7-1 .7zm0 0"/><path d="M93.8 17.2H26.5c-2.7 0-4.8 2.2-4.8 4.8v39.1c0 2.7 2.2 4.8 4.8 4.8h67.3c2.7 0 4.8-2.2 4.8-4.8V22c0-2.6-2.1-4.8-4.8-4.8zm0 43.9H26.5V22h67.3v39.1zm0 0"/><image width="512" height="512" xlink:href="../133699-internet-icons/png/worldwide.png" transform="translate(43.99 26.196) scale(.06385)" overflow="visible"/></svg>