<svg version="1.1" id="Layer_1" xmlns="http://www.w3.org/2000/svg" xmlns:xlink="http://www.w3.org/1999/xlink" x="0" y="0" viewBox="0 0 120 120" xml:space="preserve"><path d="M80.7 34.6c-1.7 0-3.1-1.1-3.1-2.6 0-1.4 1.4-2.6 3.1-2.6 1.7 0 3.1 1.1 3.1 2.6s-1.4 2.6-3.1 2.6z" fill="#9041b7"/><path fill="#3cd3af" d="M37.6 79.7h79.8v7.8H37.6z"/><path d="M10 47l5.2-17.4c1-.6 3.3-1 5.6-1h.6c2.5 0 4.6.6 5.6 1L32.3 47H10z" fill="#aaffd5"/><defs><path id="SVGID_5_" d="M.6 24h118v74.2H.6z"/></defs><clipPath id="SVGID_2_"><use xlink:href="#SVGID_5_" overflow="visible"/></clipPath><path d="M27 27.7c-.2-.4-.4-.6-.6-1-1.9-1.5-5.4-2.1-8.1-2.3h-1.4c-2.7.2-6.2.6-8.1 2.3-.2.2-.6.6-.6 1L1.8 48.6c-.2.6 0 1.2.4 1.7.4.6 1 .8 1.5.8h4.1v4.4c-1.2.6-1.9 1.9-1.9 3.3 0 2.1 1.7 3.9 3.9 3.9 2.1 0 3.9-1.7 3.9-3.9 0-1.4-.8-2.7-1.9-3.3v-4.4h3.9v40.4H8c-1.2 0-1.9.8-1.9 1.9 0 1.2.8 1.9 1.9 1.9h18.8c1.2 0 1.9-.8 1.9-1.9 0-1.2-.8-1.9-1.9-1.9h-7.5V51.1h12v-.2c.6 0 1.2-.2 1.5-.8.4-.6.4-1.2.4-1.7L27 27.7zM6.3 47l5.2-17.4c1-.6 3.3-1 5.6-1h.6c2.5 0 4.6.6 5.6 1L28.5 47H6.3zm108 24.9h-1V61.2c0-6.4-3.8-10.4-10.4-10.4H85c-3.8 0-6.6 1.4-8.4 3.6-1.8-2.4-4.6-3.6-8.4-3.6H50.4C44 50.8 40 54.6 40 61.2v10.6h-1c-2.4 0-4.4 2-4.4 4.4v11c0 2.4 2 4.4 4.4 4.4h1v4c0 1.2.8 2 2 2s2-.8 2-2v-4h65.1v4c0 1.2.8 2 2 2s2-.8 2-2v-4h1c2.4 0 4.4-2 4.4-4.4v-11c.2-2.3-1.8-4.3-4.2-4.3zM78.6 61.2c0-4.4 2.2-6.4 6.4-6.4h17.8c4.2 0 6.4 2 6.4 6.4v10.6H78.6V61.2zm-34.6 0c0-4.2 2-6.4 6.4-6.4h17.8c4.2 0 6.4 2 6.4 6.4v10.6H44V61.2zm70.7 26.1c0 .2-.2.4-.4.4H39.2c-.2 0-.4-.2-.4-.4v-11c0-.2.2-.4.4-.4h75.1c.2 0 .4.2.4.4v11zm0 0" clip-path="url(#SVGID_2_)"/><path d="M53.6 63.6c0 1.1-.9 2-2 2s-2-.9-2-2 .9-2 2-2 2 .9 2 2zm15.6 0c0 1.1-.9 2-2 2s-2-.9-2-2 .9-2 2-2 2 .9 2 2zm18.9 0c0 1.1-.9 2-2 2s-2-.9-2-2 .9-2 2-2 2 .9 2 2zm15.8 0c0 1.1-.9 2-2 2s-2-.9-2-2 .9-2 2-2 2 .9 2 2zm0 0"/><path d="M101.4 21.1V21l-.1-.1-.1-.1-.2-.1H52.2l-.1.1-.1.1v25l.1.1.1.1.1.1h.1l.1.1h48.3l.1-.1h.1l.1-.1.1-.1.1-.1V21.2l.1-.1zm-4.2 1l-2.5 1.5H58.6l-2.5-1.5h41.1zm2 21.6L96.3 42V24.8l2.9-1.7v20.6zm-11.5-8.4c-.9 1.8-1.7 3.5-3.8 3.9-3.7.7-5.4.2-8.6-.7-1.7-.5-3.5-1-5.3-1.4-4.7-1-8.4 1-10.7 3V25.2H94v5.1c-4 .3-5.3 2.9-6.3 5zm6.3-3.4v9.5H60.6c1.4-1.5 4.4-3.8 8.7-2.9 1.7.4 3.4.8 5.1 1.3 3.3.9 5.7 1.6 10.1.8 3.3-.6 4.4-2.9 5.4-4.9 1-2.1 1.9-3.5 4.1-3.8zM54.2 43.7V23l2.8 1.7v17.2l-2.8 1.8zm1.9.9l2.5-1.5h36.1l2.5 1.5H56.1zm0 0" fill="#1c1e26"/></svg>