<svg version="1.1" id="Layer_1" xmlns="http://www.w3.org/2000/svg" x="0" y="0" viewBox="0 0 720 720" xml:space="preserve"><style>.st0{fill:none}</style><path class="st0" d="M206.7 560.3s1.2 0 0 0c1.2 0 1.2 0 0 0zm-1.2-1.2s0-1.2 0 0zm44.3-61.6l-2.5 2.5c-1.3 1.3 2.5 0 2.5-2.5zm227.8-262.3c0-1.2 0-1.2-1.2-1.2s-1.2 1.2-1.2 1.2 1.2 1.2 2.4 0zm49.3-57.9l-1.2-1.2 1.2 1.2zm-16-12.3c-1.2 1.3 0 1.3 0 0zm-14.8-4.9c0 1.2-1.2 3.7 1.2 3.7 1.2-1.2 0-3.7 2.5-6.2-2.5 1.3-3.7 0-3.7 2.5zm19.7 7.4c-1.2 0-1.2 0 0 0zm-2.4 0c1.2-1.2 0-1.2 0 0zm-88.7 125.6c0-1.2 0-1.2 1.2-1.2 2.5-1.2 2.5-2.5 2.5-4.9h1.2c1.2 0 1.2 0 1.2-1.2s-1.2-1.2-1.2-1.2 1.2-1.2 2.5-1.2 2.5-2.5 3.7-4.9c1.2-2.5 3.7-3.7 6.2-6.2 1.2 0 1.2 0 1.2-1.2 0-2.5 2.5-4.9 6.2-4.9l-1.2-1.2c1.2-1.2 2.5-1.2 3.7-2.5 2.5-4.9 6.2-7.4 9.9-11.1l2.5-3.7c2.5-3.7 6.2-6.2 9.9-7.4-1.2-1.2-1.2-3.7 0-3.7H473c-2.5 3.7-6.2 7.4-9.9 9.9l-1.2 1.2s-1.2 1.2-1.2 2.5L447.2 265l-6.2 6.2-6.2 4.9c-2.5 1.2-3.7 3.7-4.9 6.2-3.7 2.5-6.2 6.2-9.9 9.9-1.2 1.2-1.2 0-2.5 2.5-1.2 2.5-3.7 4.9-6.2 4.9l-6.2 6.2s1.2 0 1.2 1.2c0 0-1.2 0-1.2-1.2l-2.5 2.5c-1.2 1.2-3.7 2.5-6.2 4.9-1.2-1.2-1.2-2.5 0-2.5s2.5 0 2.5-2.5c1.2-2.5 2.5-3.7 3.7-6.2 2.5-1.2 3.7-3.7 6.2-6.2-1.2 0-2.5 0-2.5 1.2s-1.2 1.2-1.2 1.2c-7.4 6.2-13.5 13.5-19.7 19.7l-2.5 1.2c-1.2 3.7-3.7 6.2-6.2 8.6-1.2 1.2-1.2 3.7-3.7 2.5 0 1.2 0 3.7-2.5 3.7 0 1.2-2.5 2.5-1.2 4.9 1.2 2.5-1.2 4.9 1.2 6.2 1.2-1.2 1.2-1.2 3.7-2.5l1.2-1.2c-1.2-2.5 1.2-2.5 2.5-3.7 1.2-1.2 2.5-2.5 3.7-2.5 1.2 0 0-2.5 2.5-2.5s1.2 2.5 3.7 3.7V335c-2.5-1.2-1.2-2.5 0-4.9h1.2c0-1.2 1.2-2.5 2.5-3.7 2.5 0 1.2-2.5 2.5-2.5l2.5-2.5c0-1.2 0-1.2 1.2-1.2l2.5-2.5c1.2-1.2 1.2 1.2 2.5 0-1.2-1.2-2.5-2.5 0-3.7 2.5-1.2 1.2 2.5 2.5 1.2 0-1.2-1.2-2.5-1.2-3.7 2.5-2.5 4.9-6.2 9.9-6.2l-1.2-2.5c2.5-1.2 3.7-3.7 4.9-4.9 0 1.2 1.2 1.2 1.2 2.5s0-2.5 1.2-3.7h4.9c2.3-2.4 1-3.6-.2-3.6zm-48 44.3c0-1.2 1.2-1.2 1.2-2.5s-1.2 2.5-1.2 2.5zm3.7-3.7c0-1.2 1.2-2.5 2.5-2.5-.1 1.3-1.3 1.3-2.5 2.5zm14.7-16c0 1.2-1.2 1.2-1.2 1.2v1.2s0 1.2-1.2 1.2l-1.2-1.2 1.2-1.2h1.2c0-2.5 2.5-3.7 4.9-6.2 1.2 1.2 1.2 1.2 1.2 2.5-3.6.1-4.9 1.3-4.9 2.5zm-51.7-61.5c-1.2 0-1.2 1.2-1.2 1.2h1.2v-1.2zm0 27s1.2 0 0 0c1.2 0 1.2 0 0 0 1.2 0 0 0 0 0zm155.2-55.4l-1.2 1.2s2.4 1.3 1.2-1.2zm34.5-18.4c0-1.2 0-1.2-1.2-1.2s-.1 1.2 1.2 1.2z"/><path class="st0" d="M457.9 257.4c0 1.2 1.2 1.2 1.2 1.2s.1-1.2-1.2-1.2zm66.5-82.5c0-1.2-1.2-1.2-1.2-1.2-1.2 1.2 1.2 1.2 1.2 1.2zm2.5 3.7c1.2 0 1.2-1.2 1.2-1.2h-1.2c0-.1-1.2-.1 0 1.2zM385.3 337.4c0-1.2-1.2-1.2-1.2-1.2 0 1.2 1.2 1.2 1.2 1.2zM360.7 383v-2.5 2.5zm28.3-48c1.2 0 0 0 0 0zm-2.5 3.7c0-1.3 0-1.3 0 0-1.2-1.3-1.2 0 0 0zm-9.8 60.3c-1.2 0-2.5 0-3.7 1.2 1.2 0 3.7 1.3 3.7-1.2zm19.7 102.2c1.2 0 1.2 0 1.2-1.2s-1.2 1.2-1.2 1.2zm1.2-60.3c1.2 0 1.2 0 1.2-1.2s-1.2-1.3-1.2 1.2zm-4.9-108.4l2.5-2.5c-2.5 0-2.5 1.2-4.9 1.2-2.6.1 1.1.1 2.4 1.3zm22.1-38.2c-1.2 0-2.5 0-2.5 2.5 1.3-1.2 2.5-1.2 2.5-2.5zM370.5 335c0 1.2 1.2 1.2 1.2 1.2v-2.5s-1.2 0-1.2 1.3zm3.7-2.5l-1.2 1.2 2.5-1.2c-1.3-1.2-1.3-1.2-1.3 0zm-20.9-70.2c-1.2-1.2 0-1.2-1.2-2.5h-3.7c-1.2-1.2-3.7-2.5-4.9-1.2 0 1.2 1.2 1.2 1.2 1.2h1.2l-2.5 1.2c1.2 2.5 2.5 1.2 3.7 1.2-1.2 2.5 1.2 1.2 2.5 1.2 1.2 2.5-1.2 4.9 0 8.6 0 1.2-1.2 1.2-1.2 1.2s2.5 0 4.9 1.2c-1.2 2.5-3.7 1.2-4.9 2.5-1.2-1.2-2.5-3.7-4.9-3.7-2.5 0-1.2 1.2-1.2 1.2s1.2 1.2 1.2 2.5c-1.2 1.2-1.2 2.5-1.2 3.7 0 1.2 1.2 2.5 1.2 3.7 0 1.2 1.2 1.2 1.2 1.2l-1.2 1.2c1.2-1.2 2.5-2.5 3.7-2.5-1.2-1.2-1.2-1.2-1.2-2.5s1.2-1.2 1.2-1.2 0-1.2 1.2-1.2l-1.2 1.2s0 1.2 1.2 1.2 1.2 0 1.2-1.2l6.2-6.2c1.2-1.2 1.2-1.2 1.2-2.5s1.2-1.2 0-1.2-1.2 2.5-2.5 1.2c0-1.2 0-3.7-1.2-3.7 0-1.2 0-2.5 1.2-2.5l2.5-1.2c-1.3-2.1-2.5-.9-3.7-2.1zm-43.1 134.2c1.2 2.5 0 3.7-1.2 6.2 1.2-1.2 2.5-3.7 3.7-2.5 1.2-1.2-.1-2.4-2.5-3.7 0 1.3 0 1.3 0 0zM439.5 266l-2.5 2.5c1.2 0 1.2 0 2.5-2.5zm-7.4 7.4l-2.5 2.5c2.5-1.3 2.5-1.3 2.5-2.5zm3.7-2.5c1.2-1.2 1.2-1.2 1.2-2.5s-2.5 1.3-1.2 2.5zm4.9-4.9l2.5-2.5c-2.5 0-2.5 1.3-2.5 2.5zm8.6-8.6c-1.2 0-1.2 1.2 0 0zm9.9-23.4c-1.3 0-1.3 0 0 0zm0-8.6c-1.3-1.3 0 0 0 0zm-1.3 2.4c-1.2 1.2-1.2-1.2-2.5-2.5-1.2 1.2-2.5 1.2-2.5 2.5 1.3 1.3 3.8 1.3 5 0 1.2 0 1.2 1.2 1.2 2.5 1.2 0 2.5-1.2 1.2-2.5-1.1-1.2-1.1-1.2-2.4 0zm-2.4-4.9c0-1.2-1.3-1.2 0 0zm3.7-11.1c1.2 1.2 1.2 0 0 0zm4.9 9.9l2.5-2.5c1.2-1.2 1.2-2.5 1.2-3.7-2.5 0-4.9 0-6.2 1.2l1.2 4.9h-4.9c3.7 1.2 7.4 1.2 11.1 1.2-2.4.1-4.9 1.3-4.9-1.1zm-1.2-3.7c0 1.2 0 0 0 0zm-5 29.5l-1.2 1.2c1.2 1.3 1.2 1.3 1.2-1.2zm-6.1-12.3c0 1.2 1.2 1.2 0 0zm-2.5-2.4c-1.2 0-1.2 1.2 0 1.2v-1.2zm8.6 1.2l2.5-3.7h-3.7c0 1.2 0 2.5 1.2 3.7z"/><path class="st0" d="M450.6 230.3c1.2 0 1.2-1.2 2.5-2.5l-2.5 2.5zm-1.3 1.2c1.2 0 1.2 0 1.2-1.2.1-1.2-1.2-1.2-1.2 1.2zm14.8-27.1v-1.2zm-41.9 81.3c1.2 0 1.2-1.2 1.2-1.2s-1.2 0-1.2 1.2zm3.7-6.2c1.2 0 2.5-1.2 1.2-1.2.1 0-1.2 0-1.2 1.2zm-2.4 3.7c1.2 0 1.2-1.2 1.2-2.5-1.2 1.3-1.2 2.5-1.2 2.5zm54.1-78.8c1.3 0 1.3 0 0 0 1.3-1.2 1.3-1.2 0 0 1.3-1.2 0-1.2 0 0z"/><path class="st0" d="M481.3 202c-1.2 0-1.2-1.2-3.7-1.2 1.2 1.2 1.2 2.5 1.2 3.7s1.2 1.2 1.2 1.2h1.2c1.2 0-1.2 1.2 1.2 2.5 2.5-1.2 1.2-3.7 1.2-3.7s1.2-1.2 1.2-2.5c-2.2-2.5-2.2 0-3.5 0zm6.2 22.1s1.2 0 0 0c1.2 0 0 0 0 0zm3.7-55.4v-2.4 2.4zm-13.6 64.1l2.5-1.2c-1.2-.1-2.5-.1-2.5 1.2zm-4.9-23.4c-2.5 0-4.9 2.5-6.2 4.9 2.5-2.5 5-2.5 6.2-4.9zm2.5 4.9c-1.2 0-3.7 0-4.9 1.2 2.4 0 3.7 0 4.9-1.2zm-6.2 6.1c1.2-1.2 1.2-1.2 1.2-2.5s-1.2 1.3-1.2 2.5zm-114.5-24.6c1.2 0 1.2 0 0 0zM478.9 213c-1.3-1.2-1.3 0 0 0zm-4.9-4.9s-1.3 0 0 0c0 1.3 0 0 0 0zm3.6 1.3c-1.2 1.2-1.2 1.2 0 2.5v-2.5zm-96 134.2zm-2.5 2.4c-1.2 0-1.2 0-1.2 1.2 0 1.3 0 .1 1.2-1.2zm150.3-162.5l1.2 3.7c0-1.2 0-2.5-1.2-3.7zM381.6 341.1v2.5c1.2 0 1.2 0 1.2-1.2s1.3-1.3-1.2-1.3zm-17.3 48.1c0-1.2 0-1.2-1.2-1.2s0 1.2 1.2 1.2zm39.5 77.5c0-1.2-1.2-2.5-2.5-3.7 0 1.3 1.2 2.5 2.5 3.7zm3.6-4.9c-1.2 0-1.2 1.2 0 1.2v-1.2zm-96-295.5c0-1.3 0-1.3 0 0zm108.4 307.8c-1.2 1.2-1.2 1.2 0 1.2v-1.2zm-22.2-13.5l1.2 1.2s0-1.2-1.2-1.2zm4.9 33.2c-1.2 1.2-2.5 3.7-2.5 6.2 2.5-1.2 2.5-3.7 2.5-6.2zm-76.3-321.4c0-1.2-1.2-2.5-2.5-2.5 0 1.3 1.2 2.5 2.5 2.5zm29.5 13.6c1.2-1.2 1.2-1.2 0-1.2s-1.2 1.2-1.2 1.2v1.2h1.2V186zm1.3-1.3c-1.3-1.2-1.3 0 0 0zm-2.5 7.4s0 1.2 1.2 1.2c-1.2-2.5-2.5-4.9-2.5-7.4-1.2 2.5 2.5 3.7 1.3 6.2zm40.6 257.4c0 1.2 0 2.5 1.2 3.7.1-2.5.1-2.5-1.2-3.7zm-76.3-282h-1.2c0 1.2 0 1.2 1.2 1.2s0-1.2 0-1.2zm-6.2-1.2c-1.2 0 0 0 0 0zm67.8 237.6h-1.3v1.3zm-7.4 0c0-1.2-1.3-1.2 0 0-1.3 0 0 0 0 0zm-5-8.6zm7.4 12.3l-2.5-3.7c.1 1.3.1 2.5 2.5 3.7zm152.7-203.2s0-1.2 0 0c-1.2 1.3 0 0 0 0zM370.5 401.5c1.2 1.2 1.2 0 0 0zm3.7-3.7c1.2 0 1.2 0 0 0 1.2 0 1.2 0 0 0 1.2-1.2 0-1.2 0-1.2v1.2zm29.6-78.8zm-16.1 107.1l-1.2-1.2 1.2 1.2zm6.2 14.8c-1.2 0-1.2 1.2 0 2.5 1.2-1.3 1.2-2.5 0-2.5zm-18.5-38.2c1.3 0 0 0 0 0zm0 6.2s1.3 0 0 0c1.3-1.3 0-2.5 0 0zm43.1-122c1.2 1.2 1.2 1.2 1.2 0v-1.2l-1.2 1.2zm2.5-1.2c0 1.2 0 1.2 0 0zM370.5 346c0 1.3 0 1.3 0 0zM209.2 560.3c1.2 0 1.2-1.2 1.2-1.2 0-1.2-1.2 0-1.2 1.2zm208.1-269.7c-1.2 0-1.2 0 0 0-1.2 1.3 0 1.3 0 0 1.2 1.3 0 0 0 0zM187 544.3h-1.2l1.2 1.3zm22.2-19.7s0 1.2 0 0zm1.2 33.3v-1.3h-1.2zm293.1-332.5c-1.2 1.2-1.2 1.2 0 0zm-1.2 1.2s-1.3 0 0 0c-1.3 1.2 0 1.2 0 0zm-5-37c1.3 0 0 0 0 0zM210.4 518.5c-1.2 0-1.2 1.2-1.2 2.5 1.2-1.3 1.2-1.3 1.2-2.5zm285.7-325.2c-1.2 1.3 0 1.3 0 0zm2.5-28.3c-1.2 0-2.5-1.2-3.7 0 0 1.2 0 1.2 1.2 2.5l2.5-2.5zM369.3 341.1s-1.3 0 0 0v1.2c1.2.1 1.2.1 0-1.2 1.2 0 1.2 0 0 0zm134.2-115.7zM217.8 519.7c-1.2 0-1.2-1.2-1.2-2.5s-1.2-2.5-2.5-3.7c-1.2 1.2 0 2.5 0 3.7 0 1.2 1.2 0 1.2 1.2 0 0-1.2 0-1.2-1.2h-1.2c-1.2-1.2 0-2.5-1.2-2.5 0 1.2 0 2.5-1.2 3.7 2.4-1.2 3.6 2.5 7.3 1.3zm-7.4-8.6l2.5-2.5c-1.3 0-2.5 1.2-2.5 2.5zm211.8-225.4zM221.5 490.1c-2.5 2.5-1.2 3.7-1.2 6.2 3.7 2.5 3.7 2.5 1.2 6.2-2.5-1.2-2.5-2.5-3.7-4.9 0 2.5-1.2 4.9-2.5 6.2-1.2 2.5 1.2 3.7 1.2 6.2 1.2 1.2 2.5 1.2 3.7 1.2 0-1.2 0-2.5 2.5-2.5s0-1.2 1.2-1.2 1.2 1.2 1.2 2.5c0 3.7 0 6.2-2.5 7.4-1.2 0-1.2 1.2-1.2 2.5 1.2 0 1.2 0 1.2 1.2v4.9c-1.2-1.2-1.2-1.2-2.5-1.2-1.2 0 0 1.2 1.2 1.2s3.7 3.7 3.7 6.2c0-1.2 1.2-1.2 1.2-1.2s1.2-1.2 1.2-2.5-1.2 1.2-3.7 0c1.2-1.2 2.5-3.7 2.5-4.9s2.5 0 3.7-1.2c1.2-1.2-1.2-3.7 1.2-4.9-1.2-1.2-2.5-1.2-2.5-1.2 2.5-2.5 4.9-3.7 2.5-6.2s1.2-2.5 1.2-3.7c0-1.2 2.5-2.5 3.7-1.2V499l2.5 1.2v-3.7c0-1.2 1.2-1.2 2.5-2.5l2.5-4.9h1.2l-1.2-1.2c1.2-3.7 2.5-6.2 4.9-9.9l1.2-1.2c1.2 0 1.2-2.5 2.5-3.7 0-1.2 0-1.2 1.2-2.5 1.2 0 1.2 1.2 1.2-1.2s-1.2-1.2 0-1.2 1.2-2.5 2.5-2.5 2.5-3.7 3.7-6.2c1.2-2.5 2.5-2.5 2.5-6.2V452c2.5-1.2 3.7-3.7 6.2-4.9v-1.2l-1.2-1.2-2.5 2.5-2.5-1.2c-1.2-1.2-1.2-1.2 0-1.2s1.2-1.2 1.2 0 0 1.2 1.2 0 0-2.5 2.5-2.5 1.2 2.5 3.7 2.5 2.5-1.2 2.5-1.2 3.7-2.5 2.5-4.9c-1.2-2.5 1.2 0 1.2-2.5s1.2-1.2 2.5-2.5 3.7-3.7 2.5-7.4c2.5 0 3.7-2.5 6.2-4.9 2.5-2.5 3.7-2.5 2.5-6.2 1.2 0 1.2 1.2 3.7 1.2-1.2-2.5-1.2-2.5-1.2-3.7h1.2c2.5-2.5 6.2-4.9 3.7-8.6l1.2-1.2h1.2l2.5-4.9s-1.2 0-1.2-1.2l1.2 1.2c1.2 0 2.5 1.2 3.7 1.2s-1.2-2.5-1.2-3.7l3.7-1.2c-1.2-1.2-1.2-2.5-1.2-3.7-2.5-4.9-3.7-9.9-4.9-16 0 0 0-1.2-1.2-1.2 0 1.2-1.2 2.5-2.5 3.7-1.2-2.5 1.2-2.5 1.2-3.7-1.2 0-2.5 0-3.7-1.2-1.2 1.2-1.2 2.5-2.5 3.7h1.2s0-1.2 1.2-1.2c0 0 0 1.2-1.2 1.2-1.2 1.2 1.2 1.2 1.2 3.7s-1.2-1.2-2.5-1.2v1.2c1.2 1.2 1.2 1.2 0 1.2s0-1.2 0-1.2c-2.5 0-4.9 2.5-6.2 4.9 0 1.2-2.5 2.5-3.7 2.5 1.2 1.2 1.2 1.2 0 3.7-1.2 1.2-1.2 2.5-2.5 3.7-1.2 0-1.2 0-1.2-1.2 0 3.7-2.5 6.2-6.2 6.2-1.2 0-1.2 1.2-2.5 2.5 1.2 1.2 0 3.7 0 4.9s1.2-2.5 2.5-1.2c-1.2 1.2-1.2 3.7-3.7 6.2 1.2-2.5-1.2-3.7-2.5-4.9-1.2 1.2-1.2 2.5-1.2 3.7h-2.5v4.9c-4.9 1.2-6.2 2.5-6.2 3.7 0 1.2-1.2 2.5-2.5 3.7l-1.2-1.2c0 1.2-1.2 2.5-2.5 3.7-1.2 1.2 1.2 0 1.2 1.2s-2.5 2.5-2.5 3.7c1.2-1.2 1.2-1.2 2.5 0v3.7h1.2l1.2 1.2-1.2 1.2-1.2-1.2V434c-1.2 0-2.5 1.2-3.7 1.2 0 1.2-1.2 1.2-1.2 1.2 0-1.2 1.2-2.5 2.5-3.7 1.2 0 1.2-1.2 0-1.2s-2.5 1.2-3.7 2.5c0 1.2-1.2 1.2-1.2 1.2v3.7c1.2 0 1.2 0 1.2 1.2s-1.2 2.5-2.5 2.5c-1.2-1.2 2.5-2.5 1.2-3.7-1.2-1.2-1.2 2.5-3.7 0-1.2 1.2-1.2 1.2 0 3.7s-1.2 1.2-1.2 2.5 0-1.2-1.2-1.2l-1.2 1.2c-1.2 2.5-2.5 4.9-4.9 7.4v1.2c1.2-1.2 2.5-1.2 2.5 1.2 1.2 0 1.2 0 1.2 1.2l2.5 1.2c-1.2 0-1.2 1.2-1.2 1.2l-1.2 1.2s-1.2 0-1.2-1.2-1.2-2.5 0-3.7c-1.2 0-1.2 1.2-2.5 3.7-1.2-1.2-1.2-1.2-1.2-2.5-1.2 1.2-1.2 2.5-2.5 2.5 1.2 1.2 2.5 0 3.7 1.2s-2.5 1.2-2.5 1.2v4.9c-1.2 0-1.2-1.2-2.5-1.2-1.2 0-1.2 1.2-2.5 3.7-1.2 2.5-3.7 4.9-2.5 7.4h2.5c-1.2 1.2-1.2 1.2-2.5 0s-1.2 0-2.5 1.2c-1.2 1.2-1.2 2.5-1.2 3.7-3.7 0-4.9 0-6.2 4.9 6.5 3.4 6.5 3.4 6.5 4.6zm-3.7 16v-3.7c1.2 1.2 2.5 2.5 3.7 4.9-2.5.1-2.5-2.4-3.7-1.2zm66.5-84.9c1.2 1.2 1.2 1.2 0 0zm4.9-14.8c-1.2-1.2 0-1.2 0-2.5 1.3 1.3 1.3 1.3 0 2.5zm7.4 0c-1.2 0-1.2-1.2-2.5-2.5 1.2 0 2.5 0 3.7 1.2-1.2.1-1.2 1.3-1.2 1.3zm0-3.7zm6.2-19.7c1.2 0 1.2-1.2 1.2-1.2s-1.2-1.2 0-1.2v-1.2c1.2 1.2 1.2 3.7 2.5 6.2 1.2 2.5-1.2 1.2-2.5 1.2s1.2 1.2 1.2 1.2 1.2-1.2 1.2 0c-1.2 1.2-1.2 0-1.2 0s-1.2 1.2-2.5 1.2V383zm-3.7 6.2c2.5 1.2 4.9 0 8.6 1.2v1.2c-1.2 1.2-3.7 0-2.5 2.5-2.5-1.2-4.9-2.5-7.4-2.5 0-1.2 1.3-1.2 1.3-2.4zm-3.7-3.7c1.2 2.5 1.2 4.9 0 8.6 0-3.7-2.5-6.2 0-8.6zm2.4 7.3l1.2 1.2c-1.2 2.5-1.2 3.7-6.2 3.7 2.6.1 3.8-2.4 5-4.9zm-4.9 14.8zm-1.2-17.2l-2.5 3.7c0-2.5 1.3-2.5 2.5-3.7zm-2.5 4.9zM288 399zm-1.2 6.2V404c1.2 1.2 1.2 1.2 0 1.2v3.7c-1.3-1.3-1.3-1.3 0-3.7zm0-5zm-1.3 3.7c-1.2 1.3-1.2 0 0 0zm0 2.5zm0 8.6c-1.2 0-1.2-1.2-1.2-1.2 1.2 0 1.2 1.2 1.2 1.2zm-7.4-12.3c2.5 0 3.7-2.5 6.2-2.5 1.2 1.2-1.2 2.5-1.2 3.7-3.7 1.3-3.7 1.3-5-1.2zm1.3 14.8v2.5c-2.5-1.3-2.5-1.3 0-2.5zm-2.5 8.6s1.2 0 0 0c1.2 1.2 0 1.2 0 1.2s-1.2 0 0-1.2c-1.2 1.2-1.2 1.2 0 0zm-2.5-3.7c0-1.2-1.2-1.2 0 0-1.2-1.2-1.2-1.2 0 0zm-2.4-9.9c1.2 1.2 1.2 2.5 0 3.7-2.5-1.2-2.5-1.2 0-3.7zm-3.7 6.2c1.2 1.2 1.2 1.2-1.2 2.5V420l1.2-1.3zm-7.4 11.1c1.2-2.5 1.2-3.7 3.7-3.7l-3.7 3.7zm0 16c0 1.2-1.2 1.2 0 0zm-1.2-2.5c-1.2 1.2-1.2 1.2-3.7 0h3.7zm-9.9 18.5zm3.7-9.8s1.2 0 0 0v1.2c-1.2 0-1.2 0 0-1.2zm-2.4 6.1c1.2 0 2.5 1.2 3.7 2.5-2.5 0-2.5-1.3-3.7-2.5zm-1.3-2.4c-1.2-1.2-1.2-2.5-1.2-3.7 2.5 2.4 2.5 2.4 1.2 3.7zm0-9.9c0 2.5-1.2 2.5-2.5 3.7-1.2-1.2.1-1.2 2.5-3.7zm-1.2 28.3c-1.2 0-1.2 0 0 0zm-6.2-12.3c-2.4 1.2-2.4 0 0 0zm-3.7 18.5c-1.2 1.2-1.2 0 0 0zm1.3-2.5zm1.2-14.8c-1.2-1.2-2.5-1.2-2.5-1.2s0 1.2 2.5 1.2zm-12.3 18.5zm-3.7 8.6c-1.2 0-1.2-1.2 0 0l1.2-1.2c-1.2 1.2-2.4 2.5-1.2 1.2zm1.2 14.8c-1.2-1.2-1.2-1.2-1.2-2.5 0-1.2 1.2-1.2 1.2 0v2.5zm-4.9-18.5l2.5-3.7 1.2 1.2s1.2 0 1.2 1.2c-3.7.1-3.7 2.6-4.9 1.3z"/><path class="st0" d="M219 512.3c-1.2 2.5-2.5 3.7 0 4.9 1.3-2.4 1.3-2.4 0-4.9zm-1.2-18.5c1.2 0 1.2-1.2 0 0v-3.7c0-1.2 0-1.2-1.2-1.2l-4.9 13.5c1.2-1.2 1.2-2.5 2.5-3.7 1.1-1.2 3.6-3.6 3.6-4.9zm86.2-68.9c0 1.2-1.2 0-1.2 1.2s0 2.5 1.2 2.5 0-1.2 1.2-1.2l1.2-1.2V425c-1.2-.1-1.2-.1-2.4-.1zm126.8-195.8c-1.2-1.2-1.2-1.2-2.5 1.2 1.2 0 1.2 1.2 2.5 1.2v-2.4zM312.6 416.2c1.3 0 1.3 0 0 0 1.3 0 0 0 0 0zm-70.2 97.3c-1.2 0-1.2-1.2-1.2-2.5s-1.2 0-1.2 1.2-1.2 2.5-1.2 3.7c0 2.5-1.2 6.2-2.5 8.6-1.2 2.5-2.5 4.9 0 6.2 0-2.5 1.2-3.7 2.5-6.2l3.6-11zm1.3 0zm0-2.4l3.7-9.9-1.2-1.2c-1.2 0-1.2 1.2-1.2 2.5l-2.5 1.2c1.2 1.2 1.2 3.7 0 6.2-1.2 0-1.2-1.2-1.2 0s1.2 1.2 1.2 1.2h1.2zm2.4-13.6zm-1.2-3.7c0 1.3 0 0 0 0zm-3.7 13.6c1.2-1.3 0 0 0 0zm3.7-16v2.5h1.2c0-1.3 0-2.5-1.2-2.5zm-3.7 9.8c1.2 1.2 1.2 0 0 0zm36.9-54.2zm-29.5 48.1c0 1.2 1.2 1.2 1.2 2.5 1.2-1.2 1.2-2.5 0-3.7s0-.1-1.2 1.2zm13.5-25.9c1.3 0 1.3 0 0 0 1.3-1.2 1.3-1.2 0 0 0-1.2 0 0 0 0zm-8.6 20.9l-3.7 2.5c2.5 0 2.5 0 3.7-2.5zm2.5-12.3c0 1.2 0 1.2 0 0 0 0 0-1.2 0 0zm28.3-29.5zm7.4-22.2c0 1.2 0 0 0 0zm-1.2-2.5c-1.3 1.3 0 1.3 0 0zm-5 6.2c0 1.2 1.2 1.2 1.2 1.2s1.3-1.2-1.2-1.2zm-1.2 6.1l1.2-1.2h-1.2v1.2zm3.7-7.3c0 1.2 0 1.2 1.2 1.2s1.2 0 1.2-1.2H288zm16-17.3c1.2 0 1.2-1.2 1.2-2.5s-2.4 1.3-1.2 2.5zm-8.6 9.9c0 1.2 1.2 1.2 0 0zm-3.7 4.9c1.2 0 1.2 0 1.2-1.2s-1.2 1.2-1.2 1.2zm8.6-9.9s-1.2 0 0 0c0 1.3 0 1.3 0 0zM288 427.3c0 1.3 0 1.3 0 0 0 1.3 0 0 0 0zm57.9-220.4c0 1.2 0 1.2 1.2 2.5 1.2-2.5 0-2.5-1.2-2.5zm-2.5-2.5c1.2 1.2 1.2 1.2 2.5 1.2 0-1.2 0-1.2-2.5-1.2zm2.5-18.4c0-1.2 0-1.2-1.2-1.2s-.1 1.2 1.2 1.2zm-40.7 221.6l1.2-1.2s-1.2 0-1.2 1.2zm7.4-219.2c0 1.2 0 1.2 0 0zm134.3 23.4c1.2-1.2 1.2-1.2 0-1.2 0 0-1.3 0 0 1.2zM215.3 523.4h-1.2 1.2zm-1.2 1.2s-1.2 0 0 0c-1.2 1.2 0 1.2 0 0zm-1.2 32c-1.2 0-1.2 1.2 0 1.2s1.2 1.3 0-1.2c1.2 1.3 0 0 0 0zm0-35.7c-1.2 0-1.2 1.2-1.2 1.2h1.2c1.2.1 1.2-1.2 0-1.2zm101-312.8c1.2 1.3 1.2 0 0 0zm23.4 17.3l2.5 3.7c0-1.2 0-1.2 1.2-1.2 0 1.2 0 1.2-1.2 2.5-1.2 1.2-1.2 1.2-1.2 3.7s0 3.7-1.2 6.2c0 1.2 0 1.2 1.2 1.2s1.2-2.5 2.5-2.5 1.2 1.2 3.7 1.2-1.2-1.2-1.2-3.7c1.2 0 2.5 1.2 3.7 2.5 0 1.2-1.2 1.2-1.2 1.2 0 1.2 0 1.2-1.2 1.2l-3.7 2.5V255c1.2 1.2 1.2 0 3.7 0s-1.2-1.2-1.2-2.5l3.7-1.2c1.2 0 1.2 1.2 1.2 1.2h-2.5c2.5 3.7 2.5 3.7 4.9 3.7V255c1.2 1.2 1.2 1.2 0 1.2v3.7h3.7c2.5-2.5 0-6.2 0-8.6s-1.2-1.2-2.5-1.2v1.2c-1.2 0-1.2-1.2-1.2-1.2s-2.5-1.2-2.5-2.5l2.5 2.5h1.2v-2.5c-2.5-2.5-2.5-7.4 0-9.9v9.9c1.2-1.2 2.5 1.2 4.9 1.2l-2.5-3.7c-1.2-1.2-1.2-2.5-1.2-3.7 1.2-2.5 0-6.2-1.2-8.6h2.5c-2.5-1.2-1.2-3.7-1.2-6.2l-1.2-1.2c-1.2 1.2 0 1.2-1.2 2.5-1.2 1.2-1.2-1.2-1.2-1.2s0 3.7-2.5 3.7-1.2-1.2-1.2-3.7H345c1.2-1.2-1.2-2.5 0-3.7s-1.2-1.2-2.5-1.2c-4 1.1-5.2 2.3-5.2 3.6zm4.9 23.4l3.7-2.5c0 2.5-1.3 2.5-3.7 2.5zm4.9-3.7zm-2.5-12.3zm-12.3-22.2c-1.2 3.7-2.5 4.9 0 7.4 1.3-2.5 2.5-3.7 0-7.4z"/><path class="st0" d="M338.5 215.5c-1.2 2.5 0 4.9 0 7.4 2.5-1.2 1.2-3.7 2.5-4.9 1.2-1.2 1.2 1.2 1.2 1.2v6.2c1.2 0 2.5-1.2 3.7-1.2l3.7-3.7c-1.2-1.2-2.5 0-3.7-1.2 1.2-1.2 2.5-2.5 2.5-4.9-1.2-1.2 0-2.5 1.2-3.7h-6.2c1.2 1.2-1.2 3.7 0 6.2-2.5-1.2-4.9-2.5-4.9-3.7 0-1.2 1.2-1.2 1.2-1.2s-1.2-1.2-1.2-3.7-1.2 1.2-1.2 1.2v1.2H336c1.3 1.1 2.5 2.3 2.5 4.8zm-3.7-36.9c-1.2 1.2-1.2 2.5 1.2 3.7 0-2.5 0-2.5-1.2-3.7zm1.2 2.4c0 1.2 1.2 2.5 1.2 3.7 1.3-2.4.1-2.4-1.2-3.7zm-3.7 40.7h1.2-1.2zm-9.8-40.7c-1.3 0-1.3 1.3 0 0zm0 72.7c-1.3 1.2 0 1.2 0 0zm3.7-56.7c1.2 2.5 1.2 4.9 1.2 6.2v7.4c0 2.5 1.2 4.9 0 7.4 1.2 1.2 1.2 4.9 1.2 6.2v8.6c0 2.4 0 4.9 1.2 6.2 1.2 1.2 0 4.9 0 7.4v7.4c0 1.2 0 4.9 1.2 7.4 2.5-3.7 0-7.4 2.5-11.1v-8.6H331c0 1.2 1.2 2.5 1.2 3.7-1.2-1.2-1.2-1.2-1.2-3.7s2.5-2.5 2.5-3.7v-13.5c-1.2 0-2.5 2.5-3.7 1.2v-7.4c-1.2-2.5-1.2-4.9 0-7.4v-1.2c-2.5-3.7-1.2-6.2-2.5-9.9 0-1.2 1.2-1.2 1.2-1.2 1.2 1.2 2.5 1.2 3.7 1.2v-3.7s-2.5 1.2-3.7 1.2c-1.2 0-2.5-3.7-1.2-6.2s0-1.2 0-2.5v-3.7c0-1.2 1.2 0 1.2-1.2s0-1.2 1.2-2.5c0-1.2-1.2-1.2 0-2.5 1.2-1.2 0-1.2-1.2-1.2s1.2 3.7-1.2 6.2l-1.2-1.2c-1.2 2.5 0 4.9 0 6.2-1.2 3.6.1 6.1.1 8.5zm6.1 34.5c1.2 1.2 0 2.5 0 3.7-1.2-2.4-1.2-3.7 0-3.7zm0 3.7c0 1.2 1.2 2.5 0 3.7 0-1.2-1.2-2.5 0-3.7zM320 174.9c0-1.2 0-1.2-1.2-1.2s1.2 1.2 1.2 1.2zm128.1 33.2s0 1.3 0 0zm1.2-25.8s1.3 0 0 0zm4.9-3.7c-1.2 1.2-2.5 1.2-3.7 2.5 2.5-.1 3.7-1.3 3.7-2.5zm-133-2.5s0-1.2 0 0c-1.2 0-1.2 0 0 0zm-2.4-6.2c-1.2 1.2-1.2 2.5 1.2 3.7s-1.2-2.4-1.2-3.7zm3.7 75.2c-1.2 0-1.2 1.2 0 1.2v-1.2zM235 522.2c1.2-2.5 1.2-2.5-1.2-2.5 0 1.2 1.2 2.5 1.2 2.5zm0-3.7s1.3 0 0 0c0-1.3 0 0 0 0zm3.7-7.4v-1.3h-1.2z"/><path class="st0" d="M236.3 517.2c1.2-2.5 2.5-3.7 2.5-6.2-2.5 1.3-3.8 3.8-2.5 6.2zm-11.1 23.4c4.9-1.2 6.2-2.5 6.2-7.4-1.2 1.2-1.2 2.5-2.5 3.7-1.2 1.2 0 2.5-2.5 2.5s-1.2-1.2-1.2-1.2c-1.2 2.5-2.5 4.9-2.5 7.4h3.7c0-1.2 1.2-2.5 2.5-3.7 1.2-1.3-1.2 0-3.7-1.3zm6.1 0s0-1.2 0 0c0-1.2 1.3-1.2 0 0 0-1.2 0-1.2 0 0zm3.7-16zm-3.7 16zm182.3-294.3c2.5 0 2.5-1.2 3.7-2.5-1.2 0-2.5 0-3.7 2.5zm-11.1 17.2c-1.2 0-1.2 0 0 0-1.2 1.3-1.2 1.3 0 0-1.2 1.3 0 1.3 0 0zm0-2.4c0-1.3 0-1.3 0 0zm8.6-11.1zm12.4-12.3c0-1.3-1.3-1.3 0 0zm-85-46.8s0 1.2 0 0zm1.2 6.1c-1.2 0-1.2 1.2-1.2 1.2 1.2.1 1.2.1 1.2-1.2zm3.7-12.3c0-1.2 0-1.2-1.2-1.2 0 0 0 1.2 1.2 1.2zm77.6 53c-1.2 2.5-2.5 3.7-3.7 6.2h1.2c1.3-2.5 3.7-3.8 2.5-6.2zm-75.1-11.1h6.2c-1.2-2.5-2.5-2.5-6.2-2.5l3.7 2.5c-1.3 0-1.3-1.2-3.7 0zM230.1 530.8c1.2 0 2.5 0 2.5 1.2 2.5-1.2 1.2-3.7 1.2-6.2-2.5 0 0 3.7-3.7 5zm215.5-342.4c1.2-1.2 1.2-1.2 0-1.2v1.2c-1.2-1.2 0-1.2 0 0zm-102.2 2.5l-1.2-1.2c0 1.2 1.2 1.2 1.2 1.2zm88.7 35.7c-1.2 1.2-1.2 2.5-1.2 3.7s1.2-2.5 1.2-3.7zm25.8-6.2l1.3-1.2h-2.5zm-8.6-8.6c1.3 0 0 0 0 0z"/><path class="st0" d="M374.2 312.8c1.2 0 1.2 1.2 1.2 1.2v-1.2c0-1.2 0 0-1.2 0s-1.2-4.9 1.2-4.9c2.5 0 1.2 1.2 1.2 2.5 2.5-1.2 3.7-2.5 6.2-3.7 1.2-4.9 4.9-8.6 8.6-12.3 1.2-1.2 1.2-1.2 1.2-2.5 1.2-1.2 1.2-2.5 2.5-3.7h-1.2s-1.2 0-1.2-1.2l1.2-1.2s1.2 0 1.2 1.2v1.2l2.5-2.5c-2.5-1.2-2.5-1.2-6.2 0v4.9c-1.2 0-1.2 1.2-1.2 1.2-1.2 0-1.2 1.2-2.5 0s-2.5 0-2.5 2.5c1.2 0 1.2 1.2 0 1.2s-1.2-1.2-3.7-1.2c0 1.2-1.2 2.5-1.2 3.7-1.2-1.2-1.2-1.2-1.2-2.5s1.2 1.2 2.5 0-2.5-1.2-2.5-2.5 1.2-1.2 1.2-1.2 1.2 1.2 2.5 1.2 2.5-2.5 3.7-2.5c1.2 0-1.2-1.2-1.2-2.5 3.7 1.2 3.7-2.5 4.9-3.7 1.2-1.2 1.2-3.7 0-4.9 2.5 1.2 2.5 1.2 4.9 2.5v-2.5c1.2-1.2 1.2-1.2 2.5-1.2s1.2-1.2 2.5-3.7c1.2-2.5 1.2 1.2 2.5 1.2-1.2 2.5-2.5 2.5-4.9 2.5 1.2 1.2 3.7 1.2 4.9 1.2s-2.5 1.2-2.5 3.7c2.5-1.2 3.7-2.5 3.7-6.2 1.2-1.2 1.2 0 3.7 0 1.2-2.5 1.2-3.7 2.5-6.2 1.2-2.5-2.5-1.2-1.2-3.7 1.2-2.5 1.2 0 2.5 0 2.5-1.2 3.7-2.5 6.2-3.7 3.7-2.5 4.9-6.2 3.7-9.9l2.5-1.2c-1.2-2.5 0-4.9 1.2-6.2h-2.5l-1.2 1.2c-1.2 0-1.2-1.2-1.2-1.2s2.5-1.2 3.7-2.5c1.2 1.2 2.5 1.2 2.5 3.7 2.5 0 1.2-2.5 1.2-3.7s3.7 0 4.9-1.2c-2.5-1.2 2.5-2.5 0-4.9l3.7-1.2s0 1.2 1.2 1.2 1.2-2.5 2.5-2.5 1.2 1.2 1.2 1.2h1.2c-1.2 1.2 0 2.5-2.5 3.7s-1.2-2.5-1.2-1.2 1.2 1.2 0 3.7c-1.2 0-1.2 0-1.2 1.2l1.2 2.5c-2.5-1.2-4.9-1.2-4.9 0s1.2 1.2 1.2 1.2 0 1.2 1.2 2.5c1.2 1.2 1.2-2.5 2.5-3.7s1.2-2.5 2.5-4.9 2.5 1.2 4.9 1.2c0-1.2-1.2-1.2-1.2-1.2l2.5-1.2v-1.2h2.5c-1.2-1.2 1.2-2.5-1.2-3.7s-2.5-1.2-3.7-3.7c-1.2-2.5-1.2 2.5-2.5 2.5s0-2.5 0-2.5c0-2.5 2.5-2.5 2.5-3.7 2.5 0 2.5-2.5 2.5-2.5s1.2 1.2 3.7 1.2v-3.7h-2.5c2.5-3.7 3.7-7.4 3.7-11.1-1.2-1.2-1.2 2.5-3.7 2.5s-1.2-1.2-1.2-1.2c-2.5 3.7-6.2 6.2-9.9 9.9 0 1.2-1.2 1.2-1.2 2.5 1.2 0 2.5-2.5 4.9-1.2 0-3.7 0-3.7 2.5-3.7 0-1.2 1.2-2.5 2.5-3.7 0 2.5-1.2 3.7-2.5 3.7 0 3.7 0 3.7 2.5 3.7 0-1.2 1.2-1.2 2.5-1.2 0-1.2 0-2.5-1.2-3.7 1.2 0 2.5 1.2 2.5 1.2s0 2.5-1.2 2.5c0 1.2-1.2 1.2-2.5 1.2v2.5c-1.2 1.2-1.2 0-1.2 0 0 1.2-1.2 2.5-3.7 2.5 0-1.2 1.2-2.5 3.7-2.5 0-2.5-1.2-1.2-3.7-1.2s-1.2 3.7-3.7 6.2v1.2c1.2 1.2 0 2.5-1.2 3.7-1.2-1.2 0-2.5-1.2-3.7v4.9l-3.7-3.7c1.2 0 1.2-1.2 1.2-2.5l-6.2 4.9v1.2c1.2 0 1.2-1.2 3.7-1.2s-1.2 1.2-2.5 3.7c-2.5 0-2.5 2.5-2.5 6.2h-2.5c0 1.2-2.5 2.5-3.7 2.5-1.2 0-2.5 0-2.5 1.2 1.2 2.5-1.2 3.7-2.5 4.9l-1.2-1.2c0 1.2-1.2 2.5-2.5 3.7 2.5 0 3.7 1.2 4.9 2.5s0-4.9 2.5-6.2 1.2 1.2 2.5 1.2l2.5 1.2c-1.2 1.2-1.2 1.2-2.5 1.2h-4.9v4.9c-1.2 0-2.5 2.5-4.9 1.2 0-2.5 2.5-3.7 2.5-4.9-2.5-1.2-2.5 2.5-3.7 2.5l-1.2-1.2v2.5c1.2 1.2 0 1.2 0 1.2 1.2 1.2 1.2 3.7 1.2 4.9h-3.7V266l-1.2-1.2c-2.5 2.5-6.2 6.2-8.6 9.9h2.5c0 1.2-1.2 1.2-2.5 1.2 0 0-1.2 0-1.2-1.2-1.2 2.5-4.9 2.5-6.2 6.2-1.2 2.5-3.7 3.7-6.2 4.9-1.2 1.2-1.2 2.5 0 3.7l-1.2 1.2-1.2-1.2-2.5 2.5c1.2 0 1.2 1.2 1.2 1.2l-1.2-1.2c-1.2 1.2-1.2 1.2 0 3.7-2.5 0-1.2 2.5-3.7 2.5v-3.7c-2.5 1.2-3.7 3.7-3.7 7.4v1.2c1.2 1.2 1.2 3.7 0 6.2 1.2 0 2.5-1.2 2.5-2.5s1.2-3.7 1.2-3.7l4.9-2.5c1.2 1.2 1.2 2.5 3.7 3.7-1.2 1.2-3.7 1.2-3.7 2.5s1.2 1.2 1.2 2.5c-1.2-1.2-1.2-1.2-1.2-2.5l-3.7 4.9h-3.7c-1.2 1.2-1.2 3.7-1.2 4.9-1.2 1.2-1.2 0-1.2 1.2l3.7 2.5c-.5-2.6.8-5 2-7.5zm7.4-11.1c1.2 0 0 1.2 0 0 0 1.2-1.2 1.2 0 0zm45.6-61.6l-2.5 3.7c-1.2-1.2-1.2-1.2-1.2-2.5 1.2-1.2 2.4-1.2 3.7-1.2zm-12.4 8.7c0 1.2 0 1.2 0 0zm2.5 9.8c1.2 1.2 1.2 1.2-1.2 4.9-1.2 0-1.2-1.2-2.5-1.2l3.7-3.7zm-3.7 6.2c-1.2 0-1.2 0 0 0zm-8.6 3.7c-1.2 0-1.2 0 0 0zm-1.2 2.4c1.2 1.2 0 1.2 0 2.5 0 1.2 1.2 1.2 1.2 1.2-1.2 1.2-1.2 1.2-1.2 0v1.2-2.4h-1.2c-.1-1.2-.1-2.5 1.2-2.5zm-3.7 1.3c-1.2 1.2-2.5 1.2-3.7 2.5-1.2-2.5 1.2-2.5 1.2-6.2 3.7 1.2 2.5 2.4 2.5 3.7zm-2.5-3.7c-1.2 1.2-1.2 0 0 0zm-4.9 8.6c1.2 0 0 0 0 0s-1.3 0 0 0zm-6.2 2.4zm1.2 3.7c1.2 1.2 1.2 1.2-2.5 2.5-1.1-1.2 1.3-2.5 2.5-2.5zm-3.6 0c0 1.2 0 1.2-1.2 1.2s-.1-1.2 1.2-1.2zm0 3.7c0 2.5 1.2 3.7-1.2 6.2-1.2-1.2-1.2-1.2-1.2-2.5s-.1-3.7 2.4-3.7zm-14.8 16zm3.7-3.6c0 1.2-1.2 1.2-1.2 1.2-1.3-1.2-.1-1.2 1.2-1.2l2.5-2.5c-1.3 2.5-1.3 2.5-2.5 2.5z"/><path class="st0" d="M444.4 231.5c1.2 1.2 1.2 1.2 1.2 0h-1.2c1.2 0 0 0 0 0zm-89.9 35.7c1.2 1.3 1.2 1.3 0 0 1.2 1.2 1.2 1.2 1.2 0s-1.2-1.2-1.2 0zm94.8-39.4c1.2-1.2 1.2-1.2 0-1.2h-1.2c0 1.2 0 1.2 1.2 1.2zm1.3-9.8c0 2.5-1.2 3.7 0 6.2 1.2-2.5 1.2-3.8 0-6.2h6.2c0-3.7-2.5-6.2-4.9-8.6-1.2 1.2-1.2 2.5-2.5 2.5-.1 2.4 1.2 4.8 1.2 6.1zm-17.3 6.1c-1.2 0-1.2 1.2-1.2 1.2s1.2.1 1.2-1.2zm9.9 7.4H442v1.2l1.2-1.2s1.2 0 0 0zM227.7 475.4c-1.3 0 0 0 0 0zm27-7.4v1.2c1.3-1.2 1.3-1.2 0-1.2zm-4.9-29.6zm46.8-59.1s0 1.2 0 0zm-48 60.3v-1.2 1.2zm1.2-1.2c1.3-1.2 0-1.2 0 0zm-7.4 55.4s0-1.2 0 0c-1.2 0-1.2 0 0 0zm222.9-326.3c0 1.2 0 1.2 0 0zm8.7 19.7c1.2 0 1.2 0 2.5 1.2 1.2 1.2 1.2 1.2 3.7 1.2s-2.5-1.2-2.5-2.5h4.9c1.2 0 3.7 1.2 4.9 0l-1.2-1.2c-1.2 0-2.5 0-2.5-1.2 1.2-1.2 3.7 0 4.9-1.2 0-6.2 1.2-6.2-4.9-9.9-1.2 1.2-1.2 3.7-2.5 2.5-1.2-1.2-2.5 3.7-4.9 4.9l-4.9 4.9c0 .1 2.5.1 2.5 1.3zm7.3-8.6v3.7c-1.2 1.2-2.5 3.7-6.2 3.7.1-3.7 3.8-5 6.2-7.4zm-4.9-21h1.2zm11.1 13.6c0-1.2-1.2-1.2-1.2-2.5s-1.2 1.2-1.2 2.5c-.1 1.2 2.4 0 2.4 0zm1.2-4.9c-1.2 1.2-1.2 1.2-1.2 2.5 0 1.1 1.2-1.3 1.2-2.5zm-250 288.1c-1.2 0-1.2 1.2-1.2 1.2s1.2.1 1.2-1.2zm-9.8 76.4l-1.2-1.2v2.5c0-.1 0-1.3 1.2-1.3zM474 160.1c-2.5 1.2-4.9 3.7-6.2 6.2 1.2 0 2.5-1.2 3.7-2.5 1.2-1.2 3.7-1.2 2.5-3.7zm17.2 3.7c-1.2 0-1.2 0 0 0-1.2 1.2 0 0 0 0zm0 22.2c0-1.3 0-1.3 0 0-1.2 0-1.2 2.5-1.2 3.7l1.2-3.7zm-9.9 13.5c0-1.2 0 0 0 0zm8.7-6.2v1.2c1.2.1 1.2-1.2 0-1.2zm-3.7 2.5c-1.2 1.2-2.5 1.2-3.7 2.5 1.2 1.2 2.5-1.2 4.9 0 0 1.2 0 3.7 1.2 3.7s1.2 0 1.2-1.2c-1.2 0-1.2 0-1.2-1.2 1.2-1.2 2.5-2.5 2.5-4.9-2.5-.1-2.5 2.3-4.9 1.1zm-14.8-9.8zm-16 18.4c-1.2-1.2-1.2-1.2-1.2-2.5-1.2 1.2-1.2 2.5-1.2 3.7 1.2 0 1.2 0 1.2 1.2s-1.2 1.2 0 2.5c0 1.2 1.2 1.2 1.2 1.2l2.5-2.5c-1.2-1.2-2.5-1.2-2.5-1.2h3.7c1.2 1.2 2.5 1.2 3.7 1.2 0-1.2 1.2-1.2 1.2-2.5-1.2-1.2-1.2-1.2-2.5-1.2h-2.5c-1.2 0-1.2-1.2-1.2-1.2l2.5-1.2c-2.5-3.7-1.2-4.9 2.5-6.2 1.2 1.2-1.2 2.5-2.5 3.7v1.2c1.2 1.2 1.2-1.2 2.5 0 1.2 1.2 0 1.2 1.2 1.2s1.2-1.2 1.2-1.2 1.2 1.2 1.2 2.5c1.2-1.2 1.2-2.5 2.5-3.7h1.2c1.2 1.2-1.2 2.5 1.2 3.7s2.5-1.2 2.5-2.5c0-1.2-1.2-1.2-3.7-3.7 1.2 0 2.5 0 2.5-1.2s-1.2-1.2-1.2-2.5-1.2 0-1.2 1.2-1.2 1.2-2.5 2.5c0-2.5 2.5-2.5 2.5-4.9s3.7 0 4.9-2.5c-1.2-1.2-3.7 0-4.9-2.5-1.2-2.5-1.2 0-1.2 1.2s-2.5 2.5-3.7 3.7c-1.2 1.2 1.2 0 3.7 0s-2.5 1.2-1.2 3.7c-1.2-1.2-2.5-1.2-2.5-3.7-2.5 2.5-4.9 4.9-6.2 7.4-1.2 1.2 1.2 1.2 1.2 2.5h-2.5c-2.4 1.4-2.4 2.6-2.4 2.6zm12.3-13.5c1.2 0 1.2 1.2 0 0 0 1.2 0 1.2 0 0 0 1.2 0 0 0 0zm-1.2 7.4c-1.2 1.2-1.2 0-1.2 0h1.2zM221.5 509.8c0 1.2 1.2 1.2 2.5 2.5 0-1.2 1.2-2.5 1.2-3.7s-1.2-1.2-1.2-1.2c-1.3 2.4-1.3 3.7-2.5 2.4zm246.3-343.5c0 1.2 0 1.2 0 0zM226.4 535.7V532c-1.2 2.5-1.2 2.5 0 3.7zm-3.7-16c-1.2 0-2.5 0-2.5 1.2-1.2 1.2-1.2 1.2-2.5 1.2 1.2 2.5 2.5 1.2 3.7 1.2s1.3-1.1 1.3-3.6zM454.2 202h1.3zm12.4-34.5s-1.3 0 0 0c-1.3 0-1.3 0 0 0zm-7.4 7.4c1.2 0 1.2-1.3 0 0-1.3 0-1.3 0 0 0zm4.9-5l-2.5 2.5c2.5-1.2 2.5-2.5 2.5-2.5zm1.2-1.2c0 1.2 0 1.2 0 0zM358.2 378.1l-1.2-1.2 1.2 1.2zm-51.7-193.4c0 1.2 0 1.2 1.2 2.5 0-1.2-1.2-2.5-1.2-2.5zm2.4 6.2c-1.2-1.2 0-3.7-1.2-3.7 0 1.2-1.2 2.4 1.2 3.7zm46.8 70.2c1.2-1.2 1.2-1.2 0-1.2v1.2c-1.2 0 0 0 0 0zm-46.8-65.3c-1.2 0 0 1.2 0 0zM304 298c-1.2 1.2-1.2 1.2 0 1.2V298zm45.6-97.3c1.2 1.3 1.2 0 0 0zM357 218l1.2-1.2v-8.6c0-2.5-1.2-1.2-1.2-1.2s-2.5 3.7 0 6.2-2.5 3.5 0 4.8zm-17.3 71.4v1.2s1.2 0 0-1.2zM232.6 464.3l-1.2 1.2s1.2 0 1.2-1.2zm70.2-168.7v-4.9 4.9zm-2.5-34.5c0-4.9 0-8.6-1.2-13.5 0 4.9 0 8.6 1.2 13.5zm1.2 13.5V261c-1.2 5-1.2 9.9 0 13.6zm0 97.3c1.2 0 2.5 1.2 4.9 0 2.5-1.2-1.2-2.5-1.2-3.7l-3.7 3.7zm-3.7-192.1h-1.2l1.2 1.2zm5 107.1c0-2.5-1.2-3.7-1.2-6.2-.1 2.5-.1 5 1.2 6.2zm-5-64c0 1.2 0 2.5 1.2 3.7.1-2.5.1-3.7-1.2-3.7zm1.3 4.9c0 6.2 0 13.5 1.2 19.7 0-7.4 0-13.5-1.2-19.7zm0-35.7c1.2-1.2 0-3.7 0-4.9s1.2-3.7 0-4.9c-1.3 3.7-2.5 7.3 0 9.8zM268.3 415c0 1.2 0 1.2 0 0zm30.8-195.8c-1.3 0-1.3 1.2 0 0zm0-2.5c-1.3 0-1.3 0 0 0zm36.9 66.5c0 1.2 0 2.5 1.2 3.7.1-2.4.1-2.4-1.2-3.7z"/><path class="st0" d="M336 283.2c1.2-1.2 2.5-2.5 0-3.7-1.2-1.2-1.2-2.5-1.2-3.7 0-1.2 0-2.5-1.2-2.5-1.2 3.7 1.2 6.2 0 11.1 1.2-1.2 2.4-1.2 2.4-1.2zm-7.4 14.8c0-1.2 0-1.2-1.2-2.5 0 1.3 0 1.3 1.2 2.5zm7.4-30.8c0-1.2 1.2-2.5 0-3.7-1.2-1.2-2.5 2.5-2.5 3.7 0 1.2 2.5 1.2 4.9 2.5-1.1 0-2.4 0-2.4-2.5zm0 23.4c0 1.2 1.2 1.2 1.2 3.7 1.2 0 1.2-1.2 2.5-2.5-2.4.1-2.4-2.4-3.7-1.2zM227.7 470.4c1.2 1.3 1.2 0 0 0zm109.6-234zm20.9-46.8c0 1.2 0 1.2 1.2 1.2 0-1.2 0-1.2-1.2-1.2zm-14.8 80.1c1.2 0 0 0 0 0z"/><path d="M369.3 365.8c-1.3 1.2 0 1.2 0 0zm-170 193.3c0 1.2 0 1.2 0 0h1.2-1.2zM370.5 383c1.2-1.2 1.2-1.2 0-1.2v1.2c0-1.2 0-1.2 0 0zm-7.4-12.3c0 3.7 0 3.7 2.5 2.5 0-1.2-1.2-1.2-1.2-1.2l-1.3-1.3zm3.7 0s-1.2-1.3 0 0c-1.2-1.2-1.2-1.2-1.2 0s0 0 1.2 0zm4.9-2.5c1.3 0 1.3 0 0 0zM304 428.6c1.2 0 1.2-1.2 1.2-1.2s-1.2-.1-1.2 1.2zm204.4-267.3c-1.2 0-1.2 0 0 0zM196.9 559.1l1.2 1.2v-1.2zM357 184.7c-1.3 0-1.3-1.2 0 0-1.2-1.2-1.2 0-1.2 1.2s-.1-1.2 1.2-1.2zm13.5 189.7s0-1.3 0 0c-1.2-1.2-1.2 0-1.2 0h1.2c0 1.2 0 0 0 0zm-39.4-208.1v1.2zM477.6 250c1.2 0 1.2 0 1.2-1.2s-1.2 1.2-1.2 1.2zm-17.2 14.8c-1.2-1.3-1.2 0 0 0zm-20.9 22.1c0 1.3 0 1.3 0 0zm-38.2 151.5c1.2-1.2 1.2-1.2 0-1.2v1.2c0-1.2 1.2-1.2 0 0zm34.5-146.5c-1.3 1.2 0 0 0 0zm34.5-39.4c0 1.2 0 1.2 0 0zm-8.7 7.3s0 1.3 0 0c1.2 1.2 1.2 1.2 1.2 0 .1 0 .1-1.2-1.2 0zm5-2.4c1.2-1.2 1.2-1.2 0 0zm-73.9 166.2c0-1.2-1.3-1.2 0 0-1.3 0 0 0 0 0zm-6.2-19.7v-1.2c-1.2 0-1.2 0 0 1.2zm0 0zm8.6 16c-1.2 0-1.2 1.3 0 0zm-7.4-12.3c1.3 0 0 0 0 0zm6.2 9.9c-1.2-1.3-1.2 0 0 0zm-6.2-12.3s0-1.3 0 0c-1.2 0-1.2 0 0 0zm-1.2-125.7h-1.2 1.2zM494.9 234c0 1.2 0 1.2 0 0zM312.6 408.9l-1.2 1.2s2.5 0 1.2-1.2zm109.6-113.3c-1.2 1.2 1.2 2.5-1.2 3.7 0 1.2 0 1.2 1.2 2.5 1.2-2.5 4.9-3.7 6.2-6.2h-6.2zm-46.8 41.8c1.2 0 1.2-1.2 1.2-2.5s-1.2 1.3-1.2 2.5zM405 445.8v1.2c1.2 0 1.2 0 1.2-1.2s0 0-1.2 0zm-29.6-113.3l-2.5 1.2v1.2c2.5.1 2.5-1.2 2.5-2.4zm17.3-13.5c1.2 0 1.2 0 1.2-1.2s2.5-2.5 3.7-2.5c0-1.2 0-1.2-1.2-2.5 0 2.5-3.7 3.7-3.7 6.2zm-1.3 0c1.2 1.2 1.2 1.2 1.2 0v-1.2l-1.2 1.2zm-11 14.7c1.2-1.2 2.5-1.2 2.5-2.5-2.5.1-2.5.1-2.5 2.5zm28.3-28.3s0-1.2 0 0c-1.3 0 0 0 0 0zM224 551.7c1.2 0 1.2-1.2 1.2-1.2s-1.2 0-1.2 1.2zm-3.7 3.7c0-1.2 0-1.2 0 0-1.3-1.2 0 0 0 0zm96-142.9c-1.2 0-1.2 0 0 0-1.2 0 0 0 0 0zm-98.5 147.8c-1.2-1.2-1.2 0 0 0zm88.7-134.2c0 1.2 0 1.2 0 0zm-69 114.5s0-1.2 0 0c-1.2-1.2-1.2-1.2 0 0-1.2 0-1.2 0 0 0zM224 551.7c-1.3 0 0 0 0 0zm-30.8 4.9l1.2 1.2-1.2-1.2zm151.4-381.7zm21 40.6c0 3.7 0 8.6 1.2 12.3 1.2-6.2 1.2-11.1 0-17.2v-3.7c0-2.5 0-6.2-1.2-8.6v17.2zm-1.3-16c0-1.2 1.2-2.5-1.2-3.7s0 2.5 1.2 3.7zm-24.6-23.4c-1.2 0-1.2 1.2-1.2 1.2l1.2-1.2zm-20.9-12.3h-2.5s0 1.2 2.5 0zm44.3 32c0-1.2 0-1.2-1.2-1.2s1.2 1.2 1.2 1.2zm-13.5 82.5c-1.2 0-1.2 1.2-1.2 1.2s-.1-1.2 1.2-1.2zm141.6-40.6c1.2 0 1.2-1.2 2.5-2.5-1.3 0-2.5 1.2-2.5 2.5zm-120.7 149c1.2 1.2 1.2 3.7 1.2 4.9 3.7-2.4 3.7-2.4-1.2-4.9zm119.5-149l1.2 1.2v-1.2zm6.1-3.7c0-1.2 0-1.2 0 0zm-168.7-67.7h1.2zm183.5-1.3h-1.2 1.2zm-14.8 69zm30.8-56.7c1.2-2.5-1.2-3.7-2.5-3.7 0 1.2 1.2 1.2 1.2 1.2l1.3 2.5zM389 408.9c-1.3 0 0 0 0 0zm-41.9-163.8v-1.3h-1.2zm-4.9 3.7c1.2-1.2 3.7 0 3.7-2.5l-3.7 2.5zm4.9-1.3c0 1.2 1.2 2.5 2.5 2.5-1.3-1.2-1.3-2.5-2.5-2.5zm3.7-8.6c-2.5 2.5-2.5 7.4 0 9.9v-9.9zm-6.2-6.1v1.2h1.3zm-11 13.5c0-1.2-1.2-2.5-1.2-3.7-.1 2.5-.1 2.5 1.2 3.7zm34.4 56.6h1.3l-1.3-1.2zm1.3-2.4c1.2 0 1.2-1.2 1.2-1.2l-1.2 1.2zm-18.5-49.3V250h-1.2s0 1.2 1.2 1.2zm-18.5-20.9c-1.2 1.2-1.2 1.2 0 3.7 0 0 1.3-1.2 0-3.7zm39.4 69c2.5 0 2.5 0 2.5-2.5l-2.5 2.5zm-22.1-44.4v1.2c0-1.2 1.2-1.2 0-1.2zm44.3 32c-1.2 1.2 0 1.2 0 1.2h1.2l-1.2-1.2c1.2 0 0 0 0 0zm-46.8-49.2c-1.2-1.2-1.2-2.5-3.7-2.5 0 2.5 2.5 2.5 1.2 3.7 1.3 1.2 2.5 0 2.5-1.2zM469 190.9c-1.2 0-1.2 1.2 0 0 0 1.2 0 0 0 0zm-136.7 44.3c-1.2 1.2 0 3.7 0 3.7 1.3-1.2 0-2.5 0-3.7zM466.6 197c-1.2-1.2 1.2-2.5 1.2-3.7 0-1.2-2.5 0-3.7 0s0 2.5 2.5 3.7zm-170 186c1.2-1.2 1.2-1.2 0-1.2s0 1.2 0 1.2zm-55.4 76.3c0 1.3 1.2 1.3 0 0h1.2l1.2-1.2-2.5-1.2-1.2-1.2c1.3 1.2.1 2.4 1.3 3.6zm8.6-14.7l2.5-2.5c1.3-1.3-1.2-1.2-1.2-1.2s-2.5 2.4-1.3 3.7zm11.1-7.4v-1.3h-1.2v1.3zm204.4-237.7c-1.2 0-1.2 0 0 0zM254.7 469.2V468v1.2zm-33.2 40.6c1.2 0 1.2 0 2.5-2.5-2.5.1-2.5 2.5-2.5 2.5zM305.2 399c-1.2-1.2-1.2 0 0 0zm150.3-194.6c1.2-1.2 0-1.2 0-2.5h-1.2c-.1 1.3-.1 2.5 1.2 2.5zM300.3 376.8c-1.2 0-1.2 1.3 0 0-1.2 1.3-1.2 1.3 0 0-1.2 1.3 0 1.3 0 0zm133-142.8c1.2-1.2 2.5-2.5 1.2-3.7v-1.2c2.5-1.2 2.5-3.7 3.7-6.2-1.2-1.2-2.5 1.2-4.9 1.2 0 1.2 0 1.2-1.2 1.2s1.2 2.5-1.2 3.7v1.2c2.4 2.6-.1 3.8 2.4 3.8zM405 268.5c-1.2 0-1.2 0 0 0zm-29.6 36.9c0 1.2 0 1.2 1.2 2.5 1.3-1.3 1.3-1.3-1.2-2.5zm39.4-56.6c0 1.2 0 1.2 0 0zm1.3 9.8c-1.2 1.2-2.5 3.7-3.7 3.7 1.2 0 1.2 1.2 2.5 1.2 3.6-3.7 3.6-3.7 1.2-4.9zm11.1-18.5c-1.2 0-3.7 0-4.9 1.2 0 1.2 1.2 1.2 1.2 2.5l3.7-3.7zm-44.4 61.6c-2.4 1.2-1.2 1.2 0 0-1.2 1.2 0 0 0 0zm29.6-36.9c-1.3 0-1.3 0 0 0zm-16 3.7c-1.3 0-1.3 1.2 0 0zm0 4.9c1.2-1.2 2.5 0 3.7-2.5 1.2-2.5 1.2-2.5-2.5-3.7 0 3.7-3.7 5-1.2 6.2zm-2.5 2.5c-2.5 1.2-1.2 1.2 0 0-1.2 1.2 0 1.2 0 0zm9.9 0v-1.2c-1.3-.1-1.3 1.2 0 1.2zm1.2-2.5c-1.2 0-1.2-1.2-1.2-1.2v1.2c0 1.2 0 1.2 1.2 0zm-1.2-2.5c-1.2 0-1.2 1.2-1.2 2.5h1.2v-2.5zm34.4-43.1c1.2 0 3.7-1.2 3.7-2.5-3.7.1-3.7 1.3-3.7 2.5zm8.7-8.6c0-1.2-1.2-1.2-2.5-1.2 0 1.2 1.2 2.5 1.2 3.7 1.3 0 1.3-1.3 1.3-2.5zm-1.3 2.5c-1.2 0-1.2 1.2-2.5 1.2 1.3 0 2.5-1.2 2.5-1.2zm-45.5 55.4c-1.2 0-1.2-1.2-2.5-1.2s-1.2 2.5-2.5 3.7c1.3-1.3 3.7-.1 5-2.5zm43.1-61.6c-2.5 1.2-2.5 2.5-2.5 3.7 2.5 0 3.7-1.2 2.5-3.7zM421 245.1c-1.2 1.2-2.5 1.2-3.7 2.5-1.2 1.2 1.2 1.2 1.2 1.2 1.2 0 1.2 0 1.2-1.2 1.2 0 1.2-1.2 2.5 0 1.3-.1 0-1.3-1.2-2.5z"/><path d="M441.9 225.4c1.2 0 1.2 1.2 1.2 0v-2.5c-2.5 0-2.5 0-2.5-3.7-2.5 1.2-2.5 1.2-2.5 3.7 1.4 0 3.8 0 3.8 2.5zm-60.3 66.5c1.2-1.2 1.2-3.7 1.2-6.2-1.2 1.2-2.5 1.2-2.5 3.7.1 2.5.1 1.2 1.3 2.5zm-7.4-1.3c0 1.2 0 1.2 1.2 1.2 1.3.1 0-1.2-1.2-1.2zm12.3-8.6c-1.2 1.2-2.5 1.2-2.5 2.5 3.7 0 3.7 0 2.5-2.5zm30.8-25.8c1.2 0 1.2-1.2 2.5-1.2l-2.5-1.2c-1.2 0-1.2-1.2-2.5-1.2s-2.5 3.7-2.5 6.2c1.3-1.4 1.3-3.9 5-2.6zm13.5-19.8v-4.9c-1.2 0-1.2-1.2-2.5-1.2 0 1.2 0 1.2-1.2 2.5 1.3 1.2 2.5 2.4 3.7 3.6zM238.7 458.1c0-1.2 0-3.7 2.5-3.7s-1.2-1.2-2.5-1.2 0 1.2-1.2 1.2 0 3.7 1.2 3.7zm144.1-174.9c-1.2 0-1.2 1.2-1.2 1.2s1.2.1 1.2-1.2zm98.5-104.6c-2.5 2.5-6.2 3.7-6.2 7.4 3.7 0 4.9-2.5 6.2-3.7v-3.7zM249.8 456.9c1.2-2.5 1.2-2.5-1.2-3.7 0 1.2 0 2.5 1.2 3.7zm0-9.9c-1.2 1.2-2.5 1.2-2.5 3.7.1-1.2 1.3-1.2 2.5-3.7zm-8.6 14.8c-1.2 0-1.2 1.2 0 0zm6.2 12.3c-1.3 0-1.3 1.3 0 0zm-8.7 6.2c-1.2 0-1.2 1.2 0 0zm0-2.5h1.3l-1.3-1.2zm24.7-51.7c-2.5 0-2.5 1.2-3.7 3.7 2.4-1.2 2.4-1.2 3.7-3.7zm-3.7 18.5H256c1.2 0 2.4 1.2 3.7 0zm1.2 2.4c-1.2 0 0 0 0 0zm6.2-27.1c-1.2 1.2-1.2 1.2-1.2 2.5 2.4-1.2 2.4-1.2 1.2-2.5zm-17.3 41.9zm1.3-2.5c1.2 1.2 1.2 2.5 3.7 2.5-1.3-1.2-2.5-2.5-3.7-2.5zm2.4-6.1c1.2 0 0 0 0 0s-1.2 0 0 0zM240 464.3c-1.2-1.2-1.2-2.5-2.5-1.2-1.2 1.2 0-.1 2.5 1.2zm121.9-204.5v-2.5c-1.2.1-1.2.1 0 2.5zm-4.9-59.1c0 1.3 1.2 1.3 0 0 1.2 1.2 1.2 1.2 1.2 0H357c1.2 0 0 0 0 0zm3.7 13.6l2.5 1.2-1.2-1.2h-1.3zm-133 268.4h-1.2 1.2zm254.9-236.4c1.2 0 1.2-1.2 0 0zm3.7-2.5c-1.3-1.2-1.3 0 0 0zm1.2-2.4c-1.2 0-1.2 1.2-1.2 1.2l1.2-1.2zM224 502.4c0 1.2 0 1.2 1.2 2.5s1.2-2.5-1.2-2.5c0 0 0-1.2 0 0zm1.2-18.4l-1.2-1.2-2.5 3.7c1.2 1.2 1.2-1.3 3.7-2.5zm0 4.9l-1.2 1.2s1.2 0 1.2-1.2zm-11.1 28.3c0-1.2 0-1.2 0 0z"/><path d="M184.6 540.6c0 2.5 1.2 6.2 2.5 8.6 1.2 1.2 3.7 2.5 4.9 3.7 0 1.2-1.2 1.2-2.5 2.5 1.2 1.2 4.9 1.2 7.4 2.5-1.2 0-1.2 1.2-2.5 0 0 1.2 1.2 1.2 1.2 1.2 1.2-1.2 3.7-2.5 4.9-2.5s3.7-1.2 4.9-1.2-1.2 1.2-1.2 2.5c0 0 1.2 0 1.2 1.2-1.2 0-1.2 0-1.2-1.2s-1.2 0-2.5 2.5c1.2 0 2.5 0 2.5 1.2 1.2 1.2 2.5 1.2 2.5-1.2s-1.2 0-1.2-1.2 1.2 1.2 1.2 1.2h3.7l6.2-1.2c0-1.2-2.5-3.7-2.5-4.9h4.9c0-1.2 1.2-1.2 2.5-1.2s-2.5-2.5 0-3.7c0-2.5 2.5-2.5 3.7-2.5 1.2 0-1.2 2.5-1.2 3.7 0 1.2 2.5-1.2 2.5-2.5 0-1.2 1.2-3.7 2.5-3.7 2.5-2.5 3.7-4.9 3.7-8.6h1.2c0 1.2 0 3.7 1.2 4.9-1.2-2.5 1.2-6.2 0-8.6s-1.2-3.7 0-6.2 1.2-6.2 2.5-8.6c0-1.2 1.2-2.5 1.2-3.7 0-1.2 1.2-1.2 1.2-1.2l-1.2-1.2h1.2c1.2-1.2 1.2-3.7 0-6.2l2.5-1.2c0-1.2 1.2-2.5 1.2-2.5s0-1.2 2.5-2.5c0 1.2-1.2 2.5-2.5 2.5l1.2 1.2-3.7 9.9c0 1.2-1.2 1.2-1.2 0s0 2.5 1.2 2.5c0 0 0-1.2 1.2-1.2 0 0 0 1.2-1.2 1.2l-3.7 12.3c-1.2 1.2-2.5 3.7-2.5 6.2 2.5-2.5 2.5-6.2 4.9-9.9 2.5-7.4 6.2-14.8 9.9-22.2 2.5-6.2 7.4-12.3 12.3-18.5 6.2-8.6 11.1-17.2 18.5-25.9s14.8-18.5 23.4-25.9c-1.2 0-1.2-1.2-1.2-2.5s1.2 0 1.2-1.2 1.2 0 1.2-1.2v1.2c1.2 0 2.5-1.2 3.7-2.5 0-1.2-1.2-1.2-1.2-1.2 0-2.5 1.2-1.2 2.5-1.2s-1.2-1.2 0-2.5 1.2 0 1.2-1.2l-1.2-1.2h1.2c1.2 0 2.5-1.2 3.7-1.2-2.5 0-2.5-1.2-2.5-2.5l-1.2-1.2c-1.2 0 0 2.5-1.2 2.5-1.2-1.2-1.2-2.5-1.2-3.7-1.2 1.2-3.7 2.5-4.9 2.5 0 1.2-2.5 2.5-3.7 1.2 0 0-1.2 0-1.2-1.2 2.5 1.2 3.7-1.2 4.9-2.5l2.5-3.7c1.2-1.2 3.7-2.5 3.7-6.2s-1.2 1.2-3.7 2.5c1.2-2.5 2.5-3.7 1.2-6.2 1.2 0 2.5 2.5 2.5 3.7 0 0 1.2 0 1.2 1.2 1.2 3.7 2.5 7.4 3.7 9.9l2.5 6.2c-2.5 1.2-2.5 2.5-2.5 3.7 3.7 0 3.7 0 4.9 2.5 3.7 4.9 6.2 11.1 8.6 17.2 6.2 9.9 13.5 19.7 20.9 28.3 6.2 7.4 12.3 14.8 18.5 22.2 6.2 4.9 13.5 8.6 20.9 11.1 1.2 1.2 2.5 1.2 2.5 0s1.2-1.2 1.2-1.2c0-1.2 1.2-1.2 1.2-1.2l-1.2 1.2c1.2 1.2 3.7 2.5 6.2 1.2l-1.2-1.2c1.2-1.2 2.5-3.7 3.7-4.9 2.5-2.5 4.9-6.2 6.2-9.9 1.2-2.5 2.5-4.9 4.9-6.2 2.5-1.2 3.7-3.7 3.7-7.4v-8.6c0-2.5-11.1-6.2-11.1-6.2 0-1.2 0-1.2-1.2-2.5 1.2 0 2.5-2.5 1.2-4.9h-1.2c1.2-1.2-1.2-1.2-1.2-2.5-1.2-1.2-1.2-2.5-1.2-3.7-1.2 0-1.2-1.2-1.2-1.2s-2.5-2.5-2.5-4.9c0-2.5-1.2-1.2-2.5-1.2s-1.2 1.2-1.2 1.2l1.2-1.2c-1.2-2.5-4.9-2.5-6.2-4.9-1.2-2.5 1.2-1.2 1.2-1.2 1.2 0 1.2 1.2 3.7 1.2-1.2-1.2-2.5-3.7-2.5-4.9h-1.2c0-1.2 1.2-2.5-1.2-3.7-2.5-1.2-1.2 1.2-3.7 1.2s1.2-1.2 1.2-2.5-1.2-3.7-3.7-6.2c-1.2 0-1.2 1.2-1.2 0s1.2-1.2 0-2.5c-1.2-1.2-1.2 1.2-1.2 0s0-3.7 2.5-4.9v-1.2c-1.2 0-1.2 0-1.2 1.2-1.2-1.2-1.2-1.2-1.2-2.5 0-1.2-1.2 0-3.7 0 1.2-1.2 3.7-1.2 2.5-2.5s-1.2-4.9-3.7-6.2c0 2.5-2.5 1.2-3.7 1.2 1.2-1.2 2.5-1.2 3.7-1.2 0-1.2 1.2-1.2 1.2-2.5-2.5-2.5-6.2-2.5-8.6-3.7 1.2-1.2 2.5-1.2 2.5-1.2s-1.2-2.5-2.5-3.7c-1.2-1.2-1.2-2.5-2.5-3.7 1.2-1.2 1.2-3.7 0-4.9-1.2-1.2-1.2-1.2-1.2 0s1.2 1.2 0 3.7c-1.2-1.2-2.5-1.2-3.7-1.2v2.5c-1.2-1.2-1.2-1.2 0-2.5s-1.2-1.2 0-3.7 1.2 0 2.5-1.2-2.5 0-3.7-1.2v-1.2c-1.2-1.2-1.2 1.2-2.5-1.2 3.7-3.7 6.2-7.4 9.9-11.1 0 0 1.2 0 1.2-1.2l7.4-9.9 16-16c2.5-3.7 4.9-6.2 8.6-9.9 0-1.2 1.2-1.2 1.2-1.2s1.2-2.5 2.5-3.7l3.7-2.5 2.5-3.7c0-1.2-1.2-1.2-1.2-1.2 2.5 0 3.7-1.2 4.9-2.5 1.2-1.2-1.2 0-1.2-1.2s1.2-1.2 1.2-1.2v-1.2c1.2 0 1.2 1.2 1.2 1.2 1.2-1.2 1.2-2.5 1.2-3.7 1.2-1.2 2.5-2.5 1.2-3.7 0-1.2 1.2-2.5 2.5-2.5 1.2 0-1.2-1.2-1.2-2.5-1.2 2.5-2.5 3.7-4.9 4.9l1.2 2.5c-4.9 0-7.4 4.9-9.9 6.2 0 1.2 1.2 2.5 1.2 3.7-1.2 1.2-1.2-1.2-2.5-1.2s-2.5 2.5 0 3.7c-1.2 1.2-1.2 0-2.5 0l-2.5 2.5-1.2 1.2-2.5 2.5c-1.2 1.2 1.2 2.5-2.5 2.5-1.2 1.2-1.2 2.5-2.5 3.7 1.2 0 1.2-1.2 4.9-1.2l-2.5 2.5-1.2-1.2h-1.2c-1.2 2.5-2.5 3.7 0 4.9 0 0 0-1.2 1.2-1.2l-1.2 1.2v1.2l-3.7-3.7c-1.2-1.2-1.2 1.2-2.5 2.5 1.2 0 1.2 1.2 1.2 1.2 1.2 0 1.2 0 1.2 1.2s-1.2 0-1.2-1.2c-1.2 0-1.2-1.2-1.2-1.2-1.2 1.2-3.7 2.5-3.7 2.5s-3.7 1.2-2.5 3.7l-1.2 1.2c-2.5 1.2-2.5 1.2-3.7 2.5-2.5-1.2 0-3.7-1.2-6.2s1.2-3.7 1.2-4.9-1.2 0-1.2-1.2 1.2-1.2 1.2-1.2 0-1.2 1.2-1.2 1.2-1.2 1.2 0c2.5 0 2.5-2.5 3.7-2.5 2.5-2.5 4.9-4.9 6.2-8.6l2.5-1.2c6.2-7.4 12.3-13.5 19.7-19.7 0-1.2 1.2-1.2 1.2-1.2l2.5-1.2s1.2-2.5 2.5-2.5-1.2 1.2-2.5 2.5c-1.2 2.5-3.7 4.9-6.2 6.2-1.2 1.2-2.5 3.7-3.7 6.2 0 1.2-1.2 1.2-2.5 2.5s-1.2 1.2 0 2.5c1.2-2.5 4.9-2.5 6.2-4.9 1.2-2.5 2.5-1.2 2.5-2.5l6.2-6.2c2.5-1.2 4.9-2.5 6.2-4.9l2.5-2.5c2.5-3.7 6.2-7.4 9.9-9.9 1.2-2.5 2.5-4.9 4.9-6.2l6.2-4.9 6.2-6.2 13.5-14.8c1.2-1.2 1.2-1.2 1.2-2.5s1.2-1.2 1.2-1.2c3.7-2.5 7.4-6.2 9.9-9.9h1.2c0-1.2 0-1.2 1.2-1.2s1.2 1.2 1.2 1.2h-1.2s-1.2 2.5 0 3.7c-3.7 1.2-7.4 3.7-9.9 7.4l-2.5 3.7c-2.5 3.7-7.4 6.2-9.9 11.1-1.2 1.2-2.5 2.5-3.7 2.5 0 1.2 1.2 1.2 1.2 1.2-3.7 0-6.2 2.5-6.2 4.9l-1.2 1.2c-1.2 2.5-4.9 3.7-6.2 6.2-1.2 2.5-2.5 2.5-3.7 4.9-1.2 2.5-2.5 1.2-2.5 1.2l1.2 1.2-1.2 1.2h-1.2c0 2.5 0 3.7-2.5 4.9-1.2 0-1.2 1.2-1.2 1.2l2.5 1.2c1.2-1.2 2.5-3.7 4.9-4.9 0 0 1.2-1.2 1.2-2.5 0-1.2 2.5-2.5 2.5-4.9 0 0 0 1.2 1.2 1.2l6.2-7.4c4.9-4.9 9.9-12.3 14.8-17.2v3.7c-1.2 0-1.2 0-1.2-1.2s1.2 0 1.2 1.2c1.2 0 2.5 0 2.5-1.2s1.2-1.2 1.2-1.2l3.7-3.7c1.2-2.5 4.9-4.9 7.4-4.9 1.2 1.2-1.2 1.2 0 2.5l1.2-1.2c0-1.2 1.2-2.5 2.5-2.5s1.2-1.2 1.2-1.2-1.2 1.2-4.9 0c2.5 0 3.7-2.5 4.9-3.7 1.2 0 1.2 1.2 1.2 1.2 2.5-3.7 7.4-4.9 9.9-8.6 2.5 0 4.9-1.2 6.2-2.5 0-1.2 0-1.2 1.2-1.2 1.2 1.2 0 1.2-1.2 1.2s-1.2 2.5-1.2 3.7l2.5-2.5 13.5-11.1 6.2-6.2c0-1.2 0-1.2 1.2-1.2s1.2-1.2 1.2-1.2-1.2-2.5 1.2-3.7c2.5-1.2 1.2 0 1.2 1.2 1.2 1.2 3.7 3.7 6.2 3.7 1.2 0 1.2 0 1.2 1.2l2.5 2.5c-1.2-2.5-1.2-4.9 1.2-6.2l-1.2-1.2s-1.2-1.2-1.2 0 1.2 1.2 1.2 1.2L533 212s-1.2-2.5-1.2-3.7c0-1.2-1.2-3.7 0-6.2 2.5-2.5 2.5-6.2 2.5-9.9-1.2-3.7-3.7-7.4-4.9-11.1 0 0 0-1.2-1.2-1.2 0 1.2 0 1.2-1.2 1.2s0-1.2 0-1.2c-1.2 0-1.2-1.2-1.2-1.2-1.2 0-2.5 0-1.2-1.2-1.2-2.5-3.7-3.7-6.2-4.9 0-1.2-1.2-1.2-2.5-1.2v1.2l1.2 1.2c-1.2 0-1.2 0-1.2-1.2h-1.2s0-1.2 1.2-1.2l-2.5-2.5c-1.3-1.3 0 1.2-1.2 1.2 0 1.2-1.2 1.2-1.2 0s-1.2-1.2-1.2-2.5L501 165c0-1.2 1.2-1.2-1.2-1.2s0 3.7-2.5 6.2c-2.5-1.2-1.2-3.7-1.2-3.7l2.5-1.2-1.2-1.2s1.2 0 2.5-1.2c-2.5 0-4.9 0-7.4-1.2h-8.6c-1.2 1.2-2.5 0-3.7 0-2.5-1.2-6.2-1.2-7.4 2.5v1.2c0 1.2-1.2 2.5-1.2 3.7-6.2 4.9-12.3 11.1-18.5 17.2-6.2 4.9-12.3 11.1-18.5 17.2l-20.9 20.9c-6.2 4.9-12.3 11.1-17.2 17.2-7.4 7.4-13.5 14.8-22.2 22.2-3.7 4.9-8.6 9.9-13.5 13.5-2.5-1.2-1.2-2.5 0-3.7-1.2-1.2-3.7-1.2-3.7-2.5l-2.5 1.2c-1.2 0-1.2 1.2-1.2 2.5 1.2 1.2 1.2 2.5 1.2 3.7 1.2 1.2 1.2-1.2 2.5-1.2 1.2 0 1.2 1.2 0 1.2s-1.2 1.2-1.2 2.5l-6.2 6.2c0 1.2-1.2 1.2-1.2 1.2l-1.2-1.2s-1.2 0-1.2 1.2 1.2 1.2 1.2 2.5c-1.2 1.2-1.2 2.5-3.7 2.5 0-1.2 0-1.2 1.2-1.2s0-1.2-1.2-1.2c0 0 0 1.2-1.2 1.2 0-1.2 1.2-1.2 1.2-1.2s-1.2-1.2-1.2-3.7c0-1.2 0-2.5 1.2-3.7 0-1.2-1.2-1.2-1.2-2.5s1.2 0 1.2-1.2 2.5 2.5 4.9 3.7c1.2-1.2 3.7 0 4.9-2.5-1.2-1.2-3.7 1.2-4.9-1.2s1.2-1.2 1.2-1.2c-1.2-3.7 1.2-6.2 0-8.6-1.2 0-3.7 1.2-2.5-1.2-1.2 0-2.5 1.2-3.7-1.2l2.5-1.2v-1.2c-1.2 0-1.2 0-1.2-1.2h-1.2c-1.2-1.2 0-1.2 1.2-1.2s1.2 1.2 1.2 1.2c2.5 0 3.7 0 4.9 1.2h3.7c1.2 1.2 0 1.2 1.2 2.5 1.2 1.2 2.5-1.2 3.7 1.2 1.2 0 1.2-1.2 2.5-1.2-1.2-2.5 0-3.7 0-6.2s0-6.2-1.2-9.9c4.9 0 1.2 3.7 3.7 6.2v-6.2c-2.5-1.2-4.9-2.5-6.2-4.9s2.5-2.5 1.2-3.7v-1.2c0-1.2 1.2-3.7 0-6.2s1.2-3.7 0-6.2-1.2-1.2-1.2-2.5c0-1.2 0-1.2 1.2-1.2s1.2 1.2 1.2 1.2l1.2 14.8c0 2.5 1.2 3.7 2.5 6.2v-12.3c-1.2-1.2 0-3.7 0-6.2s-1.2-3.7-1.2-6.2V212c-1.2-1.2-1.2-3.7 0-6.2-1.2-1.2-2.5 0-3.7-1.2-1.2-1.2 1.2-2.5 0-3.7s0-3.7 0-4.9l-1.2-1.2s1.2 0 1.2 1.2c1.2 0 1.2 2.5 2.5 2.5 1.2-2.5-2.5-4.9 0-6.2s2.5 0 2.5 1.2-1.2 1.2-1.2 1.2c1.2 2.5 1.2 4.9 1.2 7.4 2.5 1.2 0 4.9 1.2 6.2 1.2-2.5 1.2-4.9 0-7.4v-7.4h2.5c0-6.2-2.5-11.1-8.6-12.3 0 0 1.2 0 1.2 1.2l1.2 1.2c1.2 1.2 1.2 1.2 0 1.2h-1.2c0 2.5 1.2 4.9 2.5 7.4-1.2 0-1.2-1.2-1.2-1.2 0-2.5-2.5-3.7 0-6.2v-1.2h-2.5c0-1.2 0-1.2 1.2-1.2s-2.5-2.5-2.5-3.7-1.2-2.5-3.7-2.5c0-1.2-1.2-1.2-1.2-1.2s0 1.2 1.2 1.2-1.2 3.7 0 4.9c-1.2 0-2.5 0-3.7-1.2-1.2-1.2-1.2-1.2-2.5-1.2s0 2.5-2.5 2.5c-1.2-1.2-1.2-2.5 0-3.7-1.2 0-1.2 0-1.2-1.2s1.2-1.2 1.2-2.5c-1.2 0-2.5-1.2-4.9-2.5-1.2-1.2 0-3.7-2.5-3.7s-3.7-1.2-6.2 0v1.2c2.5 0 2.5 1.2 2.5 2.5-1.2 0-2.5-1.2-2.5-2.5-1.2 0-2.5 0-3.7-1.2 1.2-1.2 1.2-2.5-1.2-3.7-2.5-1.2-2.5 0-2.5 1.2h1.2c0 1.2-1.2 1.2-1.2 1.2l-1.2-1.2h-1.2c-1.2 0-1.2 0-1.2-1.2s-1.2-1.2-4.9-1.2c0 0 1.2 0 1.2 1.2 1.2 0 1.2 0 1.2 1.2s-1.2 0-1.2-1.2-1.2 0-1.2-1.2c-1.2 0-2.5-1.2-2.5-1.2h7.4s0-1.2-1.2-1.2l-14.8-1.2c0 1.2 1.2 1.2 1.2 1.2h-1.2c-2.5-1.2-4.9-1.2-7.4 0l-1.2 1.2c-3.7 0-4.9 2.5-8.6 3.7 1.2 1.2 1.2 0 3.7 0s4.9 2.5 4.9 6.2c1.2 6.2 1.2 12.3 1.2 18.5 0 6.2-1.2 12.3 0 18.5 0 9.9-1.2 19.7 0 28.3v13.5l1.2 17.2 1.2 18.5c0 8.6 1.2 17.2 2.5 25.9 0 6.2 1.2 12.3 2.5 18.5 1.2 3.7 0 6.2-2.5 8.6s-3.7 4.9-6.2 7.4l-27.1 32c-8.6 11.1-17.2 22.2-24.6 33.3l-13.5 18.5-8.6 13.5c-2.5 6.2-6.2 11.1-11.1 16-1.2 3.7-2.5 7.4-4.9 9.9-4.9 11.1-9.9 22.2-13.5 33.3-1.2 4.9-2.5 8.6-2.5 13.5v3.7c-1.2 1.2 0 2.5 0 3.7-7.5 9.5-6.2 12-6.2 16.9zm235.2-66.5v1.2c-1.3.1-1.3.1 0-1.2zm-12.4-12.3v1.2-1.2zm-3.6 3.7c-1.2-1.2-2.5-1.2-2.5-3.7 2.5 2.5 2.5 2.5 2.5 3.7zm-1.3 28.3c0 2.5 0 4.9-2.5 6.2.1-3.7 1.3-4.9 2.5-6.2zm-3.7-32c-1.2 0-1.2 0-1.2-1.2 1.2 0 1.2 0 1.2 1.2zm-3.7-8.6c0-1.2-1.2-2.5-1.2-3.7 2.5 1.2 2.5 1.2 1.2 3.7zm-1.2-12.3c1.2 1.2 1.2 1.2 0 2.5-1.2-1.3-1.2-2.5 0-2.5zm-7.4-16c-1.2 0 0 0 0 0zm-7.4-21zm-4.9-7.4s1.2 0 0 0c1.2 1.2 0 1.2 0 1.2 0 .1-1.2.1 0-1.2-1.2 0-1.2 0 0 0zm2.5 11.1s-1.3 1.3 0 0c-1.3 0 0 0 0 0zm-1.3-4.9s1.3 0 0 0zm-3.7 0l3.7 3.7c-2.4 0-3.7-1.2-3.7-3.7 0 0 0 1.2 0 0-1.2-1.2 0-1.2 0 0zm-3.7-7.4s-1.2 0 0 0zm-3.7-6.1c-1.2 0-1.2 0-1.2-1.2 0-1.3 1.2-.1 1.2 1.2zm39.5-70.2c-1.2 1.2-1.2 0-1.2 0h1.2zm-22.2 24.6v-2.5c1.2 0 1.2 1.2 1.2 1.2s0 1.3-1.2 1.3zm-2.5 2.4l-1.2 1.2s0-1.2 1.2-1.2zm149-162.5c1.2 1.2 1.2 2.5 1.2 3.7l-1.2-3.7zm-1.2 19.7s1.2 1.2 0 0c1.2 1.2 0 2.5 0 0zM501 226.6l1.2-1.2c1.3 0 1.3 0-1.2 1.2 0-1.2 1.3 0 0 0-1.2 0 0 1.2 0 0zm-3.7-37s1.3-1.2 0 0zm1.3-24.6l-2.5 2.5c0-1.2-1.2-1.2-1.2-2.5 1.2-1.2 2.4 0 3.7 0zm-3.7 29.6zM369.3 342.4c-1.2-1.2 0-1.2 0-1.2 1.2-.1 1.2 1.2 0 1.2 1.2 0 0 0 0 0zm1.2 4.9s-1.2-1.3 0 0c-1.2-1.3-1.2-1.3 0 0 0-1.3 0-1.3 0 0 0-1.3 1.2-1.3 0 0zm44.3-55.4c0-1.3 1.3-1.3 0 0 1.2-1.2 1.2-1.2 1.2 0s.1 0-1.2 0zm8.7-8.7c0 1.2 0 1.2-1.2 1.2s0 1.2-1.2 1.2 0 1.2-1.2 1.2v1.2s0 1.2-1.2 1.2l-1.2-1.2 1.2-1.2h1.2l1.2-1.2 1.2-1.2c-.1.1-.1-1.2 1.2-1.2s0-1.2 2.5-2.5c-1.3 2.5-1.3 2.5-2.5 2.5zm3.7-2.4c-1.2-1.2 0-1.2 1.2-2.5-1.2 1.2-1.2 1.2-1.2 2.5zm2.4-3.7l2.5-2.5-2.5 2.5zm6.2-8.6c0 1.2 1.2 1.2-1.2 2.5-.1-1.3-.1-1.3 1.2-2.5l2.5-2.5c-.1 2.5-.1 2.5-2.5 2.5zm4.9-2.5c0-1.2 0-2.5 2.5-2.5l-2.5 2.5zm6.2-8.6h2.5c-1.3 1.2-1.3 0-2.5 0zm1.2-23.4c-1.2-1.2-1.2-1.2 0-1.2s1.2 0 0 1.2zm3.7 0c1.2 1.2 0 1.2 0 0zm3.7 14.8l1.2-1.2c1.2 2.4 1.2 2.4-1.2 1.2zm3.7-18.5l-2.5 3.7 1.2 1.2s-1.2 0-1.2-1.2c-1.2 0-1.2-1.2-1.2-2.5 1.2-1.2 2.4-1.2 3.7-1.2 0-1.2-1.2-1.2-1.2-1.2h-4.9c0 1.2 0 2.5-2.5 2.5s-1.2 1.2-1.2 1.2l1.2-1.2s1.2-2.5 2.5-2.5 1.2-1.2 2.5-2.5c1.2 1.2 1.2 3.7 2.5 2.5 1.2-1.2 1.2 0 2.5 0 1 0 1 0-1.4 1.2zm-6.2-7.4c0-1.2 1.2-1.2 0 0h1.2-1.2zm6.2 1.2c0 1.3-1.3 0 0 0zm7.4 0c-3.7 0-7.4 0-11.1-1.2 1.2 0 3.7-1.2 4.9 0l-1.2-4.9c1.2-1.2 3.7-1.2 6.2-1.2 0 1.2-1.2 1.2-1.2 3.7s-1.2 1.2-2.5 2.5 4.9 1.1 4.9 1.1zm-8.7-11.1c2.5-1.2 2.5 0 0 0zm5-8.6zm3.7 9.9c1.2-2.5 3.7-3.7 6.2-4.9 0 0 0-1.2 1.2-1.2 0 0 0 1.2-1.2 1.2-1.3 2.4-3.8 2.4-6.2 4.9zm2.4 6.1c0-1.2 0-2.5 1.2-2.5s.1 1.3-1.2 2.5zm1.3-3.7c1.2-1.2 2.5-1.2 4.9-1.2-1.2 0-2.5 0-4.9 1.2zm7.3-7.3v2.5l1.2 1.2s-1.2 0-1.2-1.2c-1.2-1.3-1.2-1.3 0-2.5zm0 23.4c0-1.2 1.2-1.2 2.5-1.2l-2.5 1.2zm6.2-28.4c1.2 1.2 1.2 2.5-1.2 3.7-1.2-1.2 0-2.5-1.2-2.5h-1.2s0-1.2-1.2-1.2c0 0 0 1.2-1.2 1.2 0-1.2 1.2-1.2 1.2-1.2s-1.2-1.2-1.2-3.7c1.2 0 2.5 1.2 3.7 1.2 1.2 0 1.2-2.5 4.9 0-1.4.1-2.6.1-2.6 2.5zm3.7 19.7s1.2 0 0 0c1.2 0 1.2 0 0 0 1.2 0 0 0 0 0zm3.7-56.6v1.2c-1.2-1.2-1.2-1.2 0-1.2zm0-3.7s-1.2 1.2 0 0c-1.2 1.2-1.2 1.2 0 0-1.2 0-1.2 0 0 0zm0 23.4v3.7c-1.2-2.5-1.2-3.7 0-3.7 0-1.2 0-1.2 0 0zm0 7.4v-1.2 1.2c0 1.2 0 3.7-2.5 4.9l1.2 1.2c0 1.2-1.2 1.2-1.2 1.2-1.2 0-1.2-1.2-1.2-3.7-1.2 0-2.5 1.2-4.9 0-2.5-1.2-1.2 1.2-1.2 1.2s0-1.2 1.2-1.2c1.2-1.2 2.5-1.2 3.7-2.5 2.4 1.3 2.4-1.1 4.9-1.1zm-3.7-25.9c0-1.2 0-1.2 1.2-2.5 1.3 1.3 0 2.5-1.2 2.5s1.2 1.2 1.2 2.5-1.2 0-2.5 0 .1-2.5 1.3-2.5zm-9.9-11.1zm3.7 18.5c1.2 0 1.2-1.2 2.5-2.5 6.2 4.9 4.9 4.9 4.9 9.9-1.2 1.2-3.7 0-4.9 1.2 1.2 1.2 1.2 1.2 2.5 1.2 1.2 0 1.2 0 1.2 1.2-1.2 1.2-2.5 0-4.9 0h-4.9c0 1.2 3.7 1.2 2.5 2.5-1.2 1.2-2.5 0-3.7-1.2s-1.2-1.2-2.5-1.2-1.2-1.2-2.5-1.2c-1.2 0 0 1.2-1.2 1.2l1.2-1.2 4.9-4.9c1.2-1.3 1.2-5 4.9-5zm-17.2-6.2l1.2-1.2s0-1.2 1.2-1.2l1.2-1.2c1.2-2.5 3.7-4.9 6.2-6.2 1.2 2.5-2.5 2.5-2.5 3.7s-2.5 2.5-3.7 2.5c-1.2 0 0 1.2-1.2 1.2s0 1.2-1.2 1.2 1.3 0-1.2 1.2c0-1.2 1.2 0 0 0s0 1.2-2.5 2.5c0-2.5 1.3-2.5 2.5-2.5zm-4.9 5c1.2 0 1.2 0 0 0v1.2-1.2c1.2-1.3 0-1.3 0 0zm-1.3 28.3c0-1.2-1.2-1.2-1.2-2.5 2.5-2.5 3.7-4.9 6.2-7.4 1.2-1.2 2.5-1.2 3.7-3.7 1.2-2.5 1.2-1.2 1.2-1.2s3.7 0 4.9 2.5c-1.2 1.2-3.7 0-4.9 2.5-1.2 2.5-2.5 2.5-2.5 4.9l2.5-2.5 1.2-1.2s1.2 1.2 1.2 2.5-1.2 1.2-2.5 1.2c1.2 1.2 2.5 1.2 3.7 3.7 1.2 2.5-2.5 1.2-2.5 2.5 0 1.2 0-2.5-1.2-3.7h-1.2c-1.2 1.2 0 2.5-2.5 3.7-1.2-1.2-1.2-2.5-1.2-2.5l-1.2 1.2-1.2-1.2s-1.2 1.2-2.5 0v-1.2c1.2-1.2 2.5-1.2 2.5-3.7-3.7 1.2-4.9 2.4-2.5 6.1l-2.5 1.2c1.2 0 1.2 1.2 1.2 1.2h1.2c1.2 0 2.5 0 2.5 1.2s-1.2 1.2-1.2 2.5c-1.2 0-2.5-1.2-3.7-1.2-1.2-1.2-1.2-1.2-3.7 0 0 1.2 1.2 1.2 2.5 1.2l-2.5 2.5c-1.2 0-1.2-1.2-1.2-1.2-1.2-1.2 0-1.2 0-2.5l-1.2-1.2c0-1.2-1.2-3.7 1.2-3.7l1.2-1.2v1.2h6.2zm-2.4-24.6c0 1.2-2.5 2.5-3.7 2.5 0-1.3 1.2-2.5 3.7-2.5zm-4.9 3.7c1.2 0 0 0 0 0zm-1.3 25.8c-1.2 1.3-1.2 0 0 0zm-2.4 2.5c1.2 0 1.2 0 0 0v1.2-1.2zm-1.3-23.4c1.3 0 1.3 0 0 0v1.2c0-1.2-1.2-1.2 0-1.2zm-34.5 61.6c1.2 1.2 0 1.2 0 1.2v-1.2zM368 316.5c0-1.2 0-3.7 1.2-4.9 1.2 0 2.5-1.2 3.7 0l3.7-4.9c0-1.2 2.5-1.2 3.7-2.5-1.2-1.2-2.5-1.2-3.7-3.7l-4.9 2.5c-1.2 0-1.2 1.2-1.2 3.7s-1.2 1.2-2.5 2.5c1.2-2.5 1.2-3.7 0-6.2v-1.2c0-2.5 1.2-4.9 3.7-7.4v3.7c2.5 0 1.2-3.7 3.7-2.5-1.2-2.5-1.2-2.5 0-3.7l2.5-2.5c1.2 0 1.2 0 1.2 1.2l1.2-1.2c-1.2-1.2-1.2-2.5 0-3.7 2.5-1.2 3.7-3.7 6.2-4.9 2.5-3.7 4.9-3.7 6.2-6.2 0 0 0 1.2 1.2 1.2s1.2-1.2 2.5-1.2h-2.5c2.5-3.7 4.9-6.2 8.6-9.9l1.2 1.2s0-1.2 1.2-1.2c0 0 0 1.2-1.2 1.2v2.5c1.2 0 2.5-1.2 3.7 0 0-1.2 0-3.7-1.2-4.9 0 0 1.2-1.2 0-1.2s-1.2 1.2-1.2 1.2 0-1.2 1.2-1.2v-2.5l1.2 1.2c1.2 0 1.2-3.7 3.7-2.5-1.2 1.2-2.5 2.5-2.5 4.9 2.5 1.2 3.7-1.2 4.9-1.2v-3.7c-1.2 0-2.5-1.2-4.9-2.5 1.2-1.2 2.5-2.5 2.5-3.7l1.2 1.2c1.2-1.2 3.7-2.5 2.5-4.9 0-1.2 1.2-1.2 2.5-1.2 1.2 0 3.7-1.2 3.7-2.5h-1.2c-1.2 1.2-1.2 2.5-3.7 2.5 0-1.2 2.5-2.5 3.7-2.5 1.2-2.5 2.5-2.5 3.7-6.2 1.2 2.5-1.2 3.7-2.5 6.2h2.5c0-2.5 0-4.9 2.5-6.2 0-1.2 2.5-2.5 2.5-3.7s-1.2 1.2-3.7 1.2v1.2c-1.2-1.2 0-1.2 0-1.2V235l6.2-4.9c1.2-1.2 1.2-1.2 2.5-1.2s-1.2-2.5 1.2-3.7c2.5-1.2 0-1.2 1.2-1.2s1.2-1.2 1.2-2.5c3.7-2.5 6.2-6.2 9.9-9.9 1.2 0 1.2 1.2 1.2 1.2s2.5-3.7 3.7-2.5v-1.2s1.2 0 1.2 1.2c1.2 0 1.2-1.2 2.5-2.5 2.5 1.2 4.9 4.9 4.9 8.6h1.2l1.2 1.2-1.2 1.2-1.2-1.2v-1.2c-1.2 0-1.2 1.2-2.5 0-1.2-1.2-1.2-1.2-2.5 0v6.2c-1.2-1.2-1.2-3.7 0-6.2 0-1.2-1.2-3.7 0-6.2h-6.2c0 3.7-1.2 7.4-3.7 11.1h2.5v2.5h1.2c1.2 0 1.2 1.2 0 1.2s-1.2-1.2-1.2-1.2-1.2-1.2-3.7-1.2 0 3.7-2.5 2.5c0 1.2-2.5 1.2-2.5 3.7 0 0-1.2 1.2 0 2.5s1.2-2.5 2.5-2.5v-1.2l1.2-1.2 1.2 1.2s0 1.2-1.2 1.2h-1.2c1.2 1.2 3.7 1.2 3.7 3.7s-1.2 2.5 1.2 3.7h-2.5v1.2c0 1.2-1.2 0-2.5 1.2-1.2 1.2 1.2 0 1.2 1.2-1.2 0-2.5-1.2-4.9-1.2s0 3.7-2.5 4.9c-2.5 1.2-1.2 3.7-2.5 3.7s-1.2-1.2-1.2-2.5-1.2 0-1.2-1.2 2.5-1.2 4.9 0l-1.2-2.5 1.2-1.2c1.2-1.2-1.2-1.2 0-3.7s1.2 1.2 1.2 1.2 1.2-2.5 2.5-3.7H437c0-1.2 0-1.2-1.2-1.2s-1.2 1.2-2.5 2.5c-1.2 1.2-1.2-1.2-1.2-1.2l-3.7 1.2c3.7 1.2-2.5 3.7 0 4.9-1.2 1.2-3.7 0-4.9 1.2s1.2 2.5-1.2 3.7c-1.2 1.2-2.5 3.7-1.2 6.2l-2.5 1.2c1.2 3.7 0 6.2-3.7 9.9-1.2 1.2-3.7 2.5-6.2 3.7-1.2 1.2-1.2-1.2-2.5 0-1.2 1.2 1.2 1.2 1.2 3.7s-2.5 3.7-2.5 6.2c-1.2 0-2.5-1.2-3.7 0 0 2.5-1.2 4.9-3.7 6.2-1.2-2.5 1.2-2.5 2.5-3.7 1.2-1.2-4.9 0-4.9-1.2s-1.2 0-2.5 1.2v2.5c-1.2-1.2-1.2-1.2-4.9-2.5 1.2 1.2 2.5 3.7 0 4.9-2.5 1.2-1.2 4.9-4.9 3.7 0 1.2 1.2 1.2 1.2 2.5s-2.5 2.5-3.7 2.5c-1.2 0-1.2-1.2-2.5-1.2s-1.2 0-1.2 1.2 2.5 1.2 2.5 2.5c0 1.2-1.2 0-2.5 0-1.2 0 1.2 1.2 1.2 2.5 1.2-1.2 1.2-2.5 1.2-3.7 1.2 0 1.2 2.5 3.7 1.2 2.5-1.2 1.2-1.2 0-1.2 0-2.5 0-3.7 2.5-2.5 2.5 1.2 1.2-1.2 2.5 0 0-1.2 1.2-1.2 1.2-1.2v-4.9c3.7-2.5 3.7-2.5 6.2 0l-2.5 2.5c-1.2 1.2-1.2 3.7-2.5 3.7 0 1.2 0 1.2-1.2 2.5-3.7 2.5-7.4 7.4-8.6 12.3-1.2 1.2-3.7 2.5-6.2 3.7 0-1.2 0-2.5-1.2-2.5s-2.5 4.9 0 4.9v1.2l-1.2-1.2c-1.2 2.5-2.5 6.2-4.9 7.4l-3.7-2.5c2.5.1 3.7 1.3 4.9.1zm78.9-83.7s-1.3 0 0 0h-1.2c-.1-1.3-.1-1.3 1.2 0 0-1.3 0-1.3 0 0zm-91.2 35.7s0-1.3 0 0c0-1.3 0-1.3 0 0 0-2.5 0-2.5 0 0 1.3-1.3 1.3 0 0 0zm2.5 108.3c-1.2-1.2 0-1.2 0 0zm-13.6-107.1s1.3 0 0 0zm16.1-78.8l-1.2-1.2 1.2 1.2zm-33.3 104.7c1.2 1.2 1.2 1.2 1.2 2.5-1.2-1.3-1.2-1.3-1.2-2.5zm6.2-27.1c0-1.2 0-3.7 2.5-3.7s1.2 2.5 0 3.7c-1.2 1.2 1.2 1.2 1.2 3.7-1.3-2.5-3.7-2.5-3.7-3.7zm3.7-32.1zm-2.5 37c1.2 1.2 1.2 1.2 1.2 2.5s0 2.5 1.2 3.7c1.2 1.2 1.2 2.5 0 3.7 1.2 1.2 1.2 1.2 1.2 3.7 0-1.2-1.2-2.5-1.2-3.7-1.2 0-1.2 0-1.2 1.2 0-5-2.4-7.4-1.2-11.1zm4.9 18.5c0 1.2 0 1.2-2.5 2.5 0-1.2-1.2-1.2-1.2-3.7s2.5 1.2 3.7 1.2v-1.2c1.2-.1 0-.1 0 1.2zm17.3-30.8s-1.3 0 0 0c0-1.3 0 0 0 0zm0-53c1.2 1.2 1.2 6.2 1.2 8.6 0 2.5 0 1.2-1.2 1.2-1.2-1.2 0-3.7 0-4.9s-1.3-3.6 0-4.9zm-6.2-7.4c1.2 0 1.2 1.3 0 0zm-4.9-14.7c-1.2 0-1.2-1.2-1.2-1.2l1.2 1.2zm1.2 20.9c1.2 1.2 1.2 1.2 1.2 2.5-1.2-1.3-1.2-2.5-1.2-2.5-1.2 0-2.5-1.2-2.5-1.2 1.3-1.3 1.3-1.3 2.5 1.2zm-2.5-17.3c-1.2 1.2-1.2 0-1.2 0h1.2zm-1.2-4.9c-1.2 0-1.2-1.2-1.2-1.2 1.2 0 1.2 0 1.2 1.2zm-3.7 6.2s-1.2 0 0 0zm0 4.9c0 1.2 0 1.2-1.2 1.2 0 0 0-1.2 1.2-1.2zm0 14.8v-1.2c0-1.2 0-1.2 1.2-1.2s1.2 1.2 1.2 3.7-1.2 1.2-1.2 1.2 2.5 2.5 4.9 3.7c-1.2-2.5 0-3.7 0-6.2 1.2 1.2 3.7 0 6.2 0-1.2 1.2-2.5 2.5-1.2 3.7 0 2.5-1.2 3.7-2.5 4.9 1.2 1.2 1.2 0 3.7 1.2l-3.7 3.7c3.7 0 4.9 0 6.2 2.5h-6.2c1.2-1.2 2.5 0 3.7 0l-3.7-2.5c-1.2 1.2-2.5 1.2-3.7 1.2 0 1.2 1.2 2.5 0 3.7h1.2c1.2 1.2 0 3.7 1.2 3.7s0-3.7 2.5-3.7 1.2 1.2 1.2 1.2-1.2-1.2 1.2-2.5l1.2 1.2c0 1.2-1.2 3.7 1.2 6.2h-3.7c1.2 2.5 2.5 4.9 1.2 8.6 0 1.2 0 2.5 1.2 3.7l2.5 3.7c-2.5 0-3.7-2.5-4.9-1.2v1.2c1.2 0 1.2 1.2 2.5 1.2s2.5 4.9 0 8.6h-3.7c-1.2-1.2-1.2-2.5 0-3.7-1.2 0-1.2 0-4.9-3.7 0-1.2 1.2-1.2 2.5 0s-1.2-1.2-1.2-1.2l-3.7 1.2c0 1.2 1.2 1.2 1.2 2.5 0 1.2-2.5 0-3.7 0v-11.1l3.7-2.5c1.2 0 1.2-1.2 1.2-1.2s-2.5-1.2-3.7-1.2c-1.2 0-1.2 2.5-2.5 2.5s-1.2-1.2-1.2-1.2c1.2-1.2 1.2-3.7 1.2-6.2 0-1.2 0-2.5 1.2-3.7 1.2 0 1.2-1.2 1.2-2.5-1.2-1.2-1.2 0-1.2 1.2l-2.5-3.7c0-1.2 1.2-1.2 2.5-1.2s1.2 1.2 2.5 1.2-1.2-3.7 0-6.2 0-1.2-1.2-1.2 1.2 3.7-2.5 4.9c0-2.5-1.2-4.9 0-7.4 0-1.2-1.2-2.5-1.2-3.7.2-2.2 1.4-2.2 2.6-2.2zm-3.7-32c0 1.2 1.2 2.5 1.2 3.7 1.2 1.2 2.5 1.2 1.2 3.7-1.2-1.2-1.2-2.5-1.2-3.7-2.4-1.3-2.4-2.5-1.2-3.7zm-2.4 39.4c-1.2-2.5-1.2-3.7 0-7.4 1.2 3.7 0 4.9 0 7.4zm0 3.7zm-7.4-39.4c1.2 0 1.2 0 1.2 1.2 2.5-2.5 0-4.9 1.2-6.2 1.2-1.2 1.2 1.2 1.2 1.2v2.5c-1.2 0-1.2 1.2-1.2 2.5 0 1.2-1.2 1.2-1.2 1.2s1.2 2.5 0 3.7c-1.2 1.2 1.2 1.2 0 2.5-1.2 1.2 1.2 3.7 1.2 6.2s1.2-1.2 3.7-1.2 1.2 2.5 0 3.7c-1.2 0-2.5-1.2-3.7-1.2-1.2 0-1.2 1.2-1.2 1.2 1.2 3.7 0 6.2 2.5 9.9v1.2c-1.2 2.5-1.2 4.9 0 7.4v7.4c1.2 1.2 1.2-1.2 3.7-1.2v13.5c0 1.2-1.2 2.5-2.5 3.7h2.5v8.6c-2.5 2.5 0 6.2-2.5 11.1-1.2-2.5 0-4.9-1.2-7.4s0-4.9 0-7.4V239c0-2.5 0-3.7-1.2-6.2s0-6.2 0-8.6 0-4.9-1.2-6.2c1.2-2.5 0-4.9 0-7.4v-7.4c0-2.5 0-4.9-1.2-6.2v-8.6c-.1-1.2-2.6-3.7-.1-6.1zm-3.7 71.4c0 1.2-1.3 1.2 0 0zm1.2-72.7c-1.2 1.3-1.2 0 0 0zm0 64.1v1.2c-2.5-1.2-2.5-1.2-1.2-1.2h1.2zm-3.7-75.2c0 1.2 1.2 2.5 1.2 3.7s1.2 1.2 1.2 1.2 1.2 0 1.2 1.2c-1.2 0-1.2 0-1.2-1.2s-1.2-1.2-1.2-1.2-2.5-1.2-2.5-3.7h1.3zm-6.1 38.2c1.2 0 1.2 1.3 0 0zm-101 351c-1.2-1.2-1.2-1.2 0-1.2s1.2-1.3 0 1.2c1.2 0 0 0 0 0zm0-33.3c0-1.2 1.2-1.2 0 0 1.2-1.2 1.2 0 0 0zm1.2-2.4h-1.2c0-1.2 0-1.2 1.2-1.2s0 0 0 1.2h1.2-1.2zm17.2 17.2c-2.5 0-3.7 2.5-3.7 4.9H224c0-2.5 1.2-4.9 2.5-7.4 1.2 0 1.2 1.2 1.2 1.2s1.2-2.5 2.5-2.5c0-1.2 1.2-2.5 2.5-3.7 0 4.9-1.2 6.2-6.2 7.4 1.2 2.6 2.4.1 4.8.1 0-1.2 0-1.2 0 0 0-1.2 0-1.2 0 0 0-1.2 0 0 0 0zm2.5-16c0 2.5 1.2 4.9-1.2 6.2 0-1.2-1.2-1.2-2.5-1.2 3.7-.1 1.2-3.8 3.7-5 0 0 1.2 0 0 0 1.2 0 1.2 0 0 0 1.2 0 1.2 0 0 0zm1.2-2.4c-1.2-1.2-1.2-1.2-1.2-2.5 2.5 0 2.5 0 1.2 2.5zm0-5c0 1.3 0 1.3 0 0 0 1.3 0 0 0 0 0-2.5 0-4.9 2.5-6.2 0 2.5-1.2 5-2.5 6.2zm3.7-6.1zm2.5-8.7c1.2-1.2 1.2 0 0 0zm0 5s1.2-1.3 0 0zm3.7-9.9c1.2 0 1.2 0 0 0zm0-3.7s-1.2 1.3 0 0v-2.5 2.5zm4.9 3.7c-1.2-1.2-1.2-1.2-1.2-2.5s1.2-1.2 1.2 0 1.3.1 0 2.5zm-1.2-4.9l3.7-2.5c0 2.5 0 2.5-3.7 2.5zm6.1-13.6c0-1.2 1.3-1.2 0 0 1.3-1.2 1.3 0 0 0zm7.4-9.8s0-1.2 0 0c1.3-1.2 1.3 0 0 0zm14.8-22.2c1.2 0 1.2 0 0 0zm6.2 1.3c1.2 0 1.2 0 0 0zm1.2-12.4v-1.2h1.2c0 1.2 0 1.2-1.2 1.2zm1.2-7.3l1.2 1.2s-1.2 1.2-1.2-1.2zm3.7 1.2c-1.2 0-1.2-1.2-1.2-1.2s-1.2 0-1.2-1.2c0 0 1.2 0 1.2 1.2h1.2c1.3 1.2 1.3 1.2 0 1.2zm0-4.9h1.2-1.2c1.3 0 0 0 0 0zm2.5 1.2s0 1.2 0 0 0-1.2 1.2-1.2 0 1.2-1.2 1.2zm2.5-3.7c0-1.2 1.2-1.2 0 0 1.2-1.2 1.2 0 0 0zm4.9-4.9c-1.2-1.2 0-1.2 0-1.2 0-.1 1.2-.1 0 1.2 1.2 0 1.2 0 0 0zm3.7-6.2c-1.2-1.2 0-1.2 1.2-2.5s0 2.5-1.2 2.5zm2.4-3.7c0-1.2 1.2-1.2 1.2-1.2s.1 0-1.2 1.2zm6.2-219.2c0 1.2 0 1.2 0 0zm-4.9-2.4c1.2 1.2 1.2 3.7 1.2 3.7-2.5-.1-1.2-1.3-1.2-3.7s-1.2-1.2-1.2-2.5c1.2 1.2 2.4 2.5 1.2 2.5zm1.2 9.8s-1.2 0 0 0zM302.8 298v1.2-1.2zm2.4 73.9c-1.2 1.2-2.5-1.2-4.9 0l2.5-3.7c2.4 2.5 2.4 2.5 2.4 3.7zm-3.7-76.3v-4.9c1.3 1.2 1.3 2.4 0 4.9zm-1.2-14.8c1.2 2.5 1.2 3.7 1.2 6.2 0-1.3-1.2-3.8-1.2-6.2zm0-8.6v2.5c-1.2-3.7-1.2-8.6 0-13.5v6.2c1.2 1.1 1.2 3.5 0 4.8zm-1.2-11.1c-1.2-3.7-1.2-8.6-1.2-13.5 1.2 3.7 2.5 8.6 2.5 13.5h-1.3zm-2.5-81.3zm0 2.5c1.2 1.2 1.2 3.7 0 4.9s1.2 3.7 0 4.9c0-2.5 1.2-6.2 1.2-9.9h-1.2zm1.2 34.4c-1.2 0-1.2 0 0 0zm0 2.5c0 1.2 0 0 0 0zm0 6.2c-1.2-1.2-1.2-1.2-1.2-3.7 2.5 1.2 2.5 1.2 2.5 3.7h-1.3zm0 2.4c1.2 6.2 1.2 13.5 1.2 19.7 0-6.2 0-13.5 1.2-19.7h-2.4zm-32 187.2c0 1.2 0 1.2 0 0zm-34.5 49.3c0 1.2-1.2 1.2-1.2 1.2s2.5-1.2 3.7-1.2h-2.5zm-4.9 6.1s0 1.3 0 0zm0 5c-1.2 0-1.2 0 0 0zm-2.4 6.1c0-1.2 1.2-2.5 1.2-3.7 0-1.2 1.2-1.2 2.5-1.2-1.2-3.7 2.5-6.2 2.5-7.4s1.2-2.5 2.5-3.7c1.2-1.2 1.2 1.2 2.5 1.2-1.2-1.2-1.2-3.7 0-4.9 0-1.2 1.2 0 2.5-1.2s-2.5 0-3.7-1.2c0-1.2 1.2-2.5 2.5-2.5 0-1.2 0-1.2 1.2-1.2v-1.2c2.5-2.5 3.7-3.7 4.9-7.4l1.2-1.2 1.2 1.2s1.2-1.2 1.2-2.5-1.2-1.2 0-3.7c1.2 1.2 2.5-1.2 3.7 0v-3.7h-1.2c0 1.2 0 1.2-1.2 1.2v1.2-1.2l1.2-1.2c0-1.2 1.2-1.2 1.2 0 1.2 0 1.2 0 1.2-1.2 1.2-2.5 2.5-2.5 3.7-2.5 1.2 0 1.2 1.2 0 1.2-1.2 1.2-1.2 2.5-2.5 3.7 1.2 0 1.2 0 1.2-1.2 1.2-1.2 2.5-1.2 3.7-1.2v-3.7c-1.2-1.2-1.2-1.2-2.5 0 0-1.2 1.2-2.5 2.5-3.7 1.2-1.2-1.2 0-1.2-1.2s2.5-2.5 2.5-3.7l1.2 1.2c1.2-1.2 1.2-2.5 2.5-3.7H261c-1.2-1.2 1.2-2.5 6.2-3.7v-4.9h2.5c0-1.2 0-2.5 1.2-3.7 1.2 1.2 3.7 1.2 2.5 4.9 2.5-2.5 2.5-4.9 3.7-6.2-1.2-1.2-1.2 1.2-2.5 1.2s1.2-2.5 0-4.9c1.2-1.2 1.2-2.5 2.5-2.5 3.7 0 6.2-2.5 6.2-6.2l1.2 1.2c0-1.2 1.2-2.5 2.5-3.7 1.2-1.2 1.2-2.5 0-3.7 1.2-1.2 3.7-1.2 3.7-2.5 1.2-2.5 2.5-3.7 6.2-4.9v-1.2s-1.2 0-1.2-1.2c0 0 1.2 0 1.2 1.2 1.2-1.2 1.2 1.2 2.5 1.2s-1.2-1.2-1.2-3.7H297c0-1.2 1.2-2.5 2.5-3.7 1.2 1.2 1.2 1.2 3.7 1.2 0 1.2-2.5 1.2-1.2 3.7 1.2-1.2 2.5-2.5 2.5-3.7 0 0 1.2 0 1.2 1.2 1.2 4.9 2.5 11.1 4.9 16 0 1.2 0 2.5 1.2 3.7l-3.7 1.2c0 1.2 1.2 1.2 1.2 3.7s-1.2-1.2-3.7-1.2l-2.5 4.9h1.2l-1.2 1.2c1.2 3.7-2.5 6.2-3.7 8.6h-1.2c-1.2 1.2-1.2 1.2 1.2 3.7-1.2 1.2-1.2-1.2-3.7-1.2 1.2 2.5-1.2 3.7-2.5 6.2s-2.5 3.7-6.2 4.9c1.2 3.7-2.5 4.9-2.5 7.4s-2.5 1.2-2.5 2.5-1.2 1.2-1.2 2.5-2.5 3.7-2.5 4.9c0 1.2-1.2 1.2-2.5 1.2s-2.5-2.5-3.7-2.5c-1.2 0-1.2 1.2-2.5 2.5-1.2 1.2-1.2 0-1.2 0s-1.2-1.2-1.2 0-1.2 1.2 0 1.2l2.5 1.2 2.5-2.5c1.2-1.2 1.2 1.2 1.2 1.2v1.2c-1.2 1.2-2.5 3.7-6.2 4.9v1.2c0 2.5-2.5 3.7-2.5 6.2s-2.5 3.7-3.7 6.2c-1.2 2.5-1.2 2.5-2.5 2.5 1.2 1.2 1.2 1.2 0 1.2s-1.2 1.2-1.2 1.2c-1.2 0-1.2 1.2-1.2 2.5 0 1.2 0 3.7-2.5 3.7 0 1.2 0 1.2-1.2 1.2-2.5 2.5-3.7 6.2-4.9 9.9l1.2 1.2h-1.2l-2.5 4.9s1.2 0 1.2 1.2H245c-1.2 0-1.2 1.2-2.5 2.5v3.7l-2.5-1.2v6.2c-1.2-1.2-2.5 0-3.7 1.2-1.2 1.2-1.2 2.5-1.2 3.7 0 1.2-1.2 3.7-2.5 6.2 0 1.2 1.2 1.2 2.5 1.2-1.2 1.2-1.2 3.7-1.2 4.9s-2.5 0-3.7 1.2c-1.2 1.2-1.2 3.7-2.5 4.9 1.2 1.2 2.5 0 3.7 0s-1.2 1.2-1.2 2.5 1.2 1.2 1.2 1.2-1.2 1.2-1.2 0v3.7c-1.2-1.2-1.2-1.2 0-3.7v-4.9c-1.2 0-1.2 0-1.2 1.2-1.2-2.5-1.2-4.9-3.7-6.2s-1.2-1.2-1.2-1.2-2.5 1.2-3.7-1.2c1.2 0 2.5-1.2 2.5-1.2 1.2-1.2 1.2-1.2 2.5-1.2 0 1.2-2.5 1.2-2.5 3.7s1.2 0 2.5 1.2v-4.9l-1.2-1.2c0-1.2 0-2.5 1.2-2.5 3.7-2.5 2.5-4.9 2.5-7.4 0-1.2-1.2-2.5-1.2-2.5l-1.2 1.2 1.2 1.2s-1.2 1.2-1.2 3.7c-1.2-1.2-2.5-1.2-2.5-2.5-1.2 0-2.5-1.2-3.7-1.2-1.2-1.2-2.5-3.7-1.2-6.2s2.5-3.7 2.5-6.2c1.2 2.5 1.2 3.7 3.7 4.9 2.5-3.7 2.5-3.7-1.2-6.2 0-1.2-1.2-3.7 1.2-6.2 2.5-2.5 0-1.2-2.5-3.7 2.5-4.9 3.7-6.2 7.4-6.2l-5.2 1.9zm-6.2 30.8c1.2 2.5 1.2 3.7 0 4.9-1.2-1.2 0-2.5 1.2-4.9h-1.2zm-1.2-23.4c1.2 0 1.2 1.2 1.2 1.2v2.5s1.2 0 1.2 1.2h-1.2c-1.2 1.2-2.5 3.7-2.5 6.2 0 1.2-1.2 2.5-2.5 3.7l3.8-14.8zm-6.2 18.5c0 1.2-1.2 1.2-2.5 2.5 0-1.2 1.2-2.5 3.7-2.5h-1.2zm-1.2 6.1c1.2 0 1.2 1.2 1.2 2.5h1.2c0-1.2-1.2-1.2 0-3.7 1.2 1.2 2.5 1.2 2.5 3.7s0 2.5 1.2 2.5c-3.7 1.2-4.9-2.5-8.6-2.5 1.2-1.2 2.5-1.2 2.5-2.5zm0 5c1.2 1.2 0 1.2-1.2 2.5-.1-1.3 1.2-2.5 1.2-2.5zm0 38.1zm0-32zm1.2 34.5l-1.2 1.2s-1.2 0-1.2-1.2c1.2-1.2 2.4-1.2 2.4 0zm-24.6-14.8z"/><path d="M363.1 211.8h-1.2l1.2 1.2zM217.8 506.1c1.2-1.2 1.2 1.2 3.7 1.2-1.2-2.5-2.5-3.7-3.7-4.9v3.7zm87.4-110.8c-1.2-2.5 1.2-2.5 2.5-2.5v-1.2c-3.7-1.2-6.2 0-8.6-1.2-1.2 0-1.2 1.2-1.2 2.5 2.4-.1 4.9 1.2 7.3 2.4zm-9.8-1.2c1.2-2.5 1.2-4.9 0-8.6-2.5 2.4 0 4.9 0 8.6zm9.8-4.9c-1.2 0-1.2 0-1.2-1.2s2.5 0 2.5-1.2 0-4.9-2.5-6.2v1.2c-1.2 1.2 0 1.2 0 1.2s0 1.2-1.2 1.2v6.2c1.2-1.2 2.4 0 2.4-1.2zm-6.1 6.1s0-1.2-1.2-1.2c0 2.5-2.5 4.9-3.7 6.2 2.4-2.5 3.6-2.5 4.9-5zm-6.2 12.3c0 1.3 0 0 0 0zm14.8-18.4c-1.2-1.2-1.2-1.2-1.2 0h1.2zm-11.1 18.4c0-1.2 0-1.2 1.2-1.2-1.2-1.2-2.5-1.2-3.7-1.2 1.3 0 1.3 1.2 2.5 2.4zM462.9 218s0 1.2 0 0zM231.3 476.6h-2.5c1.3 1.2 1.3 1.2 2.5 0zm57.9-70.2c1.2 0 1.2 0 1.2-1.2-1.2 0-1.2 0-1.2 1.2zm0-12.3l2.5-3.7c-1.2 1.2-2.5 1.2-2.5 3.7zm6.2 8.6l1.2 1.2v-1.2zm179.8-149c1.2 0 2.5-1.2 2.5-2.5-1.3 0-2.5 1.3-2.5 2.5zM285.5 422.4zm-7.4-3.7c1.3 0 0 0 0 0s-1.2 0 0 0zm5-14.8c0-1.2 2.5-1.2 1.2-3.7-2.5 0-3.7 2.5-6.2 2.5 1.3 2.5 1.3 2.5 5 1.2zm1.2 11.1c0-1.2 0-1.2-1.2-1.2l1.2 1.2zm-8.6 13.6c1.2 0 1.2 0 0 0 1.2 0 1.2 0 0 0 1.2-1.2 0-1.2 0-1.2v1.2c0-1.3 0-1.3 0 0zm-2.5-6.2c0-1.2 0-1.2 0 0-1.2 0 0 0 0 0zm-1.2-4.9c1.2-1.2 0-2.5 0-3.7-2.5 1.2-2.5 1.2 0 3.7zm17.2-21h1.3zm-2.4 7.4v1.2c1.2 1.3 1.2.1 0-1.2zm1.2-4.9v1.2h1.2zm0 11.1c0-1.2-1.2-2.5 0-3.7-2.5 1.2-2.5 1.2 0 3.7zm-1.2-8.6l-1.2-1.2 1.2 1.2zm-1.3 6.1h-1.2 1.2zm0-3.7c-1.2 0-1.2 1.3 0 0z"/></svg>