<?xml version="1.0" encoding="utf-8"?>
<!-- Generator: Adobe Illustrator 23.0.1, SVG Export Plug-In . SVG Version: 6.00 Build 0)  -->
<svg version="1.1" id="Layer_1" xmlns="http://www.w3.org/2000/svg" xmlns:xlink="http://www.w3.org/1999/xlink" x="0px" y="0px"
	 viewBox="0 0 120 120" style="enable-background:new 0 0 120 120;" xml:space="preserve">
<g>
	<path style="fill:#617280;" d="M99.4,83.3H20.9c-1.7,0-3.1-1.4-3.1-3.1v0c0-1.7,1.4-3.1,3.1-3.1h78.5c1.7,0,3.1,1.4,3.1,3.1v0
		C102.5,81.9,101.1,83.3,99.4,83.3z"/>
	<ellipse style="fill:#AAFFD5;" cx="48.2" cy="40.8" rx="4.3" ry="4.6"/>
	<ellipse style="fill:#AAFFD5;" cx="41.3" cy="45.4" rx="1.9" ry="2.1"/>
	<path style="fill:#AAFFD5;" d="M83.2,32.1c-2.2,1-4.7,1.1-7,0.4c-0.6-0.2-1.1,0.1-1.3,0.7c0,0,0,0.1,0,0.1c-1,5.7-6.3,9.5-11.8,8.5
		c-3.3-0.6-6.1-2.8-7.5-5.9c-0.2-0.4-0.5-0.6-1-0.6h-1.1C47.7,35.5,43,31,42.8,25.2c-0.2-5.8,4.3-10.7,9.9-10.9c0.2,0,0.4,0,0.7,0v0
		c0.7,0,1.4,0.1,2,0.2c0.5,0.1,0.9-0.1,1.2-0.6c2.6-5.2,8.8-7.2,13.8-4.5c1.3,0.7,2.5,1.7,3.4,3c0.3,0.4,0.8,0.5,1.3,0.3
		c5.2-2.3,11.2,0.2,13.5,5.5C90.8,23.6,88.4,29.8,83.2,32.1L83.2,32.1z"/>
	<g>
		<g>
			<defs>
				<rect id="SVGID_13_" x="32.9" y="6.5" width="59.1" height="52.7"/>
			</defs>
			<clipPath id="SVGID_2_">
				<use xlink:href="#SVGID_13_"  style="overflow:visible;"/>
			</clipPath>
		</g>
		<path d="M60.1,27.3c-0.2-0.2-0.5-0.3-0.8-0.2H55l4-4.5l0.4-0.4l0.2-0.3c0.1-0.1,0.1-0.2,0.2-0.3c0-0.1,0.1-0.2,0.1-0.4
			c0-0.3-0.1-0.6-0.4-0.7c-0.3-0.2-0.7-0.2-1.1-0.2h-5.1c-0.3,0-0.5,0.1-0.7,0.3c-0.2,0.2-0.3,0.4-0.3,0.6c0,0.3,0.1,0.6,0.3,0.6
			c0.3,0.1,0.7,0.1,1.1,0.1h3.1c-0.1,0.2-0.3,0.4-0.5,0.7l-0.8,1l-1.1,1.2l-1.3,1.4c-0.5,0.5-0.8,0.9-0.9,1.1
			c-0.1,0.2-0.2,0.4-0.2,0.6c0,0.3,0.1,0.6,0.3,0.7c0.3,0.2,0.6,0.3,0.9,0.3h6c0.3,0,0.6-0.1,0.8-0.2c0.2-0.2,0.3-0.4,0.3-0.6
			C60.3,27.7,60.2,27.4,60.1,27.3L60.1,27.3z M60.1,27.3"/>
		<path d="M69.1,32.5c-0.2-0.1-0.4-0.2-0.6-0.2H65l3.2-3.6l0.3-0.3l0.2-0.2c0.1-0.1,0.1-0.2,0.1-0.2c0-0.1,0.1-0.2,0.1-0.3
			c0-0.2-0.1-0.5-0.3-0.6c-0.3-0.1-0.6-0.2-0.9-0.2h-4c-0.2,0-0.4,0.1-0.6,0.2c-0.1,0.1-0.2,0.3-0.2,0.5c0,0.3,0.1,0.4,0.3,0.5
			c0.3,0.1,0.5,0.1,0.8,0.1h2.6c-0.1,0.1-0.2,0.3-0.4,0.5l-0.7,0.8l-0.9,1l-1.1,1.2c-0.4,0.4-0.6,0.7-0.7,0.8
			c-0.1,0.1-0.2,0.3-0.2,0.4c0,0.2,0.1,0.4,0.2,0.6c0.2,0.2,0.5,0.2,0.8,0.2h4.8c0.2,0,0.4,0,0.6-0.2c0.1-0.1,0.2-0.3,0.2-0.5
			C69.3,32.8,69.2,32.6,69.1,32.5L69.1,32.5z M69.1,32.5"/>
		<path d="M79.8,26.7c-0.2-0.2-0.5-0.3-0.8-0.2h-4.3l4-4.5l0.4-0.4l0.2-0.3c0.1-0.1,0.1-0.2,0.2-0.3c0-0.1,0.1-0.2,0.1-0.4
			c0-0.3-0.1-0.6-0.4-0.7c-0.3-0.2-0.7-0.2-1.1-0.2H73c-0.3,0-0.5,0.1-0.7,0.2C72.1,20,72,20.3,72,20.5c0,0.3,0.1,0.6,0.3,0.6
			c0.3,0.1,0.7,0.1,1.1,0.1h3.3c-0.1,0.2-0.3,0.4-0.5,0.7l-0.8,1l-1.1,1.2l-1.3,1.5c-0.5,0.5-0.8,0.9-0.9,1.1
			c-0.1,0.2-0.2,0.4-0.2,0.6c0,0.3,0.1,0.6,0.3,0.7c0.3,0.2,0.6,0.3,0.9,0.3h6c0.3,0,0.6-0.1,0.8-0.2c0.2-0.2,0.3-0.4,0.3-0.6
			C80,27.1,79.9,26.9,79.8,26.7L79.8,26.7z M79.8,26.7"/>
	</g>
	<g>
		<path d="M115.3,57.1h-11.4c-1,0-1.9,0.9-1.9,1.9v5.7c-1.6-1.3-3.6-1.9-5.7-1.9H24.1c-2.1,0-4.1,0.7-5.7,1.9V40
			c0-1-0.9-1.9-1.9-1.9H5.1c-1,0-1.9,0.9-1.9,1.9v70.3c0,1,0.9,1.9,1.9,1.9h11.4c1,0,1.9-0.9,1.9-1.9v-9.5H102v9.5
			c0,1,0.9,1.9,1.9,1.9h11.4c1,0,1.9-0.9,1.9-1.9V59C117.2,58,116.3,57.1,115.3,57.1L115.3,57.1z M105.8,60.9h7.6V97h-7.6V60.9z
			 M24.1,66.6h72.2c3.1,0,5.7,2.6,5.7,5.7v9.5H18.4v-9.5C18.4,69.2,20.9,66.6,24.1,66.6L24.1,66.6z M7,41.9h7.6V97H7V41.9z
			 M14.6,108.4H7v-7.6h7.6V108.4z M18.4,85.6H102V97H18.4V85.6z M113.4,108.4h-7.6v-7.6h7.6V108.4z M113.4,108.4"/>
		<path d="M27.9,60.9h15.2c3.1,0,5.7-2.6,5.7-5.7c0-3.1-2.6-5.7-5.7-5.7H27.9c-3.1,0-5.7,2.6-5.7,5.7C22.2,58.4,24.7,60.9,27.9,60.9
			L27.9,60.9z M27.9,53.3h15.2c1,0,1.9,0.9,1.9,1.9c0,1-0.9,1.9-1.9,1.9H27.9c-1,0-1.9-0.9-1.9-1.9C26,54.2,26.8,53.3,27.9,53.3
			L27.9,53.3z M27.9,53.3"/>
		<path d="M96.3,89.4H24.1c-1,0-1.9,0.9-1.9,1.9c0,1,0.9,1.9,1.9,1.9h72.2c1,0,1.9-0.9,1.9-1.9C98.2,90.3,97.3,89.4,96.3,89.4
			L96.3,89.4z M96.3,89.4"/>
	</g>
</g>
</svg>
