<?xml version="1.0" encoding="utf-8"?>
<!-- Generator: Adobe Illustrator 23.0.1, SVG Export Plug-In . SVG Version: 6.00 Build 0)  -->
<svg version="1.1" id="Layer_1" xmlns="http://www.w3.org/2000/svg" xmlns:xlink="http://www.w3.org/1999/xlink" x="0px" y="0px"
	 viewBox="0 0 120 120" style="enable-background:new 0 0 120 120;" xml:space="preserve">
<rect x="37.1" y="46.7" style="fill:#3CD3AF;" width="14.5" height="65.4"/>
<rect x="51.5" y="28.7" style="fill:#9041B7;" width="14.5" height="34.3"/>
<rect x="70.7" y="68.8" style="fill:#AAFFD5;" width="13.7" height="42.3"/>
<rect x="88.8" y="20" style="fill:#617280;" width="14.5" height="95.1"/>
<g>
	<path d="M107.1,111.8h-3.1v-97c0-1-0.8-1.9-1.9-1.9H67.6c-1,0-1.9,0.8-1.9,1.9v8H62v-8c0-1-0.8-1.9-1.9-1.9h-8V7.4
		c0-1-0.8-1.9-1.9-1.9s-1.9,0.8-1.9,1.9V13h-8c-1,0-1.9,0.8-1.9,1.9v8H33c-1,0-1.9,0.8-1.9,1.9v15.4H15.7c-1,0-1.9,0.8-1.9,1.9v69.8
		h-3.1c-1,0-1.9,0.8-1.9,1.9c0,1,0.8,1.9,1.9,1.9h96.4c1,0,1.9-0.8,1.9-1.9C109,112.7,108.2,111.8,107.1,111.8z M69.4,16.7h30.9
		v95.2H86.7V64.3v-2.5c0-1-0.8-1.9-1.9-1.9S83,60.8,83,61.8v0.6h-3.7v-0.6c0-1-0.8-1.9-1.9-1.9s-1.9,0.8-1.9,1.9v0.6h-6.2V24.7V16.7
		z M42.3,16.7h16.1v6.2H42.3V16.7z M34.8,26.6h30.9v35.8H52.1v-6.2h5.6c1,0,1.9-0.8,1.9-1.9s-0.8-1.9-1.9-1.9h-5.6v-6.2h5.6
		c1,0,1.9-0.8,1.9-1.9c0-1-0.8-1.9-1.9-1.9h-5.6V42c0-1-0.8-1.9-1.9-1.9H34.8V26.6z M17.5,43.9h30.9v20.4v3.2v44.4h-8.7v-8
		c0-1-0.8-1.9-1.9-1.9H28c-1,0-1.9,0.8-1.9,1.9v8h-8.7V43.9z M34.8,111.8v-3.1c0-1-0.8-1.9-1.9-1.9c-1,0-1.9,0.8-1.9,1.9v3.1h-1.2
		v-6.2h6.2v6.2H34.8z M52.1,111.8V67.4v-1.3H83v45.7H52.1z"/>
	<path d="M60.2,69.8c-1,0-1.9,0.8-1.9,1.9v34.6c0,1,0.8,1.9,1.9,1.9s1.9-0.8,1.9-1.9V71.7C62,70.6,61.2,69.8,60.2,69.8z"/>
	<path d="M67.6,69.8c-1,0-1.9,0.8-1.9,1.9v34.6c0,1,0.8,1.9,1.9,1.9s1.9-0.8,1.9-1.9V71.7C69.4,70.6,68.6,69.8,67.6,69.8z"/>
	<path d="M75,69.8c-1,0-1.9,0.8-1.9,1.9v34.6c0,1,0.8,1.9,1.9,1.9s1.9-0.8,1.9-1.9V71.7C76.9,70.6,76,69.8,75,69.8z"/>
	<path d="M77.5,29c1,0,1.9-0.8,1.9-1.9v-2.5c0-1-0.8-1.9-1.9-1.9s-1.9,0.8-1.9,1.9v2.5C75.6,28.2,76.5,29,77.5,29z"/>
	<path d="M84.9,29c1,0,1.9-0.8,1.9-1.9v-2.5c0-1-0.8-1.9-1.9-1.9S83,23.7,83,24.7v2.5C83,28.2,83.9,29,84.9,29z"/>
	<path d="M92.3,29c1,0,1.9-0.8,1.9-1.9v-2.5c0-1-0.8-1.9-1.9-1.9s-1.9,0.8-1.9,1.9v2.5C90.5,28.2,91.3,29,92.3,29z"/>
	<path d="M77.5,41.4c1,0,1.9-0.8,1.9-1.9v-2.5c0-1-0.8-1.9-1.9-1.9s-1.9,0.8-1.9,1.9v2.5C75.6,40.6,76.5,41.4,77.5,41.4z"/>
	<path d="M84.9,41.4c1,0,1.9-0.8,1.9-1.9v-2.5c0-1-0.8-1.9-1.9-1.9S83,36,83,37.1v2.5C83,40.6,83.9,41.4,84.9,41.4z"/>
	<path d="M92.3,41.4c1,0,1.9-0.8,1.9-1.9v-2.5c0-1-0.8-1.9-1.9-1.9s-1.9,0.8-1.9,1.9v2.5C90.5,40.6,91.3,41.4,92.3,41.4z"/>
	<path d="M77.5,53.7c1,0,1.9-0.8,1.9-1.9v-2.5c0-1-0.8-1.9-1.9-1.9s-1.9,0.8-1.9,1.9v2.5C75.6,52.9,76.5,53.7,77.5,53.7z"/>
	<path d="M84.9,53.7c1,0,1.9-0.8,1.9-1.9v-2.5c0-1-0.8-1.9-1.9-1.9S83,48.4,83,49.4v2.5C83,52.9,83.9,53.7,84.9,53.7z"/>
	<path d="M92.3,53.7c1,0,1.9-0.8,1.9-1.9v-2.5c0-1-0.8-1.9-1.9-1.9s-1.9,0.8-1.9,1.9v2.5C90.5,52.9,91.3,53.7,92.3,53.7z"/>
	<path d="M25.6,58.7c1,0,1.9-0.8,1.9-1.9v-2.5c0-1-0.8-1.9-1.9-1.9s-1.9,0.8-1.9,1.9v2.5C23.7,57.9,24.5,58.7,25.6,58.7z"/>
	<path d="M33,58.7c1,0,1.9-0.8,1.9-1.9v-2.5c0-1-0.8-1.9-1.9-1.9c-1,0-1.9,0.8-1.9,1.9v2.5C31.1,57.9,32,58.7,33,58.7z"/>
	<path d="M40.4,58.7c1,0,1.9-0.8,1.9-1.9v-2.5c0-1-0.8-1.9-1.9-1.9s-1.9,0.8-1.9,1.9v2.5C38.5,57.9,39.4,58.7,40.4,58.7z"/>
	<path d="M25.6,71c1,0,1.9-0.8,1.9-1.9v-2.5c0-1-0.8-1.9-1.9-1.9s-1.9,0.8-1.9,1.9v2.5C23.7,70.2,24.5,71,25.6,71z"/>
	<path d="M33,71c1,0,1.9-0.8,1.9-1.9v-2.5c0-1-0.8-1.9-1.9-1.9c-1,0-1.9,0.8-1.9,1.9v2.5C31.1,70.2,32,71,33,71z"/>
	<path d="M40.4,71c1,0,1.9-0.8,1.9-1.9v-2.5c0-1-0.8-1.9-1.9-1.9s-1.9,0.8-1.9,1.9v2.5C38.5,70.2,39.4,71,40.4,71z"/>
	<path d="M25.6,83.4c1,0,1.9-0.8,1.9-1.9v-2.5c0-1-0.8-1.9-1.9-1.9s-1.9,0.8-1.9,1.9v2.5C23.7,82.6,24.5,83.4,25.6,83.4z"/>
	<path d="M33,83.4c1,0,1.9-0.8,1.9-1.9v-2.5c0-1-0.8-1.9-1.9-1.9c-1,0-1.9,0.8-1.9,1.9v2.5C31.1,82.6,32,83.4,33,83.4z"/>
	<path d="M40.4,83.4c1,0,1.9-0.8,1.9-1.9v-2.5c0-1-0.8-1.9-1.9-1.9s-1.9,0.8-1.9,1.9v2.5C38.5,82.6,39.4,83.4,40.4,83.4z"/>
	<path d="M27.4,93.9v-2.5c0-1-0.8-1.9-1.9-1.9s-1.9,0.8-1.9,1.9v2.5c0,1,0.8,1.9,1.9,1.9S27.4,94.9,27.4,93.9z"/>
	<path d="M33,95.8c1,0,1.9-0.8,1.9-1.9v-2.5c0-1-0.8-1.9-1.9-1.9c-1,0-1.9,0.8-1.9,1.9v2.5C31.1,94.9,32,95.8,33,95.8z"/>
	<path d="M40.4,95.8c1,0,1.9-0.8,1.9-1.9v-2.5c0-1-0.8-1.9-1.9-1.9s-1.9,0.8-1.9,1.9v2.5C38.5,94.9,39.4,95.8,40.4,95.8z"/>
	<path d="M92.3,66.1c1,0,1.9-0.8,1.9-1.9v-2.5c0-1-0.8-1.9-1.9-1.9s-1.9,0.8-1.9,1.9v2.5C90.5,65.3,91.3,66.1,92.3,66.1z"/>
	<path d="M92.3,78.5c1,0,1.9-0.8,1.9-1.9v-2.5c0-1-0.8-1.9-1.9-1.9s-1.9,0.8-1.9,1.9v2.5C90.5,77.6,91.3,78.5,92.3,78.5z"/>
	<path d="M92.3,90.8c1,0,1.9-0.8,1.9-1.9v-2.5c0-1-0.8-1.9-1.9-1.9s-1.9,0.8-1.9,1.9V89C90.5,90,91.3,90.8,92.3,90.8z"/>
	<path d="M92.3,103.2c1,0,1.9-0.8,1.9-1.9v-2.5c0-1-0.8-1.9-1.9-1.9s-1.9,0.8-1.9,1.9v2.5C90.5,102.4,91.3,103.2,92.3,103.2z"/>
	<path d="M59.6,34.6c0-1-0.8-1.9-1.9-1.9H42.9c-1,0-1.9,0.8-1.9,1.9c0,1,0.8,1.9,1.9,1.9h14.8C58.7,36.4,59.6,35.6,59.6,34.6z"/>
</g>
</svg>
