<?xml version="1.0" encoding="utf-8"?>
<!-- Generator: Adobe Illustrator 23.0.1, SVG Export Plug-In . SVG Version: 6.00 Build 0)  -->
<svg version="1.1" id="Layer_1" xmlns="http://www.w3.org/2000/svg" xmlns:xlink="http://www.w3.org/1999/xlink" x="0px" y="0px"
	 viewBox="0 0 120 120" style="enable-background:new 0 0 120 120;" xml:space="preserve">
<g>
	<path style="fill:#9041B7;" d="M80.7,34.6c-1.7,0-3.1-1.1-3.1-2.6c0-1.4,1.4-2.6,3.1-2.6c1.7,0,3.1,1.1,3.1,2.6
		C83.8,33.5,82.4,34.6,80.7,34.6L80.7,34.6z"/>
	<rect x="37.6" y="79.7" style="fill:#3CD3AF;" width="79.8" height="7.8"/>
	<path style="fill:#AAFFD5;" d="M10,47l5.2-17.4c1-0.6,3.3-1,5.6-1h0.6c2.5,0,4.6,0.6,5.6,1L32.3,47H10z"/>
	<g>
		<g>
			<g>
				<defs>
					<rect id="SVGID_5_" x="0.6" y="24" width="118" height="74.2"/>
				</defs>
				<clipPath id="SVGID_2_">
					<use xlink:href="#SVGID_5_"  style="overflow:visible;"/>
				</clipPath>
				<path style="clip-path:url(#SVGID_2_);" d="M27,27.7c-0.2-0.4-0.4-0.6-0.6-1c-1.9-1.5-5.4-2.1-8.1-2.3h-1.4
					c-2.7,0.2-6.2,0.6-8.1,2.3c-0.2,0.2-0.6,0.6-0.6,1L1.8,48.6c-0.2,0.6,0,1.2,0.4,1.7c0.4,0.6,1,0.8,1.5,0.8h4.1v4.4
					c-1.2,0.6-1.9,1.9-1.9,3.3c0,2.1,1.7,3.9,3.9,3.9c2.1,0,3.9-1.7,3.9-3.9c0-1.4-0.8-2.7-1.9-3.3v-4.4h3.9v40.4H8
					c-1.2,0-1.9,0.8-1.9,1.9c0,1.2,0.8,1.9,1.9,1.9h18.8c1.2,0,1.9-0.8,1.9-1.9c0-1.2-0.8-1.9-1.9-1.9h-7.5V51.1h12v-0.2
					c0.6,0,1.2-0.2,1.5-0.8c0.4-0.6,0.4-1.2,0.4-1.7L27,27.7z M6.3,47l5.2-17.4c1-0.6,3.3-1,5.6-1h0.6c2.5,0,4.6,0.6,5.6,1L28.5,47
					H6.3z M6.3,47"/>
				<path style="clip-path:url(#SVGID_2_);" d="M114.3,71.9h-1V61.2c0-6.4-3.8-10.4-10.4-10.4H85c-3.8,0-6.6,1.4-8.4,3.6
					c-1.8-2.4-4.6-3.6-8.4-3.6H50.4C44,50.8,40,54.6,40,61.2v10.6h-1c-2.4,0-4.4,2-4.4,4.4v11c0,2.4,2,4.4,4.4,4.4h1v4
					c0,1.2,0.8,2,2,2c1.2,0,2-0.8,2-2v-4h65.1v4c0,1.2,0.8,2,2,2c1.2,0,2-0.8,2-2v-4h1c2.4,0,4.4-2,4.4-4.4v-11
					C118.7,73.9,116.7,71.9,114.3,71.9L114.3,71.9z M78.6,61.2c0-4.4,2.2-6.4,6.4-6.4h17.8c4.2,0,6.4,2,6.4,6.4v10.6H78.6V61.2z
					 M44,61.2c0-4.2,2-6.4,6.4-6.4h17.8c4.2,0,6.4,2,6.4,6.4v10.6H44V61.2z M114.7,87.3c0,0.2-0.2,0.4-0.4,0.4H39.2
					c-0.2,0-0.4-0.2-0.4-0.4v-11c0-0.2,0.2-0.4,0.4-0.4h75.1c0.2,0,0.4,0.2,0.4,0.4V87.3z M114.7,87.3"/>
			</g>
			<path d="M53.6,63.6c0,1.1-0.9,2-2,2c-1.1,0-2-0.9-2-2c0-1.1,0.9-2,2-2C52.7,61.6,53.6,62.5,53.6,63.6L53.6,63.6z M53.6,63.6"/>
			<path d="M69.2,63.6c0,1.1-0.9,2-2,2c-1.1,0-2-0.9-2-2c0-1.1,0.9-2,2-2C68.3,61.6,69.2,62.5,69.2,63.6L69.2,63.6z M69.2,63.6"/>
			<path d="M88.1,63.6c0,1.1-0.9,2-2,2c-1.1,0-2-0.9-2-2c0-1.1,0.9-2,2-2C87.2,61.6,88.1,62.5,88.1,63.6L88.1,63.6z M88.1,63.6"/>
			<path d="M103.9,63.6c0,1.1-0.9,2-2,2c-1.1,0-2-0.9-2-2c0-1.1,0.9-2,2-2C103,61.6,103.9,62.5,103.9,63.6L103.9,63.6z M103.9,63.6"
				/>
		</g>
		<path style="fill:#1C1E26;" d="M101.4,21.1C101.4,21.1,101.4,21.1,101.4,21.1l0-0.1l-0.1-0.1l-0.1-0.1v0l-0.2-0.1l-0.1,0l-0.1,0
			l-0.1,0l-0.1,0h-48l-0.1,0l-0.1,0l-0.1,0l-0.1,0l-0.1,0.1v0l-0.1,0.1L52,20.9l0,0.1c0,0,0,0.1,0,0.1v0.1c0,0,0,0.1,0,0.1v24.2
			c0,0,0,0.1,0,0.1v0.1c0,0,0,0.1,0,0.1l0,0.1l0.1,0.1l0.1,0.1v0l0.1,0.1l0.1,0l0.1,0.1l0.1,0l0.2,0h0c0.1,0,0.2,0,0.2,0h47.3
			c0.1,0,0.2,0,0.2,0h0l0.2,0l0.1,0l0.1-0.1l0.1,0l0.1-0.1v0l0.1-0.1l0.1-0.1l0-0.1c0,0,0-0.1,0-0.1v-0.1c0,0,0-0.1,0-0.1V21.3
			c0,0,0-0.1,0-0.1C101.3,21.2,101.4,21.1,101.4,21.1L101.4,21.1z M97.2,22.1l-2.5,1.5H58.6l-2.5-1.5H97.2z M99.2,43.7l-2.9-1.7
			V24.8l2.9-1.7L99.2,43.7z M87.7,35.3c-0.9,1.8-1.7,3.5-3.8,3.9c-3.7,0.7-5.4,0.2-8.6-0.7c-1.7-0.5-3.5-1-5.3-1.4
			c-4.7-1-8.4,1-10.7,3V25.2H94v5.1C90,30.6,88.7,33.2,87.7,35.3L87.7,35.3z M94,31.9v9.5H60.6c1.4-1.5,4.4-3.8,8.7-2.9
			c1.7,0.4,3.4,0.8,5.1,1.3c3.3,0.9,5.7,1.6,10.1,0.8c3.3-0.6,4.4-2.9,5.4-4.9C90.9,33.6,91.8,32.2,94,31.9L94,31.9z M54.2,43.7V23
			l2.8,1.7v17.2L54.2,43.7z M56.1,44.6l2.5-1.5h36.1l2.5,1.5L56.1,44.6z M56.1,44.6"/>
	</g>
</g>
</svg>
