<?xml version="1.0" encoding="utf-8"?>
<!-- Generator: Adobe Illustrator 23.0.1, SVG Export Plug-In . SVG Version: 6.00 Build 0)  -->
<svg version="1.1" id="Layer_1" xmlns="http://www.w3.org/2000/svg" xmlns:xlink="http://www.w3.org/1999/xlink" x="0px" y="0px"
	 viewBox="0 0 120 120" style="enable-background:new 0 0 120 120;" xml:space="preserve">
<g>
	<ellipse style="fill:#AAFFD5;" cx="62.8" cy="41.6" rx="12" ry="14.3"/>
	<g>
		<path d="M119,104.4l-10.1-27.8c-0.1-1.1-0.5-2.1-1.1-2.9c0.7-1,1.1-2.2,1.1-3.4V12.9c0-3.2-2.6-5.8-5.8-5.8H17.2
			c-3.2,0-5.8,2.6-5.8,5.8v57.4c0,1.2,0.4,2.4,1.1,3.4c-0.6,0.9-1,1.9-1.1,2.9L1.3,104.4c-0.1,0.3-0.1,0.5-0.1,0.8
			c0,3.2,2.6,5.8,5.8,5.8h106.4c3.2,0,5.8-2.6,5.8-5.8C119.2,104.9,119.1,104.6,119,104.4L119,104.4z M16.2,12.9c0-0.5,0.5-1,1-1
			h85.9c0.5,0,1,0.4,1,1v57.4c0,0.6-0.5,1-1,1H17.2c-0.6,0-1-0.5-1-1V12.9z M16,77.9c0.1-0.3,0.1-0.5,0.1-0.8c0-0.6,0.5-1,1-1h85.9
			c0.6,0,1,0.5,1,1c0,0.3,0,0.6,0.1,0.8l3.3,9.1H12.7L16,77.9z M71.1,106.2H49.2v-6.8h21.9V106.2z M113.4,106.2H75.9V99
			c-0.2-2.5-2.3-4.4-4.8-4.3H49.2c-2.5-0.1-4.7,1.8-4.8,4.3v7.2H7c-0.4,0-0.8-0.3-1-0.7l5-13.6h98.4l5,13.6
			C114.2,105.9,113.8,106.2,113.4,106.2L113.4,106.2z M113.4,106.2"/>
		<path d="M93.8,17.2H26.5c-2.7,0-4.8,2.2-4.8,4.8v39.1c0,2.7,2.2,4.8,4.8,4.8h67.3c2.7,0,4.8-2.2,4.8-4.8V22
			C98.6,19.4,96.5,17.2,93.8,17.2L93.8,17.2z M93.8,61.1H26.5V22h67.3V61.1z M93.8,61.1"/>
	</g>
	
		<image style="overflow:visible;" width="512" height="512" xlink:href="../133699-internet-icons/png/worldwide.png"  transform="matrix(6.384644e-02 0 0 6.384644e-02 43.9903 26.196)">
	</image>
</g>
</svg>
