<?xml version="1.0" encoding="utf-8"?>
<!-- Generator: Adobe Illustrator 23.0.1, SVG Export Plug-In . SVG Version: 6.00 Build 0)  -->
<svg version="1.1" id="Layer_1" xmlns="http://www.w3.org/2000/svg" xmlns:xlink="http://www.w3.org/1999/xlink" x="0px" y="0px"
	 viewBox="0 0 120 120" style="enable-background:new 0 0 120 120;" xml:space="preserve">
<g>
	<path style="fill:#3CD3AF;" d="M26.5,21.6L26.5,21.6c0,2.8-2.2,5-5,5s-5-2.2-5-5s2.2-5,5-5C24.3,16.6,26.5,18.9,26.5,21.6z"/>
	<rect x="13.3" y="88.3" style="fill:#9041B7;" width="65.5" height="4.7"/>
	<g>
		<path style="fill:#AAFFD5;" d="M66.6,15.7c6.6-6,15.8-8.1,24-4.9c8.9,3.4,18.7,15.7,16,26.8c-0.2,0.8-0.5,1.6-1,2.2
			c-1,1-2.5,1.1-3.8,0.5c-9-4.1-20.1-21.5-34.6-24.6"/>
	</g>
	<g>
		<path d="M2.2,99c0,1.1,0.9,1.9,2,1.9h12l-9.7,14.5c-0.6,0.9-0.4,2.1,0.5,2.7c0.9,0.6,2.1,0.4,2.7-0.5L20.7,101h53.6v15.6
			c0,1.1,0.9,2,2,2c1.1,0,1.9-0.9,1.9-2V101h24.3l11.1,16.7c0.6,0.9,1.8,1.1,2.7,0.5c0.9-0.6,1.1-1.8,0.5-2.7l-9.7-14.5h10
			c1.1,0,1.9-0.9,1.9-1.9c0-1.1-0.9-2-1.9-2h-6.8L99.4,82.5l9.4-9.4c0,0,0,0,0,0c0.7-0.8,0.7-2,0-2.8c-0.8-0.7-2-0.7-2.8,0
			L79.3,97.1H4.1C3,97.1,2.2,98,2.2,99z M105.5,97.1H84.9l11.8-11.8L105.5,97.1z"/>
		<path d="M74.3,41.3v39.4l-2.8,2.8H10c-1.1,0-2,0.9-2,2v7.8c0,1.1,0.9,2,2,2h66.3c0.5,0,1-0.2,1.4-0.6L101,71.2
			c0.8-0.8,0.8-2,0-2.8l-5.8-5.9c-0.8-0.8-2-0.8-2.8,0L78.2,76.8V41.3c2.5,1.7,5.8,1.6,8.2-0.3c0.9-0.6,2.1-0.6,3,0
			c2.6,1.9,6.1,1.9,8.7,0c0.9-0.6,2.1-0.6,3,0c1.3,0.9,2.8,1.4,4.3,1.4c1.8,0,3.5-0.7,4.8-1.8c0.7-0.6,1-1.4,1-2.3
			c-0.6-17.2-14.1-31-35.1-31c-19.1,0-34.4,13.8-35.1,31c0,0.9,0.4,1.7,1,2.3c2.6,2.3,6.4,2.4,9.1,0.4c0.9-0.6,2.1-0.6,3,0
			c2.6,1.9,6.1,1.9,8.7,0c0.9-0.6,2.1-0.6,3,0c1.3,0.9,2.8,1.4,4.3,1.4C71.8,42.5,73.1,42.1,74.3,41.3z M73.7,86.8l3.9-3.9l0,0
			l16.2-16.2l3.1,3.1L75.4,91.2H11.9v-3.9h60.5C72.9,87.3,73.4,87.1,73.7,86.8z M80.1,37.9c-2.3-1.6-5.3-1.6-7.6,0
			c-1.2,0.9-2.9,0.9-4.1,0c-2.3-1.6-5.3-1.6-7.6,0c-1.2,0.9-2.9,0.9-4.1,0c-2.3-1.6-5.3-1.6-7.6,0c-0.6,0.4-1.3,0.7-2,0.7
			c-0.7,0-1.3-0.2-1.9-0.6C46,23,59.6,11.3,76.3,11.3c17.6,0,30.3,10.9,31.2,26.7c-0.6,0.4-1.2,0.6-1.9,0.6c-0.7,0-1.5-0.3-2-0.7
			c-2.3-1.6-5.3-1.6-7.6,0c-1.2,0.9-2.9,0.9-4.1,0c-2.3-1.6-5.3-1.6-7.6,0c-0.6,0.4-1.3,0.7-2,0.7C81.4,38.6,80.7,38.3,80.1,37.9z"
			/>
		<path d="M19.7,10.2L19.7,10.2c-4.9,0-8.9,4-8.9,8.9s4,8.9,8.9,8.9s8.9-4,8.9-8.9C28.6,14.2,24.6,10.2,19.7,10.2z M24.7,19.1
			L24.7,19.1c0,2.8-2.2,5-5,5s-5-2.2-5-5s2.2-5,5-5C22.5,14.1,24.7,16.3,24.7,19.1z"/>
		<path style="fill:#3CD3AF;" d="M37.3,19.1c0,1.1-0.9,2-1.9,2h-3.5c-1.1,0-1.9-0.9-1.9-2s0.9-1.9,1.9-1.9h3.5
			C36.4,17.1,37.3,18,37.3,19.1z"/>
		<path style="fill:#3CD3AF;" d="M29.4,6.7c0.8-0.7,2-0.7,2.8,0c0.7,0.8,0.7,2,0,2.7l-2.5,2.5c-0.8,0.7-2,0.7-2.8,0
			c-0.7-0.8-0.7-2,0-2.7L29.4,6.7z"/>
		<path style="fill:#3CD3AF;" d="M17.8,7V3.5c0-1.1,0.9-1.9,1.9-1.9c1.1,0,2,0.9,2,1.9V7c0,1.1-0.9,1.9-2,1.9
			C18.6,8.9,17.8,8,17.8,7z"/>
		<path style="fill:#3CD3AF;" d="M7.3,6.7c0.8-0.8,2-0.8,2.8,0l2.5,2.5c0.8,0.7,0.8,2,0,2.8c-0.7,0.8-2,0.8-2.8,0c0,0,0,0,0,0
			L7.3,9.4C6.5,8.7,6.5,7.4,7.3,6.7z"/>
		<path style="fill:#3CD3AF;" d="M4.1,17.1h3.5c1.1,0,1.9,0.9,1.9,1.9s-0.9,2-1.9,2H4.1c-1.1,0-2-0.9-2-2S3,17.1,4.1,17.1z"/>
		<path style="fill:#3CD3AF;" d="M12.5,26.3c0.8,0.8,0.8,2,0,2.8l-2.5,2.5c-0.8,0.7-2,0.7-2.8,0c-0.7-0.8-0.7-2,0-2.7l2.5-2.5
			C10.5,25.5,11.7,25.5,12.5,26.3z"/>
		<path style="fill:#3CD3AF;" d="M21.7,31.2v3.5c0,1.1-0.9,2-2,2c-1.1,0-1.9-0.9-1.9-2v-3.5c0-1.1,0.9-2,1.9-2
			C20.8,29.3,21.7,30.2,21.7,31.2z"/>
		<path style="fill:#3CD3AF;" d="M29.7,26.3l2.5,2.5c0.8,0.7,0.8,2,0,2.8c-0.7,0.8-2,0.8-2.8,0c0,0,0,0,0,0l-2.5-2.5
			c-0.7-0.8-0.7-2,0-2.8C27.7,25.6,28.9,25.6,29.7,26.3z"/>
	</g>
</g>
</svg>
