<svg width="96" height="96" xmlns="http://www.w3.org/2000/svg">

 <g>
  <title>background</title>
  <rect fill="none" id="canvas_background" height="402" width="582" y="-1" x="-1"/>
 </g>
 <g>
  <title fill="#c7ffd9">Layer 1</title>
  <path fill="#c7ffd9" id="svg_1" d="m80.121945,4.121945l-12,0c-2.209,0 -4,1.791 -4,4s1.791,4 4,4l12,0c2.21,0 4,1.79 4,4l0,12c0,2.209 1.791,4 4,4s4,-1.791 4,-4l0,-12c0,-6.627 -5.373,-12 -12,-12z"/>
  <path fill="#c7ffd9" id="svg_2" d="m28,4l-12,0c-6.627,0 -12,5.373 -12,12l0,12c0,2.209 1.791,4 4,4s4,-1.791 4,-4l0,-12c0,-2.21 1.79,-4 4,-4l12,0c2.209,0 4,-1.791 4,-4s-1.791,-4 -4,-4z"/>
  <path fill="#c7ffd9" id="svg_3" d="m88,64c-2.209,0 -4,1.791 -4,4l0,12c0,2.21 -1.79,4 -4,4l-12,0c-2.209,0 -4,1.791 -4,4s1.791,4 4,4l12,0c6.627,0 12,-5.373 12,-12l0,-12c0,-2.209 -1.791,-4 -4,-4z"/>
  <path fill="#c7ffd9" id="svg_4" d="m28,84l-12,0c-2.21,0 -4,-1.79 -4,-4l0,-12c0,-2.209 -1.791,-4 -4,-4s-4,1.791 -4,4l0,12c0,6.627 5.373,12 12,12l12,0c2.209,0 4,-1.791 4,-4s-1.791,-4 -4,-4z"/>
 </g>
</svg>