<?xml version="1.0" encoding="utf-8"?>
<!-- Generator: Adobe Illustrator 23.0.1, SVG Export Plug-In . SVG Version: 6.00 Build 0)  -->
<svg version="1.1" id="Layer_1" xmlns="http://www.w3.org/2000/svg" xmlns:xlink="http://www.w3.org/1999/xlink" x="0px" y="0px"
	 viewBox="0 0 720 720" style="enable-background:new 0 0 720 720;" xml:space="preserve">
<style type="text/css">
	.st0{fill:none;}
</style>
<title>STAY-MINTY-logo</title>
<g>
	<path class="st0" d="M206.7,560.3C206.7,560.3,207.9,560.3,206.7,560.3C207.9,560.3,207.9,560.3,206.7,560.3z"/>
	<path class="st0" d="M205.5,559.1C205.5,559.1,205.5,557.9,205.5,559.1L205.5,559.1L205.5,559.1z"/>
	<path class="st0" d="M249.8,497.5c-1.2,1.2-1.2,1.2-2.5,2.5S249.8,500,249.8,497.5z"/>
	<path class="st0" d="M477.6,235.2c0-1.2,0-1.2-1.2-1.2s-1.2,1.2-1.2,1.2S476.4,236.4,477.6,235.2z"/>
	<path class="st0" d="M526.9,177.3l-1.2-1.2C525.7,176.1,525.7,176.1,526.9,177.3z"/>
	<path class="st0" d="M510.9,165L510.9,165C509.7,166.3,510.9,166.3,510.9,165z"/>
	<path class="st0" d="M496.1,160.1c0,1.2-1.2,3.7,1.2,3.7c1.2-1.2,0-3.7,2.5-6.2C497.3,158.9,496.1,157.6,496.1,160.1z"/>
	<path class="st0" d="M515.8,167.5L515.8,167.5C514.6,167.5,514.6,167.5,515.8,167.5z"/>
	<path class="st0" d="M513.4,167.5L513.4,167.5L513.4,167.5C514.6,166.3,513.4,166.3,513.4,167.5z"/>
	<path class="st0" d="M424.7,293.1c0-1.2,0-1.2,1.2-1.2c2.5-1.2,2.5-2.5,2.5-4.9h1.2c1.2,0,1.2,0,1.2-1.2s-1.2-1.2-1.2-1.2
		s1.2-1.2,2.5-1.2s2.5-2.5,3.7-4.9c1.2-2.5,3.7-3.7,6.2-6.2c1.2,0,1.2,0,1.2-1.2c0-2.5,2.5-4.9,6.2-4.9c-1.2-1.2-1.2-1.2-1.2-1.2
		c1.2-1.2,2.5-1.2,3.7-2.5c2.5-4.9,6.2-7.4,9.9-11.1l2.5-3.7c2.5-3.7,6.2-6.2,9.9-7.4c-1.2-1.2-1.2-3.7,0-3.7h-1.2
		c-2.5,3.7-6.2,7.4-9.9,9.9c-1.2,1.2-1.2,1.2-1.2,1.2s-1.2,1.2-1.2,2.5l-13.5,14.8l-6.2,6.2l-6.2,4.9c-2.5,1.2-3.7,3.7-4.9,6.2
		c-3.7,2.5-6.2,6.2-9.9,9.9c-1.2,1.2-1.2,0-2.5,2.5c-1.2,2.5-3.7,4.9-6.2,4.9l-6.2,6.2c0,0,1.2,0,1.2,1.2l0,0c0,0-1.2,0-1.2-1.2l0,0
		c-1.2,1.2-1.2,1.2-2.5,2.5c-1.2,1.2-3.7,2.5-6.2,4.9c-1.2-1.2-1.2-2.5,0-2.5s2.5,0,2.5-2.5c1.2-2.5,2.5-3.7,3.7-6.2
		c2.5-1.2,3.7-3.7,6.2-6.2c-1.2,0-2.5,0-2.5,1.2c0,1.2-1.2,1.2-1.2,1.2c-7.4,6.2-13.5,13.5-19.7,19.7l-2.5,1.2
		c-1.2,3.7-3.7,6.2-6.2,8.6c-1.2,1.2-1.2,3.7-3.7,2.5c0,1.2,0,3.7-2.5,3.7c0,1.2-2.5,2.5-1.2,4.9c1.2,2.5-1.2,4.9,1.2,6.2
		c1.2-1.2,1.2-1.2,3.7-2.5l1.2-1.2c-1.2-2.5,1.2-2.5,2.5-3.7c1.2-1.2,2.5-2.5,3.7-2.5c1.2,0,0-2.5,2.5-2.5s1.2,2.5,3.7,3.7V335
		c-2.5-1.2-1.2-2.5,0-4.9h1.2c0-1.2,1.2-2.5,2.5-3.7c2.5,0,1.2-2.5,2.5-2.5l2.5-2.5c0-1.2,0-1.2,1.2-1.2l0,0l2.5-2.5
		c1.2-1.2,1.2,1.2,2.5,0c-1.2-1.2-2.5-2.5,0-3.7c2.5-1.2,1.2,2.5,2.5,1.2c0-1.2-1.2-2.5-1.2-3.7c2.5-2.5,4.9-6.2,9.9-6.2l-1.2-2.5
		c2.5-1.2,3.7-3.7,4.9-4.9c0,1.2,1.2,1.2,1.2,2.5s0-2.5,1.2-3.7c1.2,0,3.7,0,4.9,0C427.2,294.3,425.9,293.1,424.7,293.1z
		 M376.7,337.4c0-1.2,1.2-1.2,1.2-2.5S376.7,337.4,376.7,337.4L376.7,337.4z M380.4,333.7c0-1.2,1.2-2.5,2.5-2.5
		C382.8,332.5,381.6,332.5,380.4,333.7L380.4,333.7z M395.1,317.7c0,1.2-1.2,1.2-1.2,1.2v1.2c0,0,0,1.2-1.2,1.2l0,0l-1.2-1.2
		l1.2-1.2h1.2c0-2.5,2.5-3.7,4.9-6.2c1.2,1.2,1.2,1.2,1.2,2.5C396.4,315.3,395.1,316.5,395.1,317.7L395.1,317.7z"/>
	<path class="st0" d="M343.4,256.2c-1.2,0-1.2,1.2-1.2,1.2h1.2C343.4,257.4,343.4,257.4,343.4,256.2z"/>
	<path class="st0" d="M343.4,283.2C343.4,283.2,344.6,283.2,343.4,283.2C344.6,283.2,344.6,283.2,343.4,283.2
		C344.6,283.2,343.4,283.2,343.4,283.2z"/>
	<path class="st0" d="M498.6,227.8c-1.2,1.2-1.2,1.2-1.2,1.2S499.8,230.3,498.6,227.8z"/>
	<path class="st0" d="M533.1,209.4c0-1.2,0-1.2-1.2-1.2S531.8,209.4,533.1,209.4z"/>
	<path class="st0" d="M457.9,257.4c0,1.2,1.2,1.2,1.2,1.2S459.2,257.4,457.9,257.4z"/>
	<path class="st0" d="M524.4,174.9c0-1.2-1.2-1.2-1.2-1.2C522,174.9,524.4,174.9,524.4,174.9z"/>
	<path class="st0" d="M526.9,178.6c1.2,0,1.2-1.2,1.2-1.2h-1.2C526.9,177.3,525.7,177.3,526.9,178.6z"/>
	<path class="st0" d="M385.3,337.4c0-1.2-1.2-1.2-1.2-1.2C384.1,337.4,385.3,337.4,385.3,337.4z"/>
	<path class="st0" d="M360.7,383v-2.5C360.7,381.8,360.7,381.8,360.7,383z"/>
	<path class="st0" d="M389,335L389,335C390.2,335,389,335,389,335L389,335z"/>
	<path class="st0" d="M386.5,338.7C386.5,337.4,386.5,337.4,386.5,338.7C385.3,337.4,385.3,338.7,386.5,338.7z"/>
	<path class="st0" d="M376.7,399c-1.2,0-2.5,0-3.7,1.2C374.2,400.2,376.7,401.5,376.7,399z"/>
	<path class="st0" d="M396.4,501.2c1.2,0,1.2,0,1.2-1.2S396.4,501.2,396.4,501.2z"/>
	<path class="st0" d="M397.6,440.9c1.2,0,1.2,0,1.2-1.2S397.6,438.4,397.6,440.9z"/>
	<path class="st0" d="M392.7,332.5l2.5-2.5c-2.5,0-2.5,1.2-4.9,1.2C387.7,331.3,391.4,331.3,392.7,332.5z"/>
	<path class="st0" d="M414.8,294.3c-1.2,0-2.5,0-2.5,2.5C413.6,295.6,414.8,295.6,414.8,294.3z"/>
	<path class="st0" d="M370.5,335c0,1.2,1.2,1.2,1.2,1.2v-2.5C371.7,333.7,370.5,333.7,370.5,335z"/>
	<path class="st0" d="M374.2,332.5c-1.2,1.2-1.2,1.2-1.2,1.2l2.5-1.2C374.2,331.3,374.2,331.3,374.2,332.5z"/>
	<path class="st0" d="M353.3,262.3c-1.2-1.2,0-1.2-1.2-2.5h-3.7c-1.2-1.2-3.7-2.5-4.9-1.2c0,1.2,1.2,1.2,1.2,1.2h1.2l0,0l-2.5,1.2
		c1.2,2.5,2.5,1.2,3.7,1.2c-1.2,2.5,1.2,1.2,2.5,1.2c1.2,2.5-1.2,4.9,0,8.6c0,1.2-1.2,1.2-1.2,1.2s2.5,0,4.9,1.2
		c-1.2,2.5-3.7,1.2-4.9,2.5c-1.2-1.2-2.5-3.7-4.9-3.7c-2.5,0-1.2,1.2-1.2,1.2s1.2,1.2,1.2,2.5c-1.2,1.2-1.2,2.5-1.2,3.7
		c0,1.2,1.2,2.5,1.2,3.7c0,1.2,1.2,1.2,1.2,1.2l-1.2,1.2c1.2-1.2,2.5-2.5,3.7-2.5c-1.2-1.2-1.2-1.2-1.2-2.5s1.2-1.2,1.2-1.2
		s0-1.2,1.2-1.2c-1.2,1.2-1.2,1.2-1.2,1.2s0,1.2,1.2,1.2s1.2,0,1.2-1.2l6.2-6.2c1.2-1.2,1.2-1.2,1.2-2.5s1.2-1.2,0-1.2
		s-1.2,2.5-2.5,1.2c0-1.2,0-3.7-1.2-3.7c0-1.2,0-2.5,1.2-2.5l2.5-1.2C355.7,262.3,354.5,263.5,353.3,262.3z"/>
	<path class="st0" d="M310.2,396.5c1.2,2.5,0,3.7-1.2,6.2c1.2-1.2,2.5-3.7,3.7-2.5C313.9,399,312.6,397.8,310.2,396.5
		C310.2,397.8,310.2,397.8,310.2,396.5z"/>
	<path class="st0" d="M439.5,266l-2.5,2.5C438.2,268.5,438.2,268.5,439.5,266z"/>
	<path class="st0" d="M432.1,273.4l-2.5,2.5C432.1,274.6,432.1,274.6,432.1,273.4z"/>
	<path class="st0" d="M435.8,270.9c1.2-1.2,1.2-1.2,1.2-2.5S434.5,269.7,435.8,270.9z"/>
	<path class="st0" d="M440.7,266l2.5-2.5C440.7,263.5,440.7,264.8,440.7,266z"/>
	<path class="st0" d="M449.3,257.4L449.3,257.4C448.1,257.4,448.1,258.6,449.3,257.4z"/>
	<path class="st0" d="M459.2,234L459.2,234C457.9,234,457.9,234,459.2,234L459.2,234z"/>
	<path class="st0" d="M459.2,225.4L459.2,225.4C457.9,224.1,459.2,225.4,459.2,225.4z"/>
	<path class="st0" d="M457.9,227.8c-1.2,1.2-1.2-1.2-2.5-2.5c-1.2,1.2-2.5,1.2-2.5,2.5C454.2,229.1,456.7,229.1,457.9,227.8
		c1.2,0,1.2,1.2,1.2,2.5c1.2,0,2.5-1.2,1.2-2.5C459.2,226.6,459.2,226.6,457.9,227.8z"/>
	<path class="st0" d="M455.5,222.9C455.5,221.7,454.2,221.7,455.5,222.9L455.5,222.9L455.5,222.9L455.5,222.9z"/>
	<path class="st0" d="M459.2,211.8L459.2,211.8C460.4,213,460.4,211.8,459.2,211.8z"/>
	<path class="st0" d="M464.1,221.7c1.2-1.2,1.2-1.2,2.5-2.5c1.2-1.2,1.2-2.5,1.2-3.7c-2.5,0-4.9,0-6.2,1.2l1.2,4.9
		c-1.2,0-3.7,0-4.9,0c3.7,1.2,7.4,1.2,11.1,1.2l0,0C466.6,222.9,464.1,224.1,464.1,221.7z M462.9,218L462.9,218
		C462.9,219.2,462.9,218,462.9,218L462.9,218z"/>
	<path class="st0" d="M457.9,247.5l-1.2,1.2C457.9,250,457.9,250,457.9,247.5z"/>
	<path class="st0" d="M451.8,235.2C451.8,236.4,453,236.4,451.8,235.2L451.8,235.2L451.8,235.2z"/>
	<path class="st0" d="M449.3,232.8c-1.2,0-1.2,1.2,0,1.2V232.8L449.3,232.8z"/>
	<path class="st0" d="M457.9,234l2.5-3.7c-1.2,0-2.5,0-3.7,0C456.7,231.5,456.7,232.8,457.9,234z"/>
	<path class="st0" d="M450.6,230.3c1.2,0,1.2-1.2,2.5-2.5S450.6,230.3,450.6,230.3z"/>
	<path class="st0" d="M449.3,231.5c1.2,0,1.2,0,1.2-1.2C450.6,229.1,449.3,229.1,449.3,231.5z"/>
	<polygon class="st0" points="464.1,204.4 464.1,204.4 464.1,203.2 	"/>
	<path class="st0" d="M422.2,285.7c1.2,0,1.2-1.2,1.2-1.2S422.2,284.5,422.2,285.7z"/>
	<path class="st0" d="M425.9,279.5L425.9,279.5c1.2,0,2.5-1.2,1.2-1.2C427.2,278.3,425.9,278.3,425.9,279.5z"/>
	<path class="st0" d="M423.5,283.2c1.2,0,1.2-1.2,1.2-2.5C423.5,282,423.5,283.2,423.5,283.2z"/>
	<path class="st0" d="M477.6,204.4C478.9,204.4,478.9,204.4,477.6,204.4C478.9,203.2,478.9,203.2,477.6,204.4
		C478.9,203.2,477.6,203.2,477.6,204.4z"/>
	<path class="st0" d="M481.3,202c-1.2,0-1.2-1.2-3.7-1.2c1.2,1.2,1.2,2.5,1.2,3.7s1.2,1.2,1.2,1.2h1.2c1.2,0-1.2,1.2,1.2,2.5
		c2.5-1.2,1.2-3.7,1.2-3.7s1.2-1.2,1.2-2.5C482.6,199.5,482.6,202,481.3,202z"/>
	<path class="st0" d="M487.5,224.1C487.5,224.1,488.7,224.1,487.5,224.1C488.7,224.1,487.5,224.1,487.5,224.1L487.5,224.1z"/>
	<path class="st0" d="M491.2,168.7v-1.2v-1.2l0,0C491.2,167.5,491.2,167.5,491.2,168.7z"/>
	<path class="st0" d="M477.6,232.8l2.5-1.2C478.9,231.5,477.6,231.5,477.6,232.8z"/>
	<path class="st0" d="M472.7,209.4c-2.5,0-4.9,2.5-6.2,4.9C469,211.8,471.5,211.8,472.7,209.4z"/>
	<path class="st0" d="M475.2,214.3c-1.2,0-3.7,0-4.9,1.2C472.7,215.5,474,215.5,475.2,214.3z"/>
	<path class="st0" d="M469,220.4c1.2-1.2,1.2-1.2,1.2-2.5S469,219.2,469,220.4z"/>
	<path class="st0" d="M354.5,195.8L354.5,195.8C355.7,195.8,355.7,195.8,354.5,195.8L354.5,195.8z"/>
	<path class="st0" d="M478.9,213L478.9,213C477.6,211.8,477.6,213,478.9,213L478.9,213z"/>
	<path class="st0" d="M474,208.1C474,208.1,472.7,208.1,474,208.1L474,208.1C474,209.4,474,208.1,474,208.1L474,208.1z"/>
	<path class="st0" d="M477.6,209.4c-1.2,1.2-1.2,1.2,0,2.5V209.4z"/>
	<path class="st0" d="M381.6,343.6L381.6,343.6L381.6,343.6z"/>
	<path class="st0" d="M379.1,346c-1.2,0-1.2,0-1.2,1.2C377.9,348.5,377.9,347.3,379.1,346z"/>
	<path class="st0" d="M529.4,183.5L529.4,183.5l1.2,3.7C530.6,186,530.6,184.7,529.4,183.5z"/>
	<path class="st0" d="M381.6,341.1v2.5c1.2,0,1.2,0,1.2-1.2S384.1,341.1,381.6,341.1z"/>
	<path class="st0" d="M364.3,389.2c0-1.2,0-1.2-1.2-1.2S363.1,389.2,364.3,389.2z"/>
	<path class="st0" d="M403.8,466.7c0-1.2-1.2-2.5-2.5-3.7C401.3,464.3,402.5,465.5,403.8,466.7z"/>
	<path class="st0" d="M407.4,461.8c-1.2,0-1.2,1.2,0,1.2V461.8z"/>
	<path class="st0" d="M311.4,166.3C311.4,165,311.4,165,311.4,166.3L311.4,166.3L311.4,166.3z"/>
	<path class="st0" d="M419.8,474.1c-1.2,1.2-1.2,1.2,0,1.2V474.1z"/>
	<path class="st0" d="M397.6,460.6c1.2,1.2,1.2,1.2,1.2,1.2S398.8,460.6,397.6,460.6z"/>
	<path class="st0" d="M402.5,493.8c-1.2,1.2-2.5,3.7-2.5,6.2C402.5,498.8,402.5,496.3,402.5,493.8z"/>
	<path class="st0" d="M326.2,172.4c0-1.2-1.2-2.5-2.5-2.5C323.7,171.2,324.9,172.4,326.2,172.4z"/>
	<path class="st0" d="M355.7,186c1.2-1.2,1.2-1.2,0-1.2s-1.2,1.2-1.2,1.2v1.2h1.2V186z"/>
	<path class="st0" d="M357,184.7L357,184.7C355.7,183.5,355.7,184.7,357,184.7L357,184.7z"/>
	<path class="st0" d="M354.5,192.1c0,0,0,1.2,1.2,1.2c-1.2-2.5-2.5-4.9-2.5-7.4C352,188.4,355.7,189.6,354.5,192.1z"/>
	<path class="st0" d="M395.1,449.5c0,1.2,0,2.5,1.2,3.7C396.4,450.7,396.4,450.7,395.1,449.5z"/>
	<path class="st0" d="M318.8,167.5h-1.2c0,1.2,0,1.2,1.2,1.2S318.8,167.5,318.8,167.5z"/>
	<path class="st0" d="M312.6,166.3L312.6,166.3C311.4,166.3,312.6,166.3,312.6,166.3z"/>
	<polygon class="st0" points="380.4,403.9 379.1,403.9 379.1,405.2 	"/>
	<path class="st0" d="M373,403.9C373,402.7,371.7,402.7,373,403.9L373,403.9C371.7,403.9,373,403.9,373,403.9z"/>
	<path class="st0" d="M368,395.3L368,395.3L368,395.3L368,395.3z"/>
	<path class="st0" d="M375.4,407.6l-2.5-3.7C373,405.2,373,406.4,375.4,407.6z"/>
	<path class="st0" d="M528.1,204.4C528.1,204.4,528.1,203.2,528.1,204.4L528.1,204.4L528.1,204.4
		C526.9,205.7,528.1,204.4,528.1,204.4z"/>
	<path class="st0" d="M370.5,401.5L370.5,401.5C371.7,402.7,371.7,401.5,370.5,401.5L370.5,401.5z"/>
	<path class="st0" d="M374.2,397.8C375.4,397.8,375.4,397.8,374.2,397.8C375.4,397.8,375.4,397.8,374.2,397.8c1.2-1.2,0-1.2,0-1.2
		l0,0V397.8L374.2,397.8L374.2,397.8z"/>
	<path class="st0" d="M403.8,319h-1.2C402.5,319,402.5,319,403.8,319L403.8,319z"/>
	<path class="st0" d="M387.7,426.1L387.7,426.1c-1.2-1.2-1.2-1.2-1.2-1.2L387.7,426.1L387.7,426.1z"/>
	<path class="st0" d="M393.9,440.9c-1.2,0-1.2,1.2,0,2.5l0,0C395.1,442.1,395.1,440.9,393.9,440.9z"/>
	<path class="st0" d="M375.4,402.7L375.4,402.7C376.7,402.7,375.4,402.7,375.4,402.7z"/>
	<path class="st0" d="M375.4,408.9C375.4,408.9,376.7,408.9,375.4,408.9L375.4,408.9C376.7,407.6,375.4,406.4,375.4,408.9
		L375.4,408.9z"/>
	<path class="st0" d="M418.5,286.9L418.5,286.9c1.2,1.2,1.2,1.2,1.2,0l0,0v-1.2L418.5,286.9L418.5,286.9z"/>
	<path class="st0" d="M421,285.7L421,285.7C421,286.9,421,286.9,421,285.7z"/>
	<path class="st0" d="M370.5,346L370.5,346L370.5,346L370.5,346C370.5,347.3,370.5,347.3,370.5,346z"/>
	<path class="st0" d="M209.2,560.3c1.2,0,1.2-1.2,1.2-1.2C210.4,557.9,209.2,559.1,209.2,560.3L209.2,560.3L209.2,560.3z"/>
	<path class="st0" d="M417.3,290.6C416.1,290.6,416.1,290.6,417.3,290.6L417.3,290.6C416.1,291.9,417.3,291.9,417.3,290.6
		C418.5,291.9,417.3,290.6,417.3,290.6z"/>
	<polygon class="st0" points="187,544.3 185.8,544.3 187,545.6 	"/>
	<path class="st0" d="M209.2,524.6C209.2,524.6,209.2,525.8,209.2,524.6L209.2,524.6z"/>
	<polygon class="st0" points="210.4,557.9 210.4,556.6 209.2,556.6 	"/>
	<path class="st0" d="M503.5,225.4L503.5,225.4C502.3,226.6,502.3,226.6,503.5,225.4z"/>
	<path class="st0" d="M502.3,226.6C502.3,226.6,501,226.6,502.3,226.6C501,227.8,502.3,227.8,502.3,226.6z"/>
	<path class="st0" d="M497.3,189.6L497.3,189.6C498.6,189.6,497.3,189.6,497.3,189.6z"/>
	<path class="st0" d="M210.4,518.5c-1.2,0-1.2,1.2-1.2,2.5C210.4,519.7,210.4,519.7,210.4,518.5z"/>
	<path class="st0" d="M496.1,193.3C494.9,194.6,496.1,194.6,496.1,193.3L496.1,193.3z"/>
	<path class="st0" d="M498.6,165c-1.2,0-2.5-1.2-3.7,0c0,1.2,0,1.2,1.2,2.5L498.6,165z"/>
	<path class="st0" d="M369.3,341.1C369.3,341.1,368,341.1,369.3,341.1L369.3,341.1v1.2C370.5,342.4,370.5,342.4,369.3,341.1
		L369.3,341.1C370.5,341.1,370.5,341.1,369.3,341.1z"/>
	<path class="st0" d="M503.5,225.4L503.5,225.4L503.5,225.4z"/>
	<path class="st0" d="M217.8,519.7c-1.2,0-1.2-1.2-1.2-2.5s-1.2-2.5-2.5-3.7c-1.2,1.2,0,2.5,0,3.7c0,1.2,1.2,0,1.2,1.2
		c0,0-1.2,0-1.2-1.2l0,0h-1.2c-1.2-1.2,0-2.5-1.2-2.5c0,1.2,0,2.5-1.2,3.7C212.9,517.2,214.1,520.9,217.8,519.7z"/>
	<path class="st0" d="M210.4,511.1c1.2-1.2,2.5-2.5,2.5-2.5C211.6,508.6,210.4,509.8,210.4,511.1z"/>
	<path class="st0" d="M422.2,285.7L422.2,285.7L422.2,285.7z"/>
	<path class="st0" d="M221.5,490.1c-2.5,2.5-1.2,3.7-1.2,6.2c3.7,2.5,3.7,2.5,1.2,6.2c-2.5-1.2-2.5-2.5-3.7-4.9
		c0,2.5-1.2,4.9-2.5,6.2c-1.2,2.5,1.2,3.7,1.2,6.2c1.2,1.2,2.5,1.2,3.7,1.2c0-1.2,0-2.5,2.5-2.5c2.5,0,0-1.2,1.2-1.2
		s1.2,1.2,1.2,2.5c0,3.7,0,6.2-2.5,7.4c-1.2,0-1.2,1.2-1.2,2.5c1.2,0,1.2,0,1.2,1.2v4.9c-1.2-1.2-1.2-1.2-2.5-1.2
		c-1.2,0,0,1.2,1.2,1.2c1.2,0,3.7,3.7,3.7,6.2c0-1.2,1.2-1.2,1.2-1.2s1.2-1.2,1.2-2.5s-1.2,1.2-3.7,0c1.2-1.2,2.5-3.7,2.5-4.9
		s2.5,0,3.7-1.2c1.2-1.2-1.2-3.7,1.2-4.9c-1.2-1.2-2.5-1.2-2.5-1.2c2.5-2.5,4.9-3.7,2.5-6.2s1.2-2.5,1.2-3.7c0-1.2,2.5-2.5,3.7-1.2
		c0-2.5,0-3.7,0-6.2l2.5,1.2v-3.7c0-1.2,1.2-1.2,2.5-2.5l2.5-4.9h1.2l-1.2-1.2c1.2-3.7,2.5-6.2,4.9-9.9l1.2-1.2
		c1.2,0,1.2-2.5,2.5-3.7c0-1.2,0-1.2,1.2-2.5c1.2,0,1.2,1.2,1.2-1.2s-1.2-1.2,0-1.2s1.2-2.5,2.5-2.5s2.5-3.7,3.7-6.2
		c1.2-2.5,2.5-2.5,2.5-6.2V452c2.5-1.2,3.7-3.7,6.2-4.9v-1.2c-1.2-1.2-1.2-1.2-1.2-1.2s-1.2,1.2-2.5,2.5l-2.5-1.2
		c-1.2-1.2-1.2-1.2,0-1.2s1.2-1.2,1.2,0s0,1.2,1.2,0c1.2-1.2,0-2.5,2.5-2.5c2.5,0,1.2,2.5,3.7,2.5c2.5,0,2.5-1.2,2.5-1.2
		s3.7-2.5,2.5-4.9c-1.2-2.5,1.2,0,1.2-2.5c0-2.5,1.2-1.2,2.5-2.5s3.7-3.7,2.5-7.4c2.5,0,3.7-2.5,6.2-4.9c2.5-2.5,3.7-2.5,2.5-6.2
		c1.2,0,1.2,1.2,3.7,1.2c-1.2-2.5-1.2-2.5-1.2-3.7h1.2c2.5-2.5,6.2-4.9,3.7-8.6l1.2-1.2h1.2l2.5-4.9c0,0-1.2,0-1.2-1.2l0,0l1.2,1.2
		c1.2,0,2.5,1.2,3.7,1.2s-1.2-2.5-1.2-3.7l3.7-1.2c-1.2-1.2-1.2-2.5-1.2-3.7c-2.5-4.9-3.7-9.9-4.9-16c0,0,0-1.2-1.2-1.2l0,0
		c0,1.2-1.2,2.5-2.5,3.7c-1.2-2.5,1.2-2.5,1.2-3.7c-1.2,0-2.5,0-3.7-1.2c-1.2,1.2-1.2,2.5-2.5,3.7h1.2c0,0,0-1.2,1.2-1.2l0,0
		c0,0,0,1.2-1.2,1.2c-1.2,1.2,1.2,1.2,1.2,3.7c0,2.5-1.2-1.2-2.5-1.2v1.2c1.2,1.2,1.2,1.2,0,1.2s0-1.2,0-1.2c-2.5,0-4.9,2.5-6.2,4.9
		c0,1.2-2.5,2.5-3.7,2.5c1.2,1.2,1.2,1.2,0,3.7c-1.2,1.2-1.2,2.5-2.5,3.7c-1.2,0-1.2,0-1.2-1.2c0,3.7-2.5,6.2-6.2,6.2
		c-1.2,0-1.2,1.2-2.5,2.5c1.2,1.2,0,3.7,0,4.9s1.2-2.5,2.5-1.2c-1.2,1.2-1.2,3.7-3.7,6.2c1.2-2.5-1.2-3.7-2.5-4.9
		c-1.2,1.2-1.2,2.5-1.2,3.7h-2.5v4.9c-4.9,1.2-6.2,2.5-6.2,3.7l0,0c0,1.2-1.2,2.5-2.5,3.7l-1.2-1.2c0,1.2-1.2,2.5-2.5,3.7
		c-1.2,1.2,1.2,0,1.2,1.2s-2.5,2.5-2.5,3.7c1.2-1.2,1.2-1.2,2.5,0l0,0v3.7h1.2l1.2,1.2l-1.2,1.2l-1.2-1.2v-1.2
		c-1.2,0-2.5,1.2-3.7,1.2c0,1.2-1.2,1.2-1.2,1.2c0-1.2,1.2-2.5,2.5-3.7c1.2,0,1.2-1.2,0-1.2s-2.5,1.2-3.7,2.5c0,1.2-1.2,1.2-1.2,1.2
		l0,0v3.7c1.2,0,1.2,0,1.2,1.2s-1.2,2.5-2.5,2.5c-1.2-1.2,2.5-2.5,1.2-3.7c-1.2-1.2-1.2,2.5-3.7,0c-1.2,1.2-1.2,1.2,0,3.7
		c1.2,2.5-1.2,1.2-1.2,2.5s0-1.2-1.2-1.2l-1.2,1.2c-1.2,2.5-2.5,4.9-4.9,7.4v1.2c1.2-1.2,2.5-1.2,2.5,1.2c1.2,0,1.2,0,1.2,1.2
		l2.5,1.2c-1.2,0-1.2,1.2-1.2,1.2l-1.2,1.2c0,0-1.2,0-1.2-1.2s-1.2-2.5,0-3.7c-1.2,0-1.2,1.2-2.5,3.7c-1.2-1.2-1.2-1.2-1.2-2.5
		c-1.2,1.2-1.2,2.5-2.5,2.5c1.2,1.2,2.5,0,3.7,1.2s-2.5,1.2-2.5,1.2c0,1.2,0,3.7,0,4.9c-1.2,0-1.2-1.2-2.5-1.2
		c-1.2,0-1.2,1.2-2.5,3.7c-1.2,2.5-3.7,4.9-2.5,7.4h2.5c-1.2,1.2-1.2,1.2-2.5,0s-1.2,0-2.5,1.2c-1.2,1.2-1.2,2.5-1.2,3.7
		c-3.7,0-4.9,0-6.2,4.9C221.5,488.9,221.5,488.9,221.5,490.1z M217.8,506.1v-3.7c1.2,1.2,2.5,2.5,3.7,4.9
		C219,507.4,219,504.9,217.8,506.1z M284.3,421.2L284.3,421.2C285.5,422.4,285.5,422.4,284.3,421.2L284.3,421.2z M289.2,406.4
		L289.2,406.4L289.2,406.4c-1.2-1.2,0-1.2,0-2.5C290.5,405.2,290.5,405.2,289.2,406.4L289.2,406.4L289.2,406.4z M296.6,406.4
		c-1.2,0-1.2-1.2-2.5-2.5c1.2,0,2.5,0,3.7,1.2C296.6,405.2,296.6,406.4,296.6,406.4L296.6,406.4z M296.6,402.7L296.6,402.7
		L296.6,402.7L296.6,402.7z M302.8,383c1.2,0,1.2-1.2,1.2-1.2s-1.2-1.2,0-1.2v-1.2c1.2,1.2,1.2,3.7,2.5,6.2c1.2,2.5-1.2,1.2-2.5,1.2
		s1.2,1.2,1.2,1.2s1.2-1.2,1.2,0c-1.2,1.2-1.2,0-1.2,0s-1.2,1.2-2.5,1.2V383z M299.1,389.2c2.5,1.2,4.9,0,8.6,1.2v1.2
		c-1.2,1.2-3.7,0-2.5,2.5c-2.5-1.2-4.9-2.5-7.4-2.5C297.8,390.4,299.1,390.4,299.1,389.2L299.1,389.2z M295.4,385.5
		c1.2,2.5,1.2,4.9,0,8.6C295.4,390.4,292.9,387.9,295.4,385.5L295.4,385.5z M297.8,392.8c1.2,1.2,1.2,1.2,1.2,1.2
		c-1.2,2.5-1.2,3.7-6.2,3.7C295.4,397.8,296.6,395.3,297.8,392.8L297.8,392.8z M292.9,407.6L292.9,407.6L292.9,407.6L292.9,407.6z
		 M291.7,390.4l-2.5,3.7C289.2,391.6,290.5,391.6,291.7,390.4L291.7,390.4z M289.2,395.3L289.2,395.3L289.2,395.3L289.2,395.3z
		 M288,399L288,399L288,399L288,399z M286.8,405.2v-1.2C288,405.2,288,405.2,286.8,405.2c0,1.2,0,2.5,0,3.7
		C285.5,407.6,285.5,407.6,286.8,405.2L286.8,405.2z M286.8,400.2L286.8,400.2L286.8,400.2L286.8,400.2z M285.5,403.9L285.5,403.9
		C284.3,405.2,284.3,403.9,285.5,403.9L285.5,403.9z M285.5,406.4L285.5,406.4L285.5,406.4L285.5,406.4z M285.5,415
		c-1.2,0-1.2-1.2-1.2-1.2C285.5,413.8,285.5,415,285.5,415L285.5,415z M278.1,402.7c2.5,0,3.7-2.5,6.2-2.5c1.2,1.2-1.2,2.5-1.2,3.7
		C279.4,405.2,279.4,405.2,278.1,402.7L278.1,402.7z M279.4,417.5L279.4,417.5v2.5C276.9,418.7,276.9,418.7,279.4,417.5L279.4,417.5
		z M276.9,426.1C276.9,426.1,278.1,426.1,276.9,426.1c1.2,1.2,0,1.2,0,1.2l0,0C276.9,427.3,275.7,427.3,276.9,426.1
		C275.7,427.3,275.7,427.3,276.9,426.1L276.9,426.1z M274.4,422.4C274.4,421.2,273.2,421.2,274.4,422.4
		C273.2,421.2,273.2,421.2,274.4,422.4L274.4,422.4z M272,412.5c1.2,1.2,1.2,2.5,0,3.7C269.5,415,269.5,415,272,412.5L272,412.5z
		 M268.3,418.7c1.2,1.2,1.2,1.2-1.2,2.5v-1.2L268.3,418.7z M260.9,429.8c1.2-2.5,1.2-3.7,3.7-3.7
		C262.1,428.6,262.1,428.6,260.9,429.8L260.9,429.8z M260.9,445.8L260.9,445.8C260.9,447,259.7,447,260.9,445.8L260.9,445.8z
		 M259.7,443.3c-1.2,1.2-1.2,1.2-3.7,0H259.7z M249.8,461.8L249.8,461.8L249.8,461.8L249.8,461.8z M253.5,452
		C253.5,452,254.7,452,253.5,452v1.2C252.3,453.2,252.3,453.2,253.5,452L253.5,452z M251.1,458.1c1.2,0,2.5,1.2,3.7,2.5
		C252.3,460.6,252.3,459.3,251.1,458.1L251.1,458.1z M249.8,455.7c-1.2-1.2-1.2-2.5-1.2-3.7C251.1,454.4,251.1,454.4,249.8,455.7
		L249.8,455.7z M249.8,445.8c0,2.5-1.2,2.5-2.5,3.7C246.1,448.3,247.4,448.3,249.8,445.8L249.8,445.8z M248.6,474.1
		C247.4,474.1,247.4,474.1,248.6,474.1L248.6,474.1z M242.4,461.8L242.4,461.8C240,463,240,461.8,242.4,461.8L242.4,461.8z
		 M238.7,480.3L238.7,480.3C237.5,481.5,237.5,480.3,238.7,480.3L238.7,480.3z M240,477.8L240,477.8L240,477.8L240,477.8z
		 M241.2,463c-1.2-1.2-2.5-1.2-2.5-1.2S238.7,463,241.2,463L241.2,463z M228.9,481.5L228.9,481.5L228.9,481.5L228.9,481.5z
		 M225.2,490.1C224,490.1,224,488.9,225.2,490.1l1.2-1.2C225.2,490.1,224,491.4,225.2,490.1L225.2,490.1z M226.4,504.9
		c-1.2-1.2-1.2-1.2-1.2-2.5c0-1.2,1.2-1.2,1.2,0C226.4,503.7,226.4,503.7,226.4,504.9L226.4,504.9z M221.5,486.4l2.5-3.7l1.2,1.2
		c0,0,1.2,0,1.2,1.2l0,0C222.7,485.2,222.7,487.7,221.5,486.4L221.5,486.4z"/>
	<path class="st0" d="M219,512.3c-1.2,2.5-2.5,3.7,0,4.9C220.3,514.8,220.3,514.8,219,512.3z"/>
	<path class="st0" d="M217.8,493.8L217.8,493.8C219,493.8,219,492.6,217.8,493.8L217.8,493.8v-3.7c0-1.2,0-1.2-1.2-1.2l-4.9,13.5
		c1.2-1.2,1.2-2.5,2.5-3.7C215.3,497.5,217.8,495.1,217.8,493.8z"/>
	<path class="st0" d="M304,424.9c0,1.2-1.2,0-1.2,1.2s0,2.5,1.2,2.5s0-1.2,1.2-1.2l1.2-1.2v-1.2C305.2,424.9,305.2,424.9,304,424.9z
		"/>
	<path class="st0" d="M430.8,229.1c-1.2-1.2-1.2-1.2-2.5,1.2c1.2,0,1.2,1.2,2.5,1.2V229.1z"/>
	<path class="st0" d="M312.6,416.2L312.6,416.2C313.9,416.2,313.9,416.2,312.6,416.2C313.9,416.2,312.6,416.2,312.6,416.2z"/>
	<path class="st0" d="M242.4,513.5c-1.2,0-1.2-1.2-1.2-2.5s-1.2,0-1.2,1.2s-1.2,2.5-1.2,3.7c0,2.5-1.2,6.2-2.5,8.6
		c-1.2,2.5-2.5,4.9,0,6.2c0-2.5,1.2-3.7,2.5-6.2L242.4,513.5z"/>
	<path class="st0" d="M243.7,513.5L243.7,513.5L243.7,513.5L243.7,513.5z"/>
	<path class="st0" d="M243.7,511.1l3.7-9.9l-1.2-1.2c-1.2,0-1.2,1.2-1.2,2.5l-2.5,1.2c1.2,1.2,1.2,3.7,0,6.2c-1.2,0-1.2-1.2-1.2,0
		s1.2,1.2,1.2,1.2L243.7,511.1z"/>
	<path class="st0" d="M246.1,497.5L246.1,497.5L246.1,497.5z"/>
	<path class="st0" d="M244.9,493.8L244.9,493.8C244.9,495.1,244.9,493.8,244.9,493.8L244.9,493.8z"/>
	<path class="st0" d="M241.2,507.4L241.2,507.4C242.4,506.1,241.2,507.4,241.2,507.4z"/>
	<path class="st0" d="M244.9,491.4v2.5h1.2l0,0C246.1,492.6,246.1,491.4,244.9,491.4z"/>
	<path class="st0" d="M241.2,501.2L241.2,501.2C242.4,502.4,242.4,501.2,241.2,501.2z"/>
	<path class="st0" d="M278.1,447L278.1,447L278.1,447z"/>
	<path class="st0" d="M248.6,495.1c0,1.2,1.2,1.2,1.2,2.5c1.2-1.2,1.2-2.5,0-3.7S249.8,493.8,248.6,495.1z"/>
	<path class="st0" d="M262.1,469.2C263.4,469.2,263.4,469.2,262.1,469.2C263.4,468,263.4,468,262.1,469.2
		C262.1,468,262.1,469.2,262.1,469.2z"/>
	<path class="st0" d="M253.5,490.1l-3.7,2.5C252.3,492.6,252.3,492.6,253.5,490.1z"/>
	<path class="st0" d="M256,477.8L256,477.8C256,479,256,479,256,477.8L256,477.8C256,477.8,256,476.6,256,477.8z"/>
	<path class="st0" d="M284.3,448.3L284.3,448.3L284.3,448.3L284.3,448.3z"/>
	<path class="st0" d="M291.7,426.1L291.7,426.1C291.7,427.3,291.7,426.1,291.7,426.1z"/>
	<path class="st0" d="M290.5,423.6L290.5,423.6C289.2,424.9,290.5,424.9,290.5,423.6L290.5,423.6L290.5,423.6z"/>
	<path class="st0" d="M285.5,429.8c0,1.2,1.2,1.2,1.2,1.2S288,429.8,285.5,429.8z"/>
	<path class="st0" d="M284.3,435.9c1.2-1.2,1.2-1.2,1.2-1.2h-1.2V435.9z"/>
	<path class="st0" d="M288,428.6c0,1.2,0,1.2,1.2,1.2s1.2,0,1.2-1.2H288z"/>
	<path class="st0" d="M304,411.3c1.2,0,1.2-1.2,1.2-2.5S302.8,410.1,304,411.3z"/>
	<path class="st0" d="M295.4,421.2L295.4,421.2C295.4,422.4,296.6,422.4,295.4,421.2L295.4,421.2z"/>
	<path class="st0" d="M291.7,426.1c1.2,0,1.2,0,1.2-1.2S291.7,426.1,291.7,426.1z"/>
	<path class="st0" d="M300.3,416.2C300.3,416.2,299.1,416.2,300.3,416.2v1.2C300.3,417.5,300.3,417.5,300.3,416.2
		C300.3,417.5,300.3,417.5,300.3,416.2L300.3,416.2L300.3,416.2z"/>
	<path class="st0" d="M288,427.3C288,428.6,288,428.6,288,427.3L288,427.3C288,428.6,288,427.3,288,427.3L288,427.3z"/>
	<path class="st0" d="M345.9,206.9c0,1.2,0,1.2,1.2,2.5C348.3,206.9,347.1,206.9,345.9,206.9z"/>
	<path class="st0" d="M343.4,204.4c1.2,1.2,1.2,1.2,2.5,1.2C345.9,204.4,345.9,204.4,343.4,204.4z"/>
	<path class="st0" d="M345.9,186c0-1.2,0-1.2-1.2-1.2S344.6,186,345.9,186z"/>
	<path class="st0" d="M305.2,407.6c1.2-1.2,1.2-1.2,1.2-1.2S305.2,406.4,305.2,407.6z"/>
	<path class="st0" d="M312.6,188.4L312.6,188.4C312.6,189.6,312.6,189.6,312.6,188.4z"/>
	<path class="st0" d="M446.9,211.8L446.9,211.8c1.2-1.2,1.2-1.2,0-1.2C446.9,210.6,445.6,210.6,446.9,211.8L446.9,211.8z"/>
	<path class="st0" d="M215.3,523.4h-1.2H215.3z"/>
	<path class="st0" d="M214.1,524.6C214.1,524.6,212.9,524.6,214.1,524.6C212.9,525.8,214.1,525.8,214.1,524.6z"/>
	<path class="st0" d="M212.9,556.6c-1.2,0-1.2,1.2,0,1.2S214.1,559.1,212.9,556.6C214.1,557.9,212.9,556.6,212.9,556.6z"/>
	<path class="st0" d="M212.9,520.9c-1.2,0-1.2,1.2-1.2,1.2h1.2C214.1,522.2,214.1,520.9,212.9,520.9z"/>
	<path class="st0" d="M313.9,208.1L313.9,208.1C315.1,209.4,315.1,208.1,313.9,208.1z"/>
	<path class="st0" d="M337.3,225.4l2.5,3.7c0-1.2,0-1.2,1.2-1.2c0,1.2,0,1.2-1.2,2.5c-1.2,1.2-1.2,1.2-1.2,3.7c0,2.5,0,3.7-1.2,6.2
		c0,1.2,0,1.2,1.2,1.2s1.2-2.5,2.5-2.5s1.2,1.2,3.7,1.2c2.5,0-1.2-1.2-1.2-3.7c1.2,0,2.5,1.2,3.7,2.5c0,1.2-1.2,1.2-1.2,1.2l0,0
		c0,1.2,0,1.2-1.2,1.2l-3.7,2.5v11.1c1.2,1.2,1.2,0,3.7,0c2.5,0-1.2-1.2-1.2-2.5l3.7-1.2c1.2,0,1.2,1.2,1.2,1.2h-2.5
		c2.5,3.7,2.5,3.7,4.9,3.7v-1.2c1.2,1.2,1.2,1.2,0,1.2c0,1.2,0,2.5,0,3.7h3.7c2.5-2.5,0-6.2,0-8.6s-1.2-1.2-2.5-1.2v1.2
		c-1.2,0-1.2-1.2-1.2-1.2s-2.5-1.2-2.5-2.5c1.2,1.2,1.2,1.2,2.5,2.5h1.2v-2.5c-2.5-2.5-2.5-7.4,0-9.9c0,3.7,0,6.2,0,9.9
		c1.2-1.2,2.5,1.2,4.9,1.2l-2.5-3.7c-1.2-1.2-1.2-2.5-1.2-3.7c1.2-2.5,0-6.2-1.2-8.6h2.5c-2.5-1.2-1.2-3.7-1.2-6.2l-1.2-1.2
		c-1.2,1.2,0,1.2-1.2,2.5c-1.2,1.2-1.2-1.2-1.2-1.2s0,3.7-2.5,3.7c-2.5,0-1.2-1.2-1.2-3.7h-1.2c1.2-1.2-1.2-2.5,0-3.7
		s-1.2-1.2-2.5-1.2C338.5,222.9,337.3,224.1,337.3,225.4L337.3,225.4z M342.2,248.8L342.2,248.8l3.7-2.5
		C345.9,248.8,344.6,248.8,342.2,248.8z M347.1,245.1L347.1,245.1L347.1,245.1L347.1,245.1z M344.6,232.8L344.6,232.8L344.6,232.8
		L344.6,232.8z"/>
	<path class="st0" d="M332.3,210.6c-1.2,3.7-2.5,4.9,0,7.4C333.6,215.5,334.8,214.3,332.3,210.6z"/>
	<path class="st0" d="M338.5,215.5c-1.2,2.5,0,4.9,0,7.4c2.5-1.2,1.2-3.7,2.5-4.9c1.2-1.2,1.2,1.2,1.2,1.2s0,3.7,0,6.2
		c1.2,0,2.5-1.2,3.7-1.2l3.7-3.7c-1.2-1.2-2.5,0-3.7-1.2c1.2-1.2,2.5-2.5,2.5-4.9c-1.2-1.2,0-2.5,1.2-3.7c-2.5,0-4.9,0-6.2,0
		c1.2,1.2-1.2,3.7,0,6.2c-2.5-1.2-4.9-2.5-4.9-3.7c0-1.2,1.2-1.2,1.2-1.2s-1.2-1.2-1.2-3.7s-1.2,1.2-1.2,1.2v1.2H336
		C337.3,211.8,338.5,213,338.5,215.5z"/>
	<path class="st0" d="M334.8,178.6c-1.2,1.2-1.2,2.5,1.2,3.7C336,179.8,336,179.8,334.8,178.6z"/>
	<path class="st0" d="M336,181c0,1.2,1.2,2.5,1.2,3.7C338.5,182.3,337.3,182.3,336,181z"/>
	<path class="st0" d="M332.3,221.7h1.2H332.3z"/>
	<path class="st0" d="M322.5,181L322.5,181C321.2,181,321.2,182.3,322.5,181z"/>
	<path class="st0" d="M322.5,253.7L322.5,253.7C321.2,254.9,322.5,254.9,322.5,253.7z"/>
	<path class="st0" d="M326.2,197c1.2,2.5,1.2,4.9,1.2,6.2c0,2.5,0,4.9,0,7.4s1.2,4.9,0,7.4c1.2,1.2,1.2,4.9,1.2,6.2s0,6.2,0,8.6
		s0,4.9,1.2,6.2c1.2,1.2,0,4.9,0,7.4s0,6.2,0,7.4s0,4.9,1.2,7.4c2.5-3.7,0-7.4,2.5-11.1c0-2.5,0-6.2,0-8.6h-2.5
		c0,1.2,1.2,2.5,1.2,3.7c-1.2-1.2-1.2-1.2-1.2-3.7s2.5-2.5,2.5-3.7c0-4.9,0-8.6,0-13.5c-1.2,0-2.5,2.5-3.7,1.2c0-2.5,0-4.9,0-7.4
		c-1.2-2.5-1.2-4.9,0-7.4v-1.2c-2.5-3.7-1.2-6.2-2.5-9.9c0-1.2,1.2-1.2,1.2-1.2c1.2,1.2,2.5,1.2,3.7,1.2c0-1.2,0-3.7,0-3.7
		s-2.5,1.2-3.7,1.2c-1.2,0-2.5-3.7-1.2-6.2s0-1.2,0-2.5s0-2.5,0-3.7c0-1.2,1.2,0,1.2-1.2c0-1.2,0-1.2,1.2-2.5c0-1.2-1.2-1.2,0-2.5
		c1.2-1.2,0-1.2-1.2-1.2s1.2,3.7-1.2,6.2c-1.2-1.2-1.2-1.2-1.2-1.2c-1.2,2.5,0,4.9,0,6.2C324.9,192.1,326.2,194.6,326.2,197z
		 M332.3,231.5c1.2,1.2,0,2.5,0,3.7C331.1,232.8,331.1,231.5,332.3,231.5L332.3,231.5z M332.3,235.2c0,1.2,1.2,2.5,0,3.7
		C332.3,237.7,331.1,236.4,332.3,235.2L332.3,235.2z"/>
	<path class="st0" d="M320,174.9c0-1.2,0-1.2-1.2-1.2S320,174.9,320,174.9z"/>
	<path class="st0" d="M448.1,208.1L448.1,208.1C448.1,208.1,448.1,209.4,448.1,208.1z"/>
	<path class="st0" d="M449.3,182.3L449.3,182.3C449.3,182.3,450.6,182.3,449.3,182.3z"/>
	<path class="st0" d="M454.2,178.6c-1.2,1.2-2.5,1.2-3.7,2.5C453,181,454.2,179.8,454.2,178.6z"/>
	<path class="st0" d="M321.2,176.1C321.2,176.1,321.2,174.9,321.2,176.1L321.2,176.1C320,176.1,320,176.1,321.2,176.1z"/>
	<path class="st0" d="M318.8,169.9c-1.2,1.2-1.2,2.5,1.2,3.7S318.8,171.2,318.8,169.9z"/>
	<path class="st0" d="M322.5,245.1c-1.2,0-1.2,1.2,0,1.2V245.1z"/>
	<path class="st0" d="M235,522.2c1.2-2.5,1.2-2.5-1.2-2.5C233.8,520.9,235,522.2,235,522.2z"/>
	<path class="st0" d="M235,518.5C235,518.5,236.3,518.5,235,518.5L235,518.5C235,517.2,235,518.5,235,518.5L235,518.5z"/>
	<polygon class="st0" points="238.7,511.1 238.7,509.8 237.5,509.8 	"/>
	<path class="st0" d="M236.3,517.2c1.2-2.5,2.5-3.7,2.5-6.2C236.3,512.3,235,514.8,236.3,517.2z"/>
	<path class="st0" d="M225.2,540.6c4.9-1.2,6.2-2.5,6.2-7.4c-1.2,1.2-1.2,2.5-2.5,3.7c-1.2,1.2,0,2.5-2.5,2.5
		c-2.5,0-1.2-1.2-1.2-1.2c-1.2,2.5-2.5,4.9-2.5,7.4h3.7c0-1.2,1.2-2.5,2.5-3.7C230.1,540.6,227.7,541.9,225.2,540.6z"/>
	<path class="st0" d="M231.3,540.6C231.3,540.6,231.3,539.4,231.3,540.6C231.3,539.4,232.6,539.4,231.3,540.6
		C231.3,539.4,231.3,539.4,231.3,540.6L231.3,540.6z"/>
	<path class="st0" d="M235,524.6L235,524.6L235,524.6L235,524.6L235,524.6z"/>
	<path class="st0" d="M231.3,540.6L231.3,540.6L231.3,540.6z"/>
	<path class="st0" d="M413.6,246.3c2.5,0,2.5-1.2,3.7-2.5C416.1,243.8,414.8,243.8,413.6,246.3z"/>
	<path class="st0" d="M402.5,263.5C401.3,263.5,401.3,263.5,402.5,263.5C401.3,264.8,401.3,264.8,402.5,263.5
		C401.3,264.8,402.5,264.8,402.5,263.5L402.5,263.5z"/>
	<path class="st0" d="M402.5,261.1L402.5,261.1C402.5,259.8,402.5,259.8,402.5,261.1L402.5,261.1z"/>
	<path class="st0" d="M411.1,250L411.1,250L411.1,250L411.1,250z"/>
	<path class="st0" d="M423.5,237.7L423.5,237.7C423.5,236.4,422.2,236.4,423.5,237.7z"/>
	<path class="st0" d="M338.5,190.9C338.5,190.9,338.5,192.1,338.5,190.9L338.5,190.9z"/>
	<path class="st0" d="M339.7,197c-1.2,0-1.2,1.2-1.2,1.2C339.7,198.3,339.7,198.3,339.7,197L339.7,197z"/>
	<path class="st0" d="M343.4,184.7c0-1.2,0-1.2-1.2-1.2C342.2,183.5,342.2,184.7,343.4,184.7z"/>
	<path class="st0" d="M421,237.7c-1.2,2.5-2.5,3.7-3.7,6.2h1.2C419.8,241.4,422.2,240.1,421,237.7z"/>
	<path class="st0" d="M345.9,226.6c2.5,0,3.7,0,6.2,0c-1.2-2.5-2.5-2.5-6.2-2.5l3.7,2.5C348.3,226.6,348.3,225.4,345.9,226.6z"/>
	<path class="st0" d="M230.1,530.8c1.2,0,2.5,0,2.5,1.2c2.5-1.2,1.2-3.7,1.2-6.2C231.3,525.8,233.8,529.5,230.1,530.8z"/>
	<path class="st0" d="M445.6,188.4L445.6,188.4c1.2-1.2,1.2-1.2,0-1.2V188.4C444.4,187.2,445.6,187.2,445.6,188.4z"/>
	<path class="st0" d="M343.4,190.9L343.4,190.9l-1.2-1.2C342.2,190.9,343.4,190.9,343.4,190.9z"/>
	<path class="st0" d="M432.1,226.6c-1.2,1.2-1.2,2.5-1.2,3.7S432.1,227.8,432.1,226.6z"/>
	<polygon class="st0" points="457.9,220.4 459.2,219.2 457.9,219.2 456.7,219.2 456.7,219.2 	"/>
	<path class="st0" d="M449.3,211.8L449.3,211.8L449.3,211.8C450.6,211.8,449.3,211.8,449.3,211.8L449.3,211.8z"/>
	<path class="st0" d="M374.2,312.8c1.2,0,1.2,1.2,1.2,1.2s0,0,0-1.2C375.4,311.6,375.4,312.8,374.2,312.8s-1.2-4.9,1.2-4.9
		c2.5,0,1.2,1.2,1.2,2.5l0,0c2.5-1.2,3.7-2.5,6.2-3.7c1.2-4.9,4.9-8.6,8.6-12.3c1.2-1.2,1.2-1.2,1.2-2.5c1.2-1.2,1.2-2.5,2.5-3.7
		h-1.2c0,0-1.2,0-1.2-1.2l0,0l1.2-1.2c0,0,1.2,0,1.2,1.2l0,0v1.2l2.5-2.5c-2.5-1.2-2.5-1.2-6.2,0v4.9c-1.2,0-1.2,1.2-1.2,1.2
		c-1.2,0-1.2,1.2-2.5,0s-2.5,0-2.5,2.5c1.2,0,1.2,1.2,0,1.2c-1.2,0-1.2-1.2-3.7-1.2c0,1.2-1.2,2.5-1.2,3.7c-1.2-1.2-1.2-1.2-1.2-2.5
		s1.2,1.2,2.5,0s-2.5-1.2-2.5-2.5s1.2-1.2,1.2-1.2s1.2,1.2,2.5,1.2s2.5-2.5,3.7-2.5c1.2,0-1.2-1.2-1.2-2.5c3.7,1.2,3.7-2.5,4.9-3.7
		c1.2-1.2,1.2-3.7,0-4.9c2.5,1.2,2.5,1.2,4.9,2.5v-2.5c1.2-1.2,1.2-1.2,2.5-1.2s1.2-1.2,2.5-3.7c1.2-2.5,1.2,1.2,2.5,1.2
		c-1.2,2.5-2.5,2.5-4.9,2.5c1.2,1.2,3.7,1.2,4.9,1.2s-2.5,1.2-2.5,3.7c2.5-1.2,3.7-2.5,3.7-6.2c1.2-1.2,1.2,0,3.7,0
		c1.2-2.5,1.2-3.7,2.5-6.2c1.2-2.5-2.5-1.2-1.2-3.7c1.2-2.5,1.2,0,2.5,0c2.5-1.2,3.7-2.5,6.2-3.7c3.7-2.5,4.9-6.2,3.7-9.9l2.5-1.2
		c-1.2-2.5,0-4.9,1.2-6.2c-1.2,0-2.5,0-2.5,0l-1.2,1.2c-1.2,0-1.2-1.2-1.2-1.2s2.5-1.2,3.7-2.5c1.2,1.2,2.5,1.2,2.5,3.7
		c2.5,0,1.2-2.5,1.2-3.7s3.7,0,4.9-1.2c-2.5-1.2,2.5-2.5,0-4.9l3.7-1.2c0,0,0,1.2,1.2,1.2s1.2-2.5,2.5-2.5s1.2,1.2,1.2,1.2h1.2
		c-1.2,1.2,0,2.5-2.5,3.7s-1.2-2.5-1.2-1.2s1.2,1.2,0,3.7c-1.2,0-1.2,0-1.2,1.2l1.2,2.5c-2.5-1.2-4.9-1.2-4.9,0s1.2,1.2,1.2,1.2
		s0,1.2,1.2,2.5c1.2,1.2,1.2-2.5,2.5-3.7s1.2-2.5,2.5-4.9s2.5,1.2,4.9,1.2c0-1.2-1.2-1.2-1.2-1.2l2.5-1.2v-1.2h2.5
		c-1.2-1.2,1.2-2.5-1.2-3.7s-2.5-1.2-3.7-3.7c-1.2-2.5-1.2,2.5-2.5,2.5s0-2.5,0-2.5c0-2.5,2.5-2.5,2.5-3.7c2.5,0,2.5-2.5,2.5-2.5
		s1.2,1.2,3.7,1.2v-3.7h-2.5c2.5-3.7,3.7-7.4,3.7-11.1c-1.2-1.2-1.2,2.5-3.7,2.5c-2.5,0-1.2-1.2-1.2-1.2c-2.5,3.7-6.2,6.2-9.9,9.9
		c0,1.2-1.2,1.2-1.2,2.5c1.2,0,2.5-2.5,4.9-1.2c0-3.7,0-3.7,2.5-3.7c0-1.2,1.2-2.5,2.5-3.7c0,2.5-1.2,3.7-2.5,3.7
		c0,3.7,0,3.7,2.5,3.7c0-1.2,1.2-1.2,2.5-1.2c0-1.2,0-2.5-1.2-3.7c1.2,0,2.5,1.2,2.5,1.2s0,2.5-1.2,2.5c0,1.2-1.2,1.2-2.5,1.2v2.5
		c-1.2,1.2-1.2,0-1.2,0c0,1.2-1.2,2.5-3.7,2.5l0,0c0-1.2,1.2-2.5,3.7-2.5c0-2.5-1.2-1.2-3.7-1.2c-2.5,0-1.2,3.7-3.7,6.2v1.2
		c1.2,1.2,0,2.5-1.2,3.7c-1.2-1.2,0-2.5-1.2-3.7v4.9c-1.2-1.2-2.5-2.5-3.7-3.7c1.2,0,1.2-1.2,1.2-2.5l-6.2,4.9v1.2
		c1.2,0,1.2-1.2,3.7-1.2c2.5,0-1.2,1.2-2.5,3.7c-2.5,0-2.5,2.5-2.5,6.2h-2.5c0,1.2-2.5,2.5-3.7,2.5c-1.2,0-2.5,0-2.5,1.2
		c1.2,2.5-1.2,3.7-2.5,4.9l-1.2-1.2c0,1.2-1.2,2.5-2.5,3.7c2.5,0,3.7,1.2,4.9,2.5s0-4.9,2.5-6.2s1.2,1.2,2.5,1.2l2.5,1.2
		c-1.2,1.2-1.2,1.2-2.5,1.2c-1.2,0-3.7,0-4.9,0v4.9c-1.2,0-2.5,2.5-4.9,1.2c0-2.5,2.5-3.7,2.5-4.9c-2.5-1.2-2.5,2.5-3.7,2.5
		l-1.2-1.2v2.5c1.2,1.2,0,1.2,0,1.2c1.2,1.2,1.2,3.7,1.2,4.9c-1.2,0-2.5,0-3.7,0V266l-1.2-1.2c-2.5,2.5-6.2,6.2-8.6,9.9h2.5
		c0,1.2-1.2,1.2-2.5,1.2c0,0-1.2,0-1.2-1.2l0,0c-1.2,2.5-4.9,2.5-6.2,6.2c-1.2,2.5-3.7,3.7-6.2,4.9c-1.2,1.2-1.2,2.5,0,3.7l0,0
		l-1.2,1.2l-1.2-1.2l-2.5,2.5c1.2,0,1.2,1.2,1.2,1.2l-1.2-1.2c-1.2,1.2-1.2,1.2,0,3.7c-2.5,0-1.2,2.5-3.7,2.5v-3.7
		c-2.5,1.2-3.7,3.7-3.7,7.4v1.2c1.2,1.2,1.2,3.7,0,6.2c1.2,0,2.5-1.2,2.5-2.5s1.2-3.7,1.2-3.7l4.9-2.5c1.2,1.2,1.2,2.5,3.7,3.7
		c-1.2,1.2-3.7,1.2-3.7,2.5s1.2,1.2,1.2,2.5c-1.2-1.2-1.2-1.2-1.2-2.5l-3.7,4.9c-1.2,0-2.5,0-3.7,0c-1.2,1.2-1.2,3.7-1.2,4.9
		c-1.2,1.2-1.2,0-1.2,1.2l3.7,2.5C371.7,317.7,373,315.3,374.2,312.8z M381.6,301.7L381.6,301.7
		C382.8,301.7,381.6,302.9,381.6,301.7C381.6,302.9,380.4,302.9,381.6,301.7L381.6,301.7z M427.2,240.1l-2.5,3.7
		c-1.2-1.2-1.2-1.2-1.2-2.5C424.7,240.1,425.9,240.1,427.2,240.1L427.2,240.1z M414.8,248.8L414.8,248.8
		C414.8,250,414.8,250,414.8,248.8L414.8,248.8z M417.3,258.6c1.2,1.2,1.2,1.2-1.2,4.9c-1.2,0-1.2-1.2-2.5-1.2
		C414.8,261.1,416.1,259.8,417.3,258.6L417.3,258.6z M413.6,264.8L413.6,264.8C412.4,264.8,412.4,264.8,413.6,264.8L413.6,264.8z
		 M405,268.5L405,268.5C403.8,268.5,403.8,268.5,405,268.5L405,268.5z M403.8,270.9c1.2,1.2,0,1.2,0,2.5c0,1.2,1.2,1.2,1.2,1.2
		c-1.2,1.2-1.2,1.2-1.2,0v1.2v-1.2v-1.2h-1.2C402.5,272.2,402.5,270.9,403.8,270.9L403.8,270.9z M400.1,272.2
		c-1.2,1.2-2.5,1.2-3.7,2.5c-1.2-2.5,1.2-2.5,1.2-6.2C401.3,269.7,400.1,270.9,400.1,272.2L400.1,272.2z M397.6,268.5
		C396.4,269.7,396.4,268.5,397.6,268.5L397.6,268.5z M392.7,277.1L392.7,277.1C393.9,277.1,392.7,277.1,392.7,277.1
		S391.4,277.1,392.7,277.1L392.7,277.1z M386.5,279.5L386.5,279.5L386.5,279.5L386.5,279.5z M387.7,283.2c1.2,1.2,1.2,1.2-2.5,2.5
		C384.1,284.5,386.5,283.2,387.7,283.2L387.7,283.2z M384.1,283.2c0,1.2,0,1.2-1.2,1.2S382.8,283.2,384.1,283.2L384.1,283.2z
		 M384.1,286.9c0,2.5,1.2,3.7-1.2,6.2c-1.2-1.2-1.2-1.2-1.2-2.5S381.6,286.9,384.1,286.9L384.1,286.9z M369.3,302.9L369.3,302.9
		L369.3,302.9L369.3,302.9z M373,299.3c0,1.2-1.2,1.2-1.2,1.2C370.5,299.3,371.7,299.3,373,299.3l2.5-2.5
		C374.2,299.3,374.2,299.3,373,299.3L373,299.3z"/>
	<path class="st0" d="M444.4,231.5L444.4,231.5c1.2,1.2,1.2,1.2,1.2,0C446.9,231.5,445.6,231.5,444.4,231.5L444.4,231.5
		C445.6,231.5,444.4,231.5,444.4,231.5z"/>
	<path class="st0" d="M354.5,267.2L354.5,267.2C355.7,268.5,355.7,268.5,354.5,267.2c1.2,1.2,1.2,1.2,1.2,0l0,0
		C355.7,266,354.5,266,354.5,267.2z"/>
	<path class="st0" d="M449.3,227.8c1.2-1.2,1.2-1.2,0-1.2h-1.2C448.1,227.8,448.1,227.8,449.3,227.8z"/>
	<path class="st0" d="M450.6,218c0,2.5-1.2,3.7,0,6.2C451.8,221.7,451.8,220.4,450.6,218c2.5,0,2.5,0,3.7,0s1.2,0,2.5,0
		c0-3.7-2.5-6.2-4.9-8.6c-1.2,1.2-1.2,2.5-2.5,2.5C449.3,214.3,450.6,216.7,450.6,218z"/>
	<path class="st0" d="M433.3,224.1c-1.2,0-1.2,1.2-1.2,1.2S433.3,225.4,433.3,224.1z"/>
	<path class="st0" d="M443.2,231.5L443.2,231.5h-1.2v1.2L443.2,231.5L443.2,231.5C443.2,231.5,444.4,231.5,443.2,231.5z"/>
	<path class="st0" d="M227.7,475.4L227.7,475.4C226.4,475.4,227.7,475.4,227.7,475.4L227.7,475.4z"/>
	<path class="st0" d="M254.7,468v1.2C256,468,256,468,254.7,468z"/>
	<path class="st0" d="M249.8,438.4L249.8,438.4L249.8,438.4z"/>
	<path class="st0" d="M296.6,379.3C296.6,379.3,296.6,380.5,296.6,379.3L296.6,379.3L296.6,379.3L296.6,379.3z"/>
	<path class="st0" d="M248.6,439.6v-1.2V439.6L248.6,439.6z"/>
	<path class="st0" d="M249.8,438.4L249.8,438.4C251.1,437.2,249.8,437.2,249.8,438.4z"/>
	<path class="st0" d="M242.4,493.8C242.4,493.8,242.4,492.6,242.4,493.8L242.4,493.8C241.2,493.8,241.2,493.8,242.4,493.8
		L242.4,493.8z"/>
	<path class="st0" d="M465.3,167.5L465.3,167.5C465.3,168.7,465.3,168.7,465.3,167.5z"/>
	<path class="st0" d="M474,187.2c1.2,0,1.2,0,2.5,1.2c1.2,1.2,1.2,1.2,3.7,1.2c2.5,0-2.5-1.2-2.5-2.5c1.2,0,2.5,0,4.9,0
		c1.2,0,3.7,1.2,4.9,0l-1.2-1.2c-1.2,0-2.5,0-2.5-1.2c1.2-1.2,3.7,0,4.9-1.2c0-6.2,1.2-6.2-4.9-9.9c-1.2,1.2-1.2,3.7-2.5,2.5
		c-1.2-1.2-2.5,3.7-4.9,4.9l-4.9,4.9C471.5,186,474,186,474,187.2z M481.3,178.6v3.7c-1.2,1.2-2.5,3.7-6.2,3.7
		C475.2,182.3,478.9,181,481.3,178.6L481.3,178.6z"/>
	<polygon class="st0" points="476.4,157.6 476.4,157.6 477.6,157.6 	"/>
	<path class="st0" d="M487.5,171.2c0-1.2-1.2-1.2-1.2-2.5s-1.2,1.2-1.2,2.5C485,172.4,487.5,171.2,487.5,171.2z"/>
	<path class="st0" d="M488.7,166.3c-1.2,1.2-1.2,1.2-1.2,2.5C487.5,169.9,488.7,167.5,488.7,166.3z"/>
	<path class="st0" d="M238.7,454.4c-1.2,0-1.2,1.2-1.2,1.2S238.7,455.7,238.7,454.4z"/>
	<path class="st0" d="M228.9,530.8c-1.2-1.2-1.2-1.2-1.2-1.2v2.5C227.7,532,227.7,530.8,228.9,530.8z"/>
	<path class="st0" d="M474,160.1c-2.5,1.2-4.9,3.7-6.2,6.2c1.2,0,2.5-1.2,3.7-2.5C472.7,162.6,475.2,162.6,474,160.1z"/>
	<path class="st0" d="M491.2,163.8C490,163.8,490,163.8,491.2,163.8C490,165,491.2,163.8,491.2,163.8L491.2,163.8z"/>
	<path class="st0" d="M491.2,186C491.2,184.7,491.2,184.7,491.2,186c-1.2,0-1.2,2.5-1.2,3.7L491.2,186z"/>
	<path class="st0" d="M481.3,199.5L481.3,199.5C481.3,198.3,481.3,199.5,481.3,199.5L481.3,199.5z"/>
	<path class="st0" d="M490,193.3v1.2C491.2,194.6,491.2,193.3,490,193.3z"/>
	<path class="st0" d="M486.3,195.8c-1.2,1.2-2.5,1.2-3.7,2.5c1.2,1.2,2.5-1.2,4.9,0c0,1.2,0,3.7,1.2,3.7s1.2,0,1.2-1.2
		c-1.2,0-1.2,0-1.2-1.2c1.2-1.2,2.5-2.5,2.5-4.9C488.7,194.6,488.7,197,486.3,195.8z"/>
	<path class="st0" d="M471.5,186L471.5,186L471.5,186z"/>
	<path class="st0" d="M455.5,204.4c-1.2-1.2-1.2-1.2-1.2-2.5c-1.2,1.2-1.2,2.5-1.2,3.7c1.2,0,1.2,0,1.2,1.2c0,1.2-1.2,1.2,0,2.5
		c0,1.2,1.2,1.2,1.2,1.2l0,0l2.5-2.5c-1.2-1.2-2.5-1.2-2.5-1.2c1.2,0,2.5,0,3.7,0c1.2,1.2,2.5,1.2,3.7,1.2c0-1.2,1.2-1.2,1.2-2.5
		c-1.2-1.2-1.2-1.2-2.5-1.2h-2.5c-1.2,0-1.2-1.2-1.2-1.2l2.5-1.2c-2.5-3.7-1.2-4.9,2.5-6.2c1.2,1.2-1.2,2.5-2.5,3.7v1.2
		c1.2,1.2,1.2-1.2,2.5,0c1.2,1.2,0,1.2,1.2,1.2s1.2-1.2,1.2-1.2s1.2,1.2,1.2,2.5c1.2-1.2,1.2-2.5,2.5-3.7h1.2
		c1.2,1.2-1.2,2.5,1.2,3.7s2.5-1.2,2.5-2.5c0-1.2-1.2-1.2-3.7-3.7c1.2,0,2.5,0,2.5-1.2s-1.2-1.2-1.2-2.5s-1.2,0-1.2,1.2
		s-1.2,1.2-2.5,2.5c0-2.5,2.5-2.5,2.5-4.9s3.7,0,4.9-2.5c-1.2-1.2-3.7,0-4.9-2.5c-1.2-2.5-1.2,0-1.2,1.2c0,1.2-2.5,2.5-3.7,3.7
		c-1.2,1.2,1.2,0,3.7,0c2.5,0-2.5,1.2-1.2,3.7c-1.2-1.2-2.5-1.2-2.5-3.7c-2.5,2.5-4.9,4.9-6.2,7.4c-1.2,1.2,1.2,1.2,1.2,2.5h-2.5
		C455.5,203.2,455.5,204.4,455.5,204.4z M467.8,190.9L467.8,190.9L467.8,190.9C469,190.9,469,192.1,467.8,190.9
		C467.8,192.1,467.8,192.1,467.8,190.9C467.8,192.1,467.8,190.9,467.8,190.9z M466.6,198.3L466.6,198.3c-1.2,1.2-1.2,0-1.2,0l0,0
		H466.6z"/>
	<path class="st0" d="M221.5,509.8c0,1.2,1.2,1.2,2.5,2.5c0-1.2,1.2-2.5,1.2-3.7s-1.2-1.2-1.2-1.2
		C222.7,509.8,222.7,511.1,221.5,509.8z"/>
	<path class="st0" d="M467.8,166.3L467.8,166.3C467.8,167.5,467.8,167.5,467.8,166.3z"/>
	<path class="st0" d="M226.4,535.7V532C225.2,534.5,225.2,534.5,226.4,535.7z"/>
	<path class="st0" d="M222.7,519.7c-1.2,0-2.5,0-2.5,1.2c-1.2,1.2-1.2,1.2-2.5,1.2c1.2,2.5,2.5,1.2,3.7,1.2S222.7,522.2,222.7,519.7
		z"/>
	<polygon class="st0" points="454.2,202 455.5,202 455.5,202 	"/>
	<path class="st0" d="M466.6,167.5C466.6,167.5,465.3,167.5,466.6,167.5C465.3,167.5,465.3,167.5,466.6,167.5L466.6,167.5z"/>
	<path class="st0" d="M459.2,174.9C460.4,174.9,460.4,173.6,459.2,174.9L459.2,174.9C457.9,174.9,457.9,174.9,459.2,174.9
		L459.2,174.9L459.2,174.9z"/>
	<path class="st0" d="M464.1,169.9c-1.2,1.2-1.2,1.2-2.5,2.5C464.1,171.2,464.1,169.9,464.1,169.9z"/>
	<path class="st0" d="M465.3,168.7L465.3,168.7C465.3,169.9,465.3,169.9,465.3,168.7z"/>
	<path class="st0" d="M358.2,378.1L358.2,378.1c-1.2-1.2-1.2-1.2-1.2-1.2L358.2,378.1L358.2,378.1z"/>
	<path class="st0" d="M306.5,184.7c0,1.2,0,1.2,1.2,2.5C307.7,186,306.5,184.7,306.5,184.7z"/>
	<path class="st0" d="M308.9,190.9c-1.2-1.2,0-3.7-1.2-3.7C307.7,188.4,306.5,189.6,308.9,190.9z"/>
	<path class="st0" d="M355.7,261.1L355.7,261.1c1.2-1.2,1.2-1.2,0-1.2V261.1C354.5,261.1,355.7,261.1,355.7,261.1z"/>
	<path class="st0" d="M308.9,195.8L308.9,195.8C307.7,195.8,308.9,197,308.9,195.8z"/>
	<path class="st0" d="M304,298c-1.2,1.2-1.2,1.2,0,1.2V298z"/>
	<path class="st0" d="M349.6,200.7L349.6,200.7C350.8,202,350.8,200.7,349.6,200.7z"/>
	<path class="st0" d="M357,218c1.2-1.2,1.2-1.2,1.2-1.2s0-6.2,0-8.6c0-2.5-1.2-1.2-1.2-1.2s-2.5,3.7,0,6.2S354.5,216.7,357,218z"/>
	<path class="st0" d="M339.7,289.4v1.2C339.7,290.6,340.9,290.6,339.7,289.4z"/>
	<path class="st0" d="M232.6,464.3c-1.2,1.2-1.2,1.2-1.2,1.2S232.6,465.5,232.6,464.3z"/>
	<path class="st0" d="M302.8,295.6c0-1.2,0-3.7,0-4.9V295.6z"/>
	<path class="st0" d="M300.3,261.1c0-4.9,0-8.6-1.2-13.5C299.1,252.5,299.1,256.2,300.3,261.1z"/>
	<path class="st0" d="M301.5,274.6v-2.5c0-1.2,0-3.7,0-4.9v-6.2C300.3,266,300.3,270.9,301.5,274.6z"/>
	<path class="st0" d="M301.5,371.9c1.2,0,2.5,1.2,4.9,0c2.5-1.2-1.2-2.5-1.2-3.7L301.5,371.9z"/>
	<polygon class="st0" points="297.8,179.8 296.6,179.8 297.8,181 	"/>
	<path class="st0" d="M302.8,286.9c0-2.5-1.2-3.7-1.2-6.2C301.5,283.2,301.5,285.7,302.8,286.9z"/>
	<path class="st0" d="M297.8,222.9c0,1.2,0,2.5,1.2,3.7C299.1,224.1,299.1,222.9,297.8,222.9z"/>
	<path class="st0" d="M299.1,227.8c0,6.2,0,13.5,1.2,19.7C300.3,240.1,300.3,234,299.1,227.8z"/>
	<path class="st0" d="M299.1,192.1c1.2-1.2,0-3.7,0-4.9s1.2-3.7,0-4.9C297.8,186,296.6,189.6,299.1,192.1z"/>
	<path class="st0" d="M268.3,415L268.3,415C268.3,416.2,268.3,416.2,268.3,415z"/>
	<path class="st0" d="M299.1,219.2C297.8,219.2,297.8,220.4,299.1,219.2L299.1,219.2z"/>
	<path class="st0" d="M299.1,216.7L299.1,216.7C297.8,216.7,297.8,216.7,299.1,216.7z"/>
	<path class="st0" d="M336,283.2c0,1.2,0,2.5,1.2,3.7C337.3,284.5,337.3,284.5,336,283.2z"/>
	<path class="st0" d="M336,283.2c1.2-1.2,2.5-2.5,0-3.7c-1.2-1.2-1.2-2.5-1.2-3.7c0-1.2,0-2.5-1.2-2.5c-1.2,3.7,1.2,6.2,0,11.1
		C334.8,283.2,336,283.2,336,283.2z"/>
	<path class="st0" d="M328.6,298c0-1.2,0-1.2-1.2-2.5C327.4,296.8,327.4,296.8,328.6,298z"/>
	<path class="st0" d="M336,267.2c0-1.2,1.2-2.5,0-3.7c-1.2-1.2-2.5,2.5-2.5,3.7c0,1.2,2.5,1.2,4.9,2.5
		C337.3,269.7,336,269.7,336,267.2z"/>
	<path class="st0" d="M336,290.6c0,1.2,1.2,1.2,1.2,3.7c1.2,0,1.2-1.2,2.5-2.5C337.3,291.9,337.3,289.4,336,290.6z"/>
	<path class="st0" d="M227.7,470.4L227.7,470.4C228.9,471.7,228.9,470.4,227.7,470.4z"/>
	<path class="st0" d="M337.3,236.4L337.3,236.4L337.3,236.4z"/>
	<path class="st0" d="M358.2,189.6c0,1.2,0,1.2,1.2,1.2C359.4,189.6,359.4,189.6,358.2,189.6z"/>
	<path class="st0" d="M343.4,269.7L343.4,269.7L343.4,269.7C344.6,269.7,343.4,269.7,343.4,269.7z"/>
	<path d="M369.3,365.8L369.3,365.8C368,367,369.3,367,369.3,365.8z"/>
	<path d="M199.3,559.1C199.3,560.3,199.3,560.3,199.3,559.1h1.2H199.3L199.3,559.1L199.3,559.1z"/>
	<path d="M370.5,383L370.5,383c1.2-1.2,1.2-1.2,0-1.2V383C370.5,381.8,370.5,381.8,370.5,383z"/>
	<path d="M363.1,370.7c0,3.7,0,3.7,2.5,2.5c0-1.2-1.2-1.2-1.2-1.2L363.1,370.7z"/>
	<path d="M366.8,370.7C366.8,370.7,365.6,369.4,366.8,370.7L366.8,370.7c-1.2-1.2-1.2-1.2-1.2,0S365.6,370.7,366.8,370.7z"/>
	<path d="M371.7,368.2L371.7,368.2C373,368.2,373,368.2,371.7,368.2z"/>
	<path d="M304,428.6c1.2,0,1.2-1.2,1.2-1.2S304,427.3,304,428.6z"/>
	<path d="M508.4,161.3L508.4,161.3C507.2,161.3,507.2,161.3,508.4,161.3z"/>
	<polygon points="196.9,559.1 198.1,560.3 198.1,559.1 	"/>
	<path d="M357,184.7C355.7,184.7,355.7,183.5,357,184.7L357,184.7c-1.2-1.2-1.2,0-1.2,1.2S355.7,184.7,357,184.7z"/>
	<path d="M370.5,374.4C370.5,374.4,370.5,373.1,370.5,374.4L370.5,374.4c-1.2-1.2-1.2,0-1.2,0l0,0H370.5
		C370.5,375.6,370.5,374.4,370.5,374.4L370.5,374.4z"/>
	<polygon points="331.1,166.3 331.1,167.5 331.1,167.5 	"/>
	<path d="M477.6,250c1.2,0,1.2,0,1.2-1.2S477.6,250,477.6,250z"/>
	<path d="M460.4,264.8L460.4,264.8C459.2,263.5,459.2,264.8,460.4,264.8z"/>
	<path d="M439.5,286.9L439.5,286.9C439.5,288.2,439.5,288.2,439.5,286.9z"/>
	<path d="M401.3,438.4L401.3,438.4c1.2-1.2,1.2-1.2,0-1.2V438.4C401.3,437.2,402.5,437.2,401.3,438.4z"/>
	<path d="M435.8,291.9L435.8,291.9C434.5,293.1,435.8,291.9,435.8,291.9z"/>
	<path d="M470.3,252.5L470.3,252.5L470.3,252.5C470.3,253.7,470.3,253.7,470.3,252.5L470.3,252.5z"/>
	<path d="M461.6,259.8C461.6,259.8,461.6,261.1,461.6,259.8L461.6,259.8c1.2,1.2,1.2,1.2,1.2,0l0,0
		C462.9,259.8,462.9,258.6,461.6,259.8L461.6,259.8z"/>
	<path d="M466.6,257.4L466.6,257.4C467.8,256.2,467.8,256.2,466.6,257.4L466.6,257.4z"/>
	<path d="M392.7,423.6C392.7,422.4,391.4,422.4,392.7,423.6L392.7,423.6C391.4,423.6,392.7,423.6,392.7,423.6z"/>
	<path d="M386.5,403.9v-1.2C385.3,402.7,385.3,402.7,386.5,403.9z"/>
	<path d="M386.5,403.9L386.5,403.9L386.5,403.9z"/>
	<path d="M395.1,419.9C393.9,419.9,393.9,421.2,395.1,419.9L395.1,419.9z"/>
	<path d="M387.7,407.6L387.7,407.6C389,407.6,387.7,407.6,387.7,407.6L387.7,407.6z"/>
	<path d="M393.9,417.5L393.9,417.5C392.7,416.2,392.7,417.5,393.9,417.5L393.9,417.5z"/>
	<path d="M387.7,405.2C387.7,405.2,387.7,403.9,387.7,405.2L387.7,405.2C386.5,405.2,386.5,405.2,387.7,405.2z"/>
	<path d="M386.5,279.5h-1.2H386.5z"/>
	<path d="M494.9,234L494.9,234C494.9,235.2,494.9,235.2,494.9,234z"/>
	<path d="M312.6,408.9c-1.2,1.2-1.2,1.2-1.2,1.2S313.9,410.1,312.6,408.9z"/>
	<path d="M422.2,295.6c-1.2,1.2,1.2,2.5-1.2,3.7c0,1.2,0,1.2,1.2,2.5c1.2-2.5,4.9-3.7,6.2-6.2C425.9,295.6,423.5,295.6,422.2,295.6z
		"/>
	<path d="M375.4,337.4c1.2,0,1.2-1.2,1.2-2.5S375.4,336.2,375.4,337.4z"/>
	<path d="M405,445.8v1.2c1.2,0,1.2,0,1.2-1.2C406.2,444.6,406.2,445.8,405,445.8z"/>
	<path d="M375.4,332.5l-2.5,1.2v1.2C375.4,335,375.4,333.7,375.4,332.5z"/>
	<path d="M392.7,319c1.2,0,1.2,0,1.2-1.2s2.5-2.5,3.7-2.5c0-1.2,0-1.2-1.2-2.5C396.4,315.3,392.7,316.5,392.7,319z"/>
	<path d="M391.4,319L391.4,319c1.2,1.2,1.2,1.2,1.2,0l0,0v-1.2L391.4,319L391.4,319z"/>
	<path d="M380.4,333.7c1.2-1.2,2.5-1.2,2.5-2.5C380.4,331.3,380.4,331.3,380.4,333.7z"/>
	<path d="M408.7,305.4C408.7,305.4,408.7,304.2,408.7,305.4L408.7,305.4C407.4,305.4,408.7,305.4,408.7,305.4L408.7,305.4z"/>
	<path d="M224,551.7c1.2,0,1.2-1.2,1.2-1.2S224,550.5,224,551.7z"/>
	<path d="M220.3,555.4C220.3,554.2,220.3,554.2,220.3,555.4C219,554.2,220.3,555.4,220.3,555.4z"/>
	<path d="M316.3,412.5C315.1,412.5,315.1,412.5,316.3,412.5C315.1,412.5,316.3,412.5,316.3,412.5z"/>
	<path d="M217.8,560.3L217.8,560.3L217.8,560.3C216.6,559.1,216.6,560.3,217.8,560.3L217.8,560.3z"/>
	<path d="M306.5,426.1L306.5,426.1C306.5,427.3,306.5,427.3,306.5,426.1z"/>
	<path d="M237.5,540.6C237.5,540.6,237.5,539.4,237.5,540.6C236.3,539.4,236.3,539.4,237.5,540.6
		C236.3,540.6,236.3,540.6,237.5,540.6L237.5,540.6z"/>
	<path d="M224,551.7L224,551.7C222.7,551.7,224,551.7,224,551.7z"/>
	<path d="M193.2,556.6c1.2,1.2,1.2,1.2,1.2,1.2L193.2,556.6z"/>
	<path d="M344.6,174.9L344.6,174.9L344.6,174.9z"/>
	<path d="M365.6,215.5c0,3.7,0,8.6,1.2,12.3c1.2-6.2,1.2-11.1,0-17.2c0-1.2,0-2.5,0-3.7c0-2.5,0-6.2-1.2-8.6v6.2V215.5z"/>
	<path d="M364.3,199.5c0-1.2,1.2-2.5-1.2-3.7S363.1,198.3,364.3,199.5z"/>
	<path d="M339.7,176.1c-1.2,0-1.2,1.2-1.2,1.2S338.5,177.3,339.7,176.1z"/>
	<path d="M318.8,163.8h-2.5C316.3,163.8,316.3,165,318.8,163.8z"/>
	<path d="M363.1,195.8c0-1.2,0-1.2-1.2-1.2S363.1,195.8,363.1,195.8z"/>
	<path d="M349.6,278.3c-1.2,0-1.2,1.2-1.2,1.2S348.3,278.3,349.6,278.3z"/>
	<path d="M491.2,237.7c1.2,0,1.2-1.2,2.5-2.5C492.4,235.2,491.2,236.4,491.2,237.7z"/>
	<path d="M370.5,386.7c1.2,1.2,1.2,3.7,1.2,4.9C375.4,389.2,375.4,389.2,370.5,386.7z"/>
	<polygon points="490,237.7 491.2,238.9 491.2,237.7 491.2,237.7 491.2,237.7 	"/>
	<path d="M496.1,234L496.1,234C496.1,232.8,496.1,232.8,496.1,234L496.1,234z"/>
	<polygon points="327.4,166.3 327.4,166.3 328.6,166.3 	"/>
	<path d="M510.9,165h-1.2H510.9z"/>
	<path d="M496.1,234L496.1,234L496.1,234z"/>
	<path d="M526.9,177.3L526.9,177.3c1.2-2.5-1.2-3.7-2.5-3.7c0,1.2,1.2,1.2,1.2,1.2L526.9,177.3z"/>
	<path d="M389,408.9L389,408.9C387.7,408.9,389,408.9,389,408.9L389,408.9z"/>
	<polygon points="347.1,245.1 347.1,243.8 345.9,243.8 	"/>
	<path d="M342.2,248.8c1.2-1.2,3.7,0,3.7-2.5L342.2,248.8L342.2,248.8z"/>
	<path d="M347.1,247.5c0,1.2,1.2,2.5,2.5,2.5C348.3,248.8,348.3,247.5,347.1,247.5z"/>
	<path d="M350.8,238.9c-2.5,2.5-2.5,7.4,0,9.9C350.8,245.1,350.8,241.4,350.8,238.9z"/>
	<polygon points="344.6,232.8 344.6,234 345.9,234 	"/>
	<path d="M333.6,246.3c0-1.2-1.2-2.5-1.2-3.7C332.3,245.1,332.3,245.1,333.6,246.3z"/>
	<polygon points="368,302.9 369.3,302.9 368,301.7 	"/>
	<path d="M369.3,300.5c1.2,0,1.2-1.2,1.2-1.2C370.5,299.3,370.5,299.3,369.3,300.5z"/>
	<path d="M350.8,251.2V250h-1.2C349.6,250,349.6,251.2,350.8,251.2z"/>
	<path d="M332.3,230.3c-1.2,1.2-1.2,1.2,0,3.7C332.3,234,333.6,232.8,332.3,230.3z"/>
	<path d="M371.7,299.3c2.5,0,2.5,0,2.5-2.5L371.7,299.3z"/>
	<path d="M349.6,254.9v1.2C349.6,254.9,350.8,254.9,349.6,254.9z"/>
	<path d="M393.9,286.9L393.9,286.9c-1.2,1.2,0,1.2,0,1.2l0,0h1.2L393.9,286.9C395.1,286.9,393.9,286.9,393.9,286.9z"/>
	<path d="M347.1,237.7c-1.2-1.2-1.2-2.5-3.7-2.5c0,2.5,2.5,2.5,1.2,3.7C345.9,240.1,347.1,238.9,347.1,237.7L347.1,237.7z"/>
	<path d="M469,190.9L469,190.9L469,190.9C467.8,190.9,467.8,192.1,469,190.9C469,192.1,469,190.9,469,190.9L469,190.9z"/>
	<path d="M332.3,235.2c-1.2,1.2,0,3.7,0,3.7C333.6,237.7,332.3,236.4,332.3,235.2z"/>
	<path d="M466.6,197c-1.2-1.2,1.2-2.5,1.2-3.7c0-1.2-2.5,0-3.7,0S464.1,195.8,466.6,197z"/>
	<path d="M296.6,383c1.2-1.2,1.2-1.2,0-1.2S296.6,383,296.6,383z"/>
	<path d="M241.2,459.3C241.2,460.6,242.4,460.6,241.2,459.3h1.2c1.2-1.2,1.2-1.2,1.2-1.2l-2.5-1.2l-1.2-1.2
		C241.2,456.9,240,458.1,241.2,459.3z"/>
	<path d="M249.8,444.6c1.2-1.2,1.2-1.2,2.5-2.5s-1.2-1.2-1.2-1.2S248.6,443.3,249.8,444.6z"/>
	<polygon points="260.9,437.2 260.9,437.2 260.9,435.9 259.7,435.9 259.7,437.2 	"/>
	<path d="M465.3,199.5L465.3,199.5L465.3,199.5C464.1,199.5,464.1,199.5,465.3,199.5L465.3,199.5z"/>
	<path d="M254.7,469.2V468C254.7,468,254.7,468,254.7,469.2z"/>
	<path d="M221.5,509.8c1.2,0,1.2,0,2.5-2.5C221.5,507.4,221.5,509.8,221.5,509.8z"/>
	<path d="M305.2,399L305.2,399C304,397.8,304,399,305.2,399L305.2,399z"/>
	<path d="M455.5,204.4c1.2-1.2,0-1.2,0-2.5h-1.2C454.2,203.2,454.2,204.4,455.5,204.4z"/>
	<path d="M300.3,376.8C299.1,376.8,299.1,378.1,300.3,376.8C299.1,378.1,299.1,378.1,300.3,376.8
		C299.1,378.1,300.3,378.1,300.3,376.8z"/>
	<path d="M433.3,234c1.2-1.2,2.5-2.5,1.2-3.7v-1.2c2.5-1.2,2.5-3.7,3.7-6.2c-1.2-1.2-2.5,1.2-4.9,1.2c0,1.2,0,1.2-1.2,1.2
		s1.2,2.5-1.2,3.7v1.2C433.3,232.8,430.8,234,433.3,234z"/>
	<path d="M405,268.5C403.8,268.5,403.8,268.5,405,268.5L405,268.5z"/>
	<path d="M375.4,305.4c0,1.2,0,1.2,1.2,2.5C377.9,306.6,377.9,306.6,375.4,305.4z"/>
	<path d="M414.8,248.8L414.8,248.8C414.8,250,414.8,250,414.8,248.8z"/>
	<path d="M416.1,258.6c-1.2,1.2-2.5,3.7-3.7,3.7c1.2,0,1.2,1.2,2.5,1.2C418.5,259.8,418.5,259.8,416.1,258.6z"/>
	<path d="M427.2,240.1c-1.2,0-3.7,0-4.9,1.2c0,1.2,1.2,1.2,1.2,2.5L427.2,240.1z"/>
	<path d="M382.8,301.7L382.8,301.7C380.4,302.9,381.6,302.9,382.8,301.7C381.6,302.9,382.8,301.7,382.8,301.7z"/>
	<path d="M412.4,264.8C411.1,264.8,411.1,264.8,412.4,264.8L412.4,264.8z"/>
	<path d="M396.4,268.5L396.4,268.5C395.1,268.5,395.1,269.7,396.4,268.5z"/>
	<path d="M396.4,273.4c1.2-1.2,2.5,0,3.7-2.5c1.2-2.5,1.2-2.5-2.5-3.7C397.6,270.9,393.9,272.2,396.4,273.4z"/>
	<path d="M393.9,275.9L393.9,275.9C391.4,277.1,392.7,277.1,393.9,275.9C392.7,277.1,393.9,277.1,393.9,275.9z"/>
	<path d="M403.8,275.9v-1.2C402.5,274.6,402.5,275.9,403.8,275.9z"/>
	<path d="M405,273.4c-1.2,0-1.2-1.2-1.2-1.2v1.2C403.8,274.6,403.8,274.6,405,273.4z"/>
	<path d="M403.8,270.9c-1.2,0-1.2,1.2-1.2,2.5h1.2C403.8,272.2,403.8,272.2,403.8,270.9z"/>
	<path d="M438.2,227.8c1.2,0,3.7-1.2,3.7-2.5l0,0C438.2,225.4,438.2,226.6,438.2,227.8z"/>
	<path d="M446.9,219.2c0-1.2-1.2-1.2-2.5-1.2c0,1.2,1.2,2.5,1.2,3.7C446.9,221.7,446.9,220.4,446.9,219.2z"/>
	<path d="M445.6,221.7c-1.2,0-1.2,1.2-2.5,1.2C444.4,222.9,445.6,221.7,445.6,221.7z"/>
	<path d="M400.1,277.1c-1.2,0-1.2-1.2-2.5-1.2s-1.2,2.5-2.5,3.7C396.4,278.3,398.8,279.5,400.1,277.1z"/>
	<path d="M443.2,215.5c-2.5,1.2-2.5,2.5-2.5,3.7C443.2,219.2,444.4,218,443.2,215.5z"/>
	<path d="M421,245.1c-1.2,1.2-2.5,1.2-3.7,2.5c-1.2,1.2,1.2,1.2,1.2,1.2c1.2,0,1.2,0,1.2-1.2c1.2,0,1.2-1.2,2.5,0
		C423.5,247.5,422.2,246.3,421,245.1z"/>
	<path d="M441.9,225.4c1.2,0,1.2,1.2,1.2,0v-2.5c-2.5,0-2.5,0-2.5-3.7c-2.5,1.2-2.5,1.2-2.5,3.7
		C439.5,222.9,441.9,222.9,441.9,225.4z"/>
	<path d="M381.6,291.9c1.2-1.2,1.2-3.7,1.2-6.2c-1.2,1.2-2.5,1.2-2.5,3.7C380.4,291.9,380.4,290.6,381.6,291.9z"/>
	<path d="M374.2,290.6c0,1.2,0,1.2,1.2,1.2C376.7,291.9,375.4,290.6,374.2,290.6z"/>
	<path d="M386.5,282c-1.2,1.2-2.5,1.2-2.5,2.5C387.7,284.5,387.7,284.5,386.5,282z"/>
	<path d="M417.3,256.2c1.2,0,1.2-1.2,2.5-1.2l-2.5-1.2c-1.2,0-1.2-1.2-2.5-1.2s-2.5,3.7-2.5,6.2
		C413.6,257.4,413.6,254.9,417.3,256.2z"/>
	<path d="M430.8,236.4v-4.9c-1.2,0-1.2-1.2-2.5-1.2c0,1.2,0,1.2-1.2,2.5C428.4,234,429.6,235.2,430.8,236.4z"/>
	<path d="M238.7,458.1c0-1.2,0-3.7,2.5-3.7c2.5,0-1.2-1.2-2.5-1.2s0,1.2-1.2,1.2C236.3,454.4,237.5,458.1,238.7,458.1z"/>
	<path d="M382.8,283.2c-1.2,0-1.2,1.2-1.2,1.2S382.8,284.5,382.8,283.2z"/>
	<path d="M481.3,178.6c-2.5,2.5-6.2,3.7-6.2,7.4c3.7,0,4.9-2.5,6.2-3.7V178.6z"/>
	<path d="M249.8,456.9c1.2-2.5,1.2-2.5-1.2-3.7C248.6,454.4,248.6,455.7,249.8,456.9z"/>
	<path d="M249.8,447c-1.2,1.2-2.5,1.2-2.5,3.7C247.4,449.5,248.6,449.5,249.8,447z"/>
	<path d="M241.2,461.8C240,461.8,240,463,241.2,461.8L241.2,461.8z"/>
	<path d="M247.4,474.1L247.4,474.1C246.1,474.1,246.1,475.4,247.4,474.1z"/>
	<path d="M238.7,480.3L238.7,480.3C237.5,480.3,237.5,481.5,238.7,480.3z"/>
	<polygon points="238.7,477.8 240,477.8 238.7,476.6 	"/>
	<path d="M263.4,426.1c-2.5,0-2.5,1.2-3.7,3.7C262.1,428.6,262.1,428.6,263.4,426.1z"/>
	<path d="M259.7,444.6H256C257.2,444.6,258.4,445.8,259.7,444.6z"/>
	<path d="M260.9,447C259.7,447,260.9,447,260.9,447L260.9,447z"/>
	<path d="M267.1,419.9c-1.2,1.2-1.2,1.2-1.2,2.5C268.3,421.2,268.3,421.2,267.1,419.9z"/>
	<path d="M249.8,461.8L249.8,461.8L249.8,461.8z"/>
	<path d="M251.1,459.3L251.1,459.3c1.2,1.2,1.2,2.5,3.7,2.5C253.5,460.6,252.3,459.3,251.1,459.3z"/>
	<path d="M253.5,453.2C254.7,453.2,253.5,453.2,253.5,453.2S252.3,453.2,253.5,453.2L253.5,453.2z"/>
	<path d="M240,464.3c-1.2-1.2-1.2-2.5-2.5-1.2C236.3,464.3,237.5,463,240,464.3z"/>
	<path d="M361.9,259.8v-2.5C360.7,257.4,360.7,257.4,361.9,259.8z"/>
	<path d="M357,200.7C357,202,358.2,202,357,200.7L357,200.7c1.2,1.2,1.2,1.2,1.2,0l0,0H357C358.2,200.7,357,200.7,357,200.7
		L357,200.7z"/>
	<path d="M360.7,214.3L360.7,214.3l2.5,1.2l-1.2-1.2H360.7z"/>
	<path d="M227.7,482.7h-1.2H227.7z"/>
	<path d="M482.6,246.3L482.6,246.3C483.8,246.3,483.8,245.1,482.6,246.3L482.6,246.3z"/>
	<path d="M486.3,243.8L486.3,243.8C485,242.6,485,243.8,486.3,243.8z"/>
	<path d="M487.5,241.4c-1.2,0-1.2,1.2-1.2,1.2S486.3,242.6,487.5,241.4z"/>
	<path d="M224,502.4c0,1.2,0,1.2,1.2,2.5S226.4,502.4,224,502.4C224,502.4,224,501.2,224,502.4z"/>
	<path d="M225.2,484L225.2,484L225.2,484l-1.2-1.2l-2.5,3.7C222.7,487.7,222.7,485.2,225.2,484z"/>
	<path d="M225.2,488.9L225.2,488.9c-1.2,1.2-1.2,1.2-1.2,1.2S225.2,490.1,225.2,488.9z"/>
	<path d="M214.1,517.2C214.1,516,214.1,516,214.1,517.2L214.1,517.2L214.1,517.2z"/>
	<path d="M184.6,540.6c0,2.5,1.2,6.2,2.5,8.6c1.2,1.2,3.7,2.5,4.9,3.7c0,1.2-1.2,1.2-2.5,2.5c1.2,1.2,4.9,1.2,7.4,2.5
		c-1.2,0-1.2,1.2-2.5,0c0,1.2,1.2,1.2,1.2,1.2c1.2-1.2,3.7-2.5,4.9-2.5s3.7-1.2,4.9-1.2s-1.2,1.2-1.2,2.5c0,0,1.2,0,1.2,1.2l0,0
		c-1.2,0-1.2,0-1.2-1.2s-1.2,0-2.5,2.5c1.2,0,2.5,0,2.5,1.2c1.2,1.2,2.5,1.2,2.5-1.2s-1.2,0-1.2-1.2s1.2,1.2,1.2,1.2
		c1.2,0,2.5,0,3.7,0l6.2-1.2c0-1.2-2.5-3.7-2.5-4.9h4.9c0-1.2,1.2-1.2,2.5-1.2s-2.5-2.5,0-3.7c0-2.5,2.5-2.5,3.7-2.5
		c1.2,0-1.2,2.5-1.2,3.7c0,1.2,2.5-1.2,2.5-2.5c0-1.2,1.2-3.7,2.5-3.7c2.5-2.5,3.7-4.9,3.7-8.6h1.2c0,1.2,0,3.7,1.2,4.9
		c-1.2-2.5,1.2-6.2,0-8.6s-1.2-3.7,0-6.2s1.2-6.2,2.5-8.6c0-1.2,1.2-2.5,1.2-3.7c0-1.2,1.2-1.2,1.2-1.2l-1.2-1.2h1.2
		c1.2-1.2,1.2-3.7,0-6.2l2.5-1.2c0-1.2,1.2-2.5,1.2-2.5s0-1.2,2.5-2.5c0,1.2-1.2,2.5-2.5,2.5l1.2,1.2l-3.7,9.9c0,1.2-1.2,1.2-1.2,0
		c0-1.2,0,2.5,1.2,2.5c0,0,0-1.2,1.2-1.2c0,0,0,1.2-1.2,1.2l0,0l-3.7,12.3c-1.2,1.2-2.5,3.7-2.5,6.2c2.5-2.5,2.5-6.2,4.9-9.9
		c2.5-7.4,6.2-14.8,9.9-22.2c2.5-6.2,7.4-12.3,12.3-18.5c6.2-8.6,11.1-17.2,18.5-25.9s14.8-18.5,23.4-25.9c-1.2,0-1.2-1.2-1.2-2.5
		s1.2,0,1.2-1.2s1.2,0,1.2-1.2v1.2c1.2,0,2.5-1.2,3.7-2.5c0-1.2-1.2-1.2-1.2-1.2c0-2.5,1.2-1.2,2.5-1.2s-1.2-1.2,0-2.5
		s1.2,0,1.2-1.2l-1.2-1.2h1.2l0,0c1.2,0,2.5-1.2,3.7-1.2c-2.5,0-2.5-1.2-2.5-2.5l-1.2-1.2c-1.2,0,0,2.5-1.2,2.5
		c-1.2-1.2-1.2-2.5-1.2-3.7c-1.2,1.2-3.7,2.5-4.9,2.5c0,1.2-2.5,2.5-3.7,1.2c0,0-1.2,0-1.2-1.2c2.5,1.2,3.7-1.2,4.9-2.5l2.5-3.7
		c1.2-1.2,3.7-2.5,3.7-6.2s-1.2,1.2-3.7,2.5c1.2-2.5,2.5-3.7,1.2-6.2c1.2,0,2.5,2.5,2.5,3.7l0,0c0,0,1.2,0,1.2,1.2
		c1.2,3.7,2.5,7.4,3.7,9.9l2.5,6.2c-2.5,1.2-2.5,2.5-2.5,3.7c3.7,0,3.7,0,4.9,2.5c3.7,4.9,6.2,11.1,8.6,17.2
		c6.2,9.9,13.5,19.7,20.9,28.3c6.2,7.4,12.3,14.8,18.5,22.2c6.2,4.9,13.5,8.6,20.9,11.1c1.2,1.2,2.5,1.2,2.5,0l0,0
		c0-1.2,1.2-1.2,1.2-1.2c0-1.2,1.2-1.2,1.2-1.2l-1.2,1.2c1.2,1.2,3.7,2.5,6.2,1.2l-1.2-1.2c1.2-1.2,2.5-3.7,3.7-4.9
		c2.5-2.5,4.9-6.2,6.2-9.9c1.2-2.5,2.5-4.9,4.9-6.2c2.5-1.2,3.7-3.7,3.7-7.4c0-2.5,0-6.2,0-8.6c0-2.5-11.1-6.2-11.1-6.2
		c0-1.2,0-1.2-1.2-2.5c1.2,0,2.5-2.5,1.2-4.9h-1.2c1.2-1.2-1.2-1.2-1.2-2.5c-1.2-1.2-1.2-2.5-1.2-3.7c-1.2,0-1.2-1.2-1.2-1.2
		s-2.5-2.5-2.5-4.9c0-2.5-1.2-1.2-2.5-1.2s-1.2,1.2-1.2,1.2l1.2-1.2c-1.2-2.5-4.9-2.5-6.2-4.9c-1.2-2.5,1.2-1.2,1.2-1.2
		c1.2,0,1.2,1.2,3.7,1.2c-1.2-1.2-2.5-3.7-2.5-4.9h-1.2c0-1.2,1.2-2.5-1.2-3.7c-2.5-1.2-1.2,1.2-3.7,1.2c-2.5,0,1.2-1.2,1.2-2.5
		s-1.2-3.7-3.7-6.2c-1.2,0-1.2,1.2-1.2,0c0-1.2,1.2-1.2,0-2.5c-1.2-1.2-1.2,1.2-1.2,0s0-3.7,2.5-4.9v-1.2c-1.2,0-1.2,0-1.2,1.2l0,0
		c-1.2-1.2-1.2-1.2-1.2-2.5c0-1.2-1.2,0-3.7,0c1.2-1.2,3.7-1.2,2.5-2.5s-1.2-4.9-3.7-6.2c0,2.5-2.5,1.2-3.7,1.2
		c1.2-1.2,2.5-1.2,3.7-1.2c0-1.2,1.2-1.2,1.2-2.5c-2.5-2.5-6.2-2.5-8.6-3.7c1.2-1.2,2.5-1.2,2.5-1.2s-1.2-2.5-2.5-3.7
		c-1.2-1.2-1.2-2.5-2.5-3.7c1.2-1.2,1.2-3.7,0-4.9l0,0c-1.2-1.2-1.2-1.2-1.2,0s1.2,1.2,0,3.7c-1.2-1.2-2.5-1.2-3.7-1.2v2.5
		c-1.2-1.2-1.2-1.2,0-2.5s-1.2-1.2,0-3.7c1.2-2.5,1.2,0,2.5-1.2s-2.5,0-3.7-1.2v-1.2c-1.2-1.2-1.2,1.2-2.5-1.2
		c3.7-3.7,6.2-7.4,9.9-11.1c0,0,1.2,0,1.2-1.2l7.4-9.9l16-16c2.5-3.7,4.9-6.2,8.6-9.9c0-1.2,1.2-1.2,1.2-1.2s1.2-2.5,2.5-3.7
		l3.7-2.5l2.5-3.7c0-1.2-1.2-1.2-1.2-1.2c2.5,0,3.7-1.2,4.9-2.5c1.2-1.2-1.2,0-1.2-1.2c0-1.2,1.2-1.2,1.2-1.2v-1.2l0,0
		c1.2,0,1.2,1.2,1.2,1.2c1.2-1.2,1.2-2.5,1.2-3.7c1.2-1.2,2.5-2.5,1.2-3.7c0-1.2,1.2-2.5,2.5-2.5c1.2,0-1.2-1.2-1.2-2.5
		c-1.2,2.5-2.5,3.7-4.9,4.9l1.2,2.5c-4.9,0-7.4,4.9-9.9,6.2c0,1.2,1.2,2.5,1.2,3.7c-1.2,1.2-1.2-1.2-2.5-1.2s-2.5,2.5,0,3.7
		c-1.2,1.2-1.2,0-2.5,0l-2.5,2.5l0,0l-1.2,1.2l-2.5,2.5c-1.2,1.2,1.2,2.5-2.5,2.5c-1.2,1.2-1.2,2.5-2.5,3.7c1.2,0,1.2-1.2,4.9-1.2
		l-2.5,2.5c-1.2-1.2-1.2-1.2-1.2-1.2h-1.2c-1.2,2.5-2.5,3.7,0,4.9c0,0,0-1.2,1.2-1.2l0,0l-1.2,1.2v1.2c-1.2-1.2-2.5-2.5-3.7-3.7
		c-1.2-1.2-1.2,1.2-2.5,2.5c1.2,0,1.2,1.2,1.2,1.2c1.2,0,1.2,0,1.2,1.2s-1.2,0-1.2-1.2c-1.2,0-1.2-1.2-1.2-1.2
		c-1.2,1.2-3.7,2.5-3.7,2.5s-3.7,1.2-2.5,3.7l-1.2,1.2c-2.5,1.2-2.5,1.2-3.7,2.5c-2.5-1.2,0-3.7-1.2-6.2c-1.2-2.5,1.2-3.7,1.2-4.9
		s-1.2,0-1.2-1.2s1.2-1.2,1.2-1.2s0-1.2,1.2-1.2s1.2-1.2,1.2,0c2.5,0,2.5-2.5,3.7-2.5c2.5-2.5,4.9-4.9,6.2-8.6l2.5-1.2
		c6.2-7.4,12.3-13.5,19.7-19.7c0-1.2,1.2-1.2,1.2-1.2l2.5-1.2c0,0,1.2-2.5,2.5-2.5s-1.2,1.2-2.5,2.5c-1.2,2.5-3.7,4.9-6.2,6.2
		c-1.2,1.2-2.5,3.7-3.7,6.2c0,1.2-1.2,1.2-2.5,2.5s-1.2,1.2,0,2.5c1.2-2.5,4.9-2.5,6.2-4.9c1.2-2.5,2.5-1.2,2.5-2.5l6.2-6.2
		c2.5-1.2,4.9-2.5,6.2-4.9c1.2-1.2,1.2-1.2,2.5-2.5c2.5-3.7,6.2-7.4,9.9-9.9c1.2-2.5,2.5-4.9,4.9-6.2l6.2-4.9l6.2-6.2l13.5-14.8
		c1.2-1.2,1.2-1.2,1.2-2.5s1.2-1.2,1.2-1.2c3.7-2.5,7.4-6.2,9.9-9.9h1.2c0-1.2,0-1.2,1.2-1.2s1.2,1.2,1.2,1.2h-1.2
		c0,0-1.2,2.5,0,3.7c-3.7,1.2-7.4,3.7-9.9,7.4l-2.5,3.7c-2.5,3.7-7.4,6.2-9.9,11.1c-1.2,1.2-2.5,2.5-3.7,2.5c0,1.2,1.2,1.2,1.2,1.2
		c-3.7,0-6.2,2.5-6.2,4.9l-1.2,1.2c-1.2,2.5-4.9,3.7-6.2,6.2c-1.2,2.5-2.5,2.5-3.7,4.9c-1.2,2.5-2.5,1.2-2.5,1.2l1.2,1.2l-1.2,1.2
		h-1.2c0,2.5,0,3.7-2.5,4.9c-1.2,0-1.2,1.2-1.2,1.2l2.5,1.2c1.2-1.2,2.5-3.7,4.9-4.9c0,0,1.2-1.2,1.2-2.5c0-1.2,2.5-2.5,2.5-4.9
		c0,0,0,1.2,1.2,1.2l0,0l6.2-7.4c4.9-4.9,9.9-12.3,14.8-17.2v3.7c-1.2,0-1.2,0-1.2-1.2s1.2,0,1.2,1.2c1.2,0,2.5,0,2.5-1.2
		s1.2-1.2,1.2-1.2l3.7-3.7c1.2-2.5,4.9-4.9,7.4-4.9c1.2,1.2-1.2,1.2,0,2.5l1.2-1.2c0-1.2,1.2-2.5,2.5-2.5s1.2-1.2,1.2-1.2
		s-1.2,1.2-4.9,0c2.5,0,3.7-2.5,4.9-3.7c1.2,0,1.2,1.2,1.2,1.2c2.5-3.7,7.4-4.9,9.9-8.6c2.5,0,4.9-1.2,6.2-2.5c0-1.2,0-1.2,1.2-1.2
		c1.2,1.2,0,1.2-1.2,1.2c-1.2,0-1.2,2.5-1.2,3.7l2.5-2.5l13.5-11.1l6.2-6.2c0-1.2,0-1.2,1.2-1.2s1.2-1.2,1.2-1.2s-1.2-2.5,1.2-3.7
		c2.5-1.2,1.2,0,1.2,1.2c1.2,1.2,3.7,3.7,6.2,3.7c1.2,0,1.2,0,1.2,1.2c1.2,1.2,1.2,1.2,2.5,2.5c-1.2-2.5-1.2-4.9,1.2-6.2
		c-1.2-1.2-1.2-1.2-1.2-1.2s-1.2-1.2-1.2,0s1.2,1.2,1.2,1.2l-1.2-1.2c0,0-1.2-2.5-1.2-3.7c0-1.2-1.2-3.7,0-6.2
		c2.5-2.5,2.5-6.2,2.5-9.9c-1.2-3.7-3.7-7.4-4.9-11.1c0,0,0-1.2-1.2-1.2l0,0c0,1.2,0,1.2-1.2,1.2s0-1.2,0-1.2
		c-1.2,0-1.2-1.2-1.2-1.2c-1.2,0-2.5,0-1.2-1.2c-1.2-2.5-3.7-3.7-6.2-4.9c0-1.2-1.2-1.2-2.5-1.2v1.2l1.2,1.2c-1.2,0-1.2,0-1.2-1.2
		h-1.2c0,0,0-1.2,1.2-1.2c-1.2-1.2-1.2-1.2-2.5-2.5s0,1.2-1.2,1.2c0,1.2-1.2,1.2-1.2,0c0-1.2-1.2-1.2-1.2-2.5L501,165
		c0-1.2,1.2-1.2-1.2-1.2s0,3.7-2.5,6.2c-2.5-1.2-1.2-3.7-1.2-3.7l2.5-1.2l-1.2-1.2c0,0,1.2,0,2.5-1.2c-2.5,0-4.9,0-7.4-1.2
		c-2.5,0-4.9,0-8.6,0c-1.2,1.2-2.5,0-3.7,0c-2.5-1.2-6.2-1.2-7.4,2.5c0,0,0,0,0,1.2s-1.2,2.5-1.2,3.7c-6.2,4.9-12.3,11.1-18.5,17.2
		c-6.2,4.9-12.3,11.1-18.5,17.2l-20.9,20.9c-6.2,4.9-12.3,11.1-17.2,17.2c-7.4,7.4-13.5,14.8-22.2,22.2c-3.7,4.9-8.6,9.9-13.5,13.5
		c-2.5-1.2-1.2-2.5,0-3.7c-1.2-1.2-3.7-1.2-3.7-2.5l-2.5,1.2c-1.2,0-1.2,1.2-1.2,2.5c1.2,1.2,1.2,2.5,1.2,3.7
		c1.2,1.2,1.2-1.2,2.5-1.2c1.2,0,1.2,1.2,0,1.2c-1.2,0-1.2,1.2-1.2,2.5l-6.2,6.2c0,1.2-1.2,1.2-1.2,1.2l-1.2-1.2c0,0-1.2,0-1.2,1.2
		s1.2,1.2,1.2,2.5c-1.2,1.2-1.2,2.5-3.7,2.5c0-1.2,0-1.2,1.2-1.2s0-1.2-1.2-1.2c0,0,0,1.2-1.2,1.2l0,0c0-1.2,1.2-1.2,1.2-1.2
		s-1.2-1.2-1.2-3.7c0-1.2,0-2.5,1.2-3.7c0-1.2-1.2-1.2-1.2-2.5s1.2,0,1.2-1.2c0-1.2,2.5,2.5,4.9,3.7c1.2-1.2,3.7,0,4.9-2.5
		c-1.2-1.2-3.7,1.2-4.9-1.2s1.2-1.2,1.2-1.2c-1.2-3.7,1.2-6.2,0-8.6c-1.2,0-3.7,1.2-2.5-1.2c-1.2,0-2.5,1.2-3.7-1.2l2.5-1.2v-1.2
		l0,0c-1.2,0-1.2,0-1.2-1.2h-1.2c-1.2-1.2,0-1.2,1.2-1.2s1.2,1.2,1.2,1.2c2.5,0,3.7,0,4.9,1.2h3.7c1.2,1.2,0,1.2,1.2,2.5
		c1.2,1.2,2.5-1.2,3.7,1.2c1.2,0,1.2-1.2,2.5-1.2c-1.2-2.5,0-3.7,0-6.2s0-6.2-1.2-9.9c4.9,0,1.2,3.7,3.7,6.2v-6.2
		c-2.5-1.2-4.9-2.5-6.2-4.9s2.5-2.5,1.2-3.7v-1.2c0-1.2,1.2-3.7,0-6.2c-1.2-2.5,1.2-3.7,0-6.2c-1.2-2.5-1.2-1.2-1.2-2.5
		c0-1.2,0-1.2,1.2-1.2s1.2,1.2,1.2,1.2l1.2,14.8c0,2.5,1.2,3.7,2.5,6.2v-12.3c-1.2-1.2,0-3.7,0-6.2c0-2.5-1.2-3.7-1.2-6.2
		c0-3.7,0-7.4,0-11.1c-1.2-1.2-1.2-3.7,0-6.2c-1.2-1.2-2.5,0-3.7-1.2c-1.2-1.2,1.2-2.5,0-3.7s0-3.7,0-4.9l-1.2-1.2
		c0,0,1.2,0,1.2,1.2l0,0c1.2,0,1.2,2.5,2.5,2.5c1.2-2.5-2.5-4.9,0-6.2s2.5,0,2.5,1.2s-1.2,1.2-1.2,1.2c1.2,2.5,1.2,4.9,1.2,7.4
		c2.5,1.2,0,4.9,1.2,6.2c1.2-2.5,1.2-4.9,0-7.4c0-2.5,0-4.9,0-7.4h2.5c0-6.2-2.5-11.1-8.6-12.3c0,0,1.2,0,1.2,1.2l0,0l1.2,1.2
		c1.2,1.2,1.2,1.2,0,1.2h-1.2c0,2.5,1.2,4.9,2.5,7.4c-1.2,0-1.2-1.2-1.2-1.2c0-2.5-2.5-3.7,0-6.2v-1.2h-2.5c0-1.2,0-1.2,1.2-1.2
		c1.2,0-2.5-2.5-2.5-3.7s-1.2-2.5-3.7-2.5c0-1.2-1.2-1.2-1.2-1.2s0,1.2,1.2,1.2s-1.2,3.7,0,4.9c-1.2,0-2.5,0-3.7-1.2
		c-1.2-1.2-1.2-1.2-2.5-1.2s0,2.5-2.5,2.5c-1.2-1.2-1.2-2.5,0-3.7c-1.2,0-1.2,0-1.2-1.2s1.2-1.2,1.2-2.5c-1.2,0-2.5-1.2-4.9-2.5
		c-1.2-1.2,0-3.7-2.5-3.7s-3.7-1.2-6.2,0v1.2c2.5,0,2.5,1.2,2.5,2.5c-1.2,0-2.5-1.2-2.5-2.5c-1.2,0-2.5,0-3.7-1.2
		c1.2-1.2,1.2-2.5-1.2-3.7c-2.5-1.2-2.5,0-2.5,1.2h1.2c0,1.2-1.2,1.2-1.2,1.2l-1.2-1.2h-1.2c-1.2,0-1.2,0-1.2-1.2s-1.2-1.2-4.9-1.2
		c0,0,1.2,0,1.2,1.2l0,0c1.2,0,1.2,0,1.2,1.2s-1.2,0-1.2-1.2s-1.2,0-1.2-1.2c-1.2,0-2.5-1.2-2.5-1.2h7.4c0,0,0-1.2-1.2-1.2l0,0
		l-14.8-1.2c0,1.2,1.2,1.2,1.2,1.2h-1.2c-2.5-1.2-4.9-1.2-7.4,0l-1.2,1.2c-3.7,0-4.9,2.5-8.6,3.7c1.2,1.2,1.2,0,3.7,0
		c2.5,0,4.9,2.5,4.9,6.2c1.2,6.2,1.2,12.3,1.2,18.5c0,6.2-1.2,12.3,0,18.5c0,9.9-1.2,19.7,0,28.3c0,4.9,0,9.9,0,13.5l1.2,17.2
		l1.2,18.5c0,8.6,1.2,17.2,2.5,25.9c0,6.2,1.2,12.3,2.5,18.5c1.2,3.7,0,6.2-2.5,8.6s-3.7,4.9-6.2,7.4l-27.1,32
		c-8.6,11.1-17.2,22.2-24.6,33.3l-13.5,18.5l-8.6,13.5c-2.5,6.2-6.2,11.1-11.1,16c-1.2,3.7-2.5,7.4-4.9,9.9
		c-4.9,11.1-9.9,22.2-13.5,33.3c-1.2,4.9-2.5,8.6-2.5,13.5v3.7c-1.2,1.2,0,2.5,0,3.7C183.3,533.2,184.6,535.7,184.6,540.6z
		 M419.8,474.1v1.2C418.5,475.4,418.5,475.4,419.8,474.1z M407.4,461.8v1.2V461.8L407.4,461.8z M403.8,465.5
		c-1.2-1.2-2.5-1.2-2.5-3.7C403.8,464.3,403.8,464.3,403.8,465.5L403.8,465.5z M402.5,493.8c0,2.5,0,4.9-2.5,6.2
		C400.1,496.3,401.3,495.1,402.5,493.8L402.5,493.8z M398.8,461.8c-1.2,0-1.2,0-1.2-1.2C398.8,460.6,398.8,460.6,398.8,461.8
		L398.8,461.8z M395.1,453.2c0-1.2-1.2-2.5-1.2-3.7C396.4,450.7,396.4,450.7,395.1,453.2L395.1,453.2z M393.9,440.9
		c1.2,1.2,1.2,1.2,0,2.5C392.7,442.1,392.7,440.9,393.9,440.9L393.9,440.9L393.9,440.9z M386.5,424.9L386.5,424.9L386.5,424.9
		L386.5,424.9C385.3,424.9,386.5,424.9,386.5,424.9L386.5,424.9z M379.1,403.9L379.1,403.9L379.1,403.9L379.1,403.9z M374.2,396.5
		C374.2,396.5,375.4,396.5,374.2,396.5L374.2,396.5c1.2,1.2,0,1.2,0,1.2l0,0C374.2,397.8,373,397.8,374.2,396.5
		C373,396.5,373,396.5,374.2,396.5L374.2,396.5z M376.7,407.6C376.7,407.6,375.4,408.9,376.7,407.6L376.7,407.6L376.7,407.6
		C375.4,407.6,376.7,407.6,376.7,407.6L376.7,407.6z M375.4,402.7L375.4,402.7C375.4,402.7,376.7,402.7,375.4,402.7L375.4,402.7z
		 M371.7,402.7L371.7,402.7L371.7,402.7l3.7,3.7C373,406.4,371.7,405.2,371.7,402.7C371.7,402.7,371.7,403.9,371.7,402.7
		L371.7,402.7C370.5,401.5,371.7,401.5,371.7,402.7L371.7,402.7L371.7,402.7z M368,395.3C368,395.3,366.8,395.3,368,395.3L368,395.3
		L368,395.3z M364.3,389.2c-1.2,0-1.2,0-1.2-1.2C363.1,386.7,364.3,387.9,364.3,389.2L364.3,389.2z M403.8,319L403.8,319
		c-1.2,1.2-1.2,0-1.2,0H403.8z M381.6,343.6v-2.5c1.2,0,1.2,1.2,1.2,1.2S382.8,343.6,381.6,343.6L381.6,343.6L381.6,343.6
		L381.6,343.6z M379.1,346c-1.2,1.2-1.2,1.2-1.2,1.2S377.9,346,379.1,346L379.1,346z M528.1,183.5c1.2,1.2,1.2,2.5,1.2,3.7
		L528.1,183.5L528.1,183.5z M526.9,203.2C526.9,203.2,528.1,204.4,526.9,203.2L526.9,203.2C528.1,204.4,526.9,205.7,526.9,203.2
		L526.9,203.2z M501,226.6L501,226.6l1.2-1.2C503.5,225.4,503.5,225.4,501,226.6C501,225.4,502.3,226.6,501,226.6
		C499.8,226.6,501,227.8,501,226.6L501,226.6L501,226.6z M497.3,189.6C497.3,189.6,498.6,188.4,497.3,189.6L497.3,189.6z M498.6,165
		l-2.5,2.5c0-1.2-1.2-1.2-1.2-2.5C496.1,163.8,497.3,165,498.6,165L498.6,165z M494.9,194.6L494.9,194.6L494.9,194.6L494.9,194.6z
		 M369.3,342.4L369.3,342.4c-1.2-1.2,0-1.2,0-1.2l0,0C370.5,341.1,370.5,342.4,369.3,342.4C370.5,342.4,369.3,342.4,369.3,342.4
		L369.3,342.4z M370.5,347.3C370.5,347.3,369.3,346,370.5,347.3C369.3,346,369.3,346,370.5,347.3C370.5,346,370.5,346,370.5,347.3
		C370.5,346,371.7,346,370.5,347.3L370.5,347.3z M414.8,291.9C414.8,290.6,416.1,290.6,414.8,291.9L414.8,291.9
		c1.2-1.2,1.2-1.2,1.2,0S416.1,291.9,414.8,291.9L414.8,291.9z M423.5,283.2c0,1.2,0,1.2-1.2,1.2s0,1.2-1.2,1.2s0,1.2-1.2,1.2v1.2
		c0,0,0,1.2-1.2,1.2l0,0l-1.2-1.2l1.2-1.2h1.2l1.2-1.2l1.2-1.2C422.2,284.5,422.2,283.2,423.5,283.2s0-1.2,2.5-2.5
		C424.7,283.2,424.7,283.2,423.5,283.2L423.5,283.2z M427.2,280.8L427.2,280.8c-1.2-1.2,0-1.2,1.2-2.5
		C427.2,279.5,427.2,279.5,427.2,280.8L427.2,280.8z M429.6,277.1l2.5-2.5C432.1,274.6,432.1,274.6,429.6,277.1L429.6,277.1z
		 M435.8,268.5c0,1.2,1.2,1.2-1.2,2.5C434.5,269.7,434.5,269.7,435.8,268.5l2.5-2.5C438.2,268.5,438.2,268.5,435.8,268.5
		L435.8,268.5z M440.7,266c0-1.2,0-2.5,2.5-2.5L440.7,266z M446.9,257.4h2.5C448.1,258.6,448.1,257.4,446.9,257.4L446.9,257.4z
		 M448.1,234c-1.2-1.2-1.2-1.2,0-1.2S449.3,232.8,448.1,234L448.1,234z M451.8,234L451.8,234L451.8,234
		C453,235.2,451.8,235.2,451.8,234L451.8,234z M455.5,248.8l1.2-1.2C457.9,250,457.9,250,455.5,248.8L455.5,248.8z M459.2,230.3
		l-2.5,3.7l1.2,1.2c0,0-1.2,0-1.2-1.2l0,0c-1.2,0-1.2-1.2-1.2-2.5C456.7,230.3,457.9,230.3,459.2,230.3c0-1.2-1.2-1.2-1.2-1.2
		c-1.2,0-3.7,0-4.9,0c0,1.2,0,2.5-2.5,2.5s-1.2,1.2-1.2,1.2l1.2-1.2c0,0,1.2-2.5,2.5-2.5s1.2-1.2,2.5-2.5c1.2,1.2,1.2,3.7,2.5,2.5
		c1.2-1.2,1.2,0,2.5,0C461.6,229.1,461.6,229.1,459.2,230.3L459.2,230.3z M453,222.9C453,221.7,454.2,221.7,453,222.9h1.2H453
		L453,222.9z M459.2,224.1L459.2,224.1C459.2,225.4,457.9,224.1,459.2,224.1L459.2,224.1z M466.6,224.1c-3.7,0-7.4,0-11.1-1.2
		c1.2,0,3.7-1.2,4.9,0l-1.2-4.9c1.2-1.2,3.7-1.2,6.2-1.2c0,1.2-1.2,1.2-1.2,3.7s-1.2,1.2-2.5,2.5S466.6,224.1,466.6,224.1
		L466.6,224.1z M457.9,213L457.9,213C460.4,211.8,460.4,213,457.9,213L457.9,213z M462.9,204.4L462.9,204.4L462.9,204.4L462.9,204.4
		z M466.6,214.3c1.2-2.5,3.7-3.7,6.2-4.9c0,0,0-1.2,1.2-1.2l0,0c0,0,0,1.2-1.2,1.2l0,0C471.5,211.8,469,211.8,466.6,214.3
		L466.6,214.3z M469,220.4c0-1.2,0-2.5,1.2-2.5S470.3,219.2,469,220.4L469,220.4z M470.3,216.7c1.2-1.2,2.5-1.2,4.9-1.2
		C474,215.5,472.7,215.5,470.3,216.7L470.3,216.7z M477.6,209.4v2.5l1.2,1.2c0,0-1.2,0-1.2-1.2l0,0
		C476.4,210.6,476.4,210.6,477.6,209.4L477.6,209.4z M477.6,232.8c0-1.2,1.2-1.2,2.5-1.2L477.6,232.8z M483.8,204.4
		c1.2,1.2,1.2,2.5-1.2,3.7c-1.2-1.2,0-2.5-1.2-2.5h-1.2c0,0,0-1.2-1.2-1.2c0,0,0,1.2-1.2,1.2l0,0c0-1.2,1.2-1.2,1.2-1.2
		s-1.2-1.2-1.2-3.7c1.2,0,2.5,1.2,3.7,1.2c1.2,0,1.2-2.5,4.9,0C485,202,483.8,202,483.8,204.4L483.8,204.4z M487.5,224.1
		C487.5,224.1,488.7,224.1,487.5,224.1C488.7,224.1,488.7,224.1,487.5,224.1C488.7,224.1,487.5,224.1,487.5,224.1L487.5,224.1z
		 M491.2,167.5v1.2C490,167.5,490,167.5,491.2,167.5L491.2,167.5L491.2,167.5L491.2,167.5z M491.2,163.8
		C491.2,163.8,490,165,491.2,163.8C490,165,490,165,491.2,163.8C490,163.8,490,163.8,491.2,163.8L491.2,163.8L491.2,163.8z
		 M491.2,187.2v3.7C490,188.4,490,187.2,491.2,187.2C491.2,186,491.2,186,491.2,187.2L491.2,187.2z M491.2,194.6v-1.2V194.6
		c0,1.2,0,3.7-2.5,4.9l1.2,1.2c0,1.2-1.2,1.2-1.2,1.2c-1.2,0-1.2-1.2-1.2-3.7c-1.2,0-2.5,1.2-4.9,0c-2.5-1.2-1.2,1.2-1.2,1.2
		s0-1.2,1.2-1.2l0,0c1.2-1.2,2.5-1.2,3.7-2.5C488.7,197,488.7,194.6,491.2,194.6L491.2,194.6z M487.5,168.7c0-1.2,0-1.2,1.2-2.5
		C490,167.5,488.7,168.7,487.5,168.7s1.2,1.2,1.2,2.5s-1.2,0-2.5,0S486.3,168.7,487.5,168.7L487.5,168.7z M477.6,157.6L477.6,157.6
		L477.6,157.6L477.6,157.6z M481.3,176.1c1.2,0,1.2-1.2,2.5-2.5c6.2,4.9,4.9,4.9,4.9,9.9c-1.2,1.2-3.7,0-4.9,1.2
		c1.2,1.2,1.2,1.2,2.5,1.2c1.2,0,1.2,0,1.2,1.2c-1.2,1.2-2.5,0-4.9,0c-1.2,0-2.5,0-4.9,0c0,1.2,3.7,1.2,2.5,2.5
		c-1.2,1.2-2.5,0-3.7-1.2s-1.2-1.2-2.5-1.2s-1.2-1.2-2.5-1.2c-1.2,0,0,1.2-1.2,1.2l1.2-1.2l4.9-4.9
		C477.6,179.8,477.6,176.1,481.3,176.1L481.3,176.1z M464.1,169.9L464.1,169.9l1.2-1.2c0,0,0-1.2,1.2-1.2l0,0l1.2-1.2
		c1.2-2.5,3.7-4.9,6.2-6.2c1.2,2.5-2.5,2.5-2.5,3.7s-2.5,2.5-3.7,2.5c-1.2,0,0,1.2-1.2,1.2s0,1.2-1.2,1.2S466.6,168.7,464.1,169.9
		C464.1,168.7,465.3,169.9,464.1,169.9s0,1.2-2.5,2.5C461.6,169.9,462.9,169.9,464.1,169.9L464.1,169.9z M459.2,174.9
		C460.4,174.9,460.4,174.9,459.2,174.9v1.2V174.9L459.2,174.9C460.4,173.6,459.2,173.6,459.2,174.9L459.2,174.9z M457.9,203.2
		c0-1.2-1.2-1.2-1.2-2.5c2.5-2.5,3.7-4.9,6.2-7.4c1.2-1.2,2.5-1.2,3.7-3.7c1.2-2.5,1.2-1.2,1.2-1.2s3.7,0,4.9,2.5
		c-1.2,1.2-3.7,0-4.9,2.5c-1.2,2.5-2.5,2.5-2.5,4.9c1.2-1.2,1.2-1.2,2.5-2.5c1.2-1.2,1.2-1.2,1.2-1.2s1.2,1.2,1.2,2.5
		s-1.2,1.2-2.5,1.2c1.2,1.2,2.5,1.2,3.7,3.7c1.2,2.5-2.5,1.2-2.5,2.5c0,1.2,0-2.5-1.2-3.7h-1.2c-1.2,1.2,0,2.5-2.5,3.7
		c-1.2-1.2-1.2-2.5-1.2-2.5l-1.2,1.2l-1.2-1.2c0,0-1.2,1.2-2.5,0v-1.2c1.2-1.2,2.5-1.2,2.5-3.7C456.7,198.3,455.5,199.5,457.9,203.2
		l-2.5,1.2c1.2,0,1.2,1.2,1.2,1.2h1.2c1.2,0,2.5,0,2.5,1.2s-1.2,1.2-1.2,2.5c-1.2,0-2.5-1.2-3.7-1.2c-1.2-1.2-1.2-1.2-3.7,0
		c0,1.2,1.2,1.2,2.5,1.2l-2.5,2.5c-1.2,0-1.2-1.2-1.2-1.2l0,0c-1.2-1.2,0-1.2,0-2.5l-1.2-1.2c0-1.2-1.2-3.7,1.2-3.7l1.2-1.2v1.2
		L457.9,203.2z M455.5,178.6c0,1.2-2.5,2.5-3.7,2.5C451.8,179.8,453,178.6,455.5,178.6L455.5,178.6z M450.6,182.3
		C451.8,182.3,450.6,182.3,450.6,182.3L450.6,182.3z M449.3,208.1C448.1,209.4,448.1,208.1,449.3,208.1L449.3,208.1z M446.9,210.6
		C448.1,210.6,448.1,210.6,446.9,210.6v1.2V210.6L446.9,210.6L446.9,210.6z M445.6,187.2C446.9,187.2,446.9,187.2,445.6,187.2v1.2
		C445.6,187.2,444.4,187.2,445.6,187.2L445.6,187.2z M411.1,248.8L411.1,248.8c1.2,1.2,0,1.2,0,1.2l0,0V248.8z M368,316.5
		c0-1.2,0-3.7,1.2-4.9c1.2,0,2.5-1.2,3.7,0l3.7-4.9c0-1.2,2.5-1.2,3.7-2.5c-1.2-1.2-2.5-1.2-3.7-3.7l-4.9,2.5
		c-1.2,0-1.2,1.2-1.2,3.7c0,2.5-1.2,1.2-2.5,2.5c1.2-2.5,1.2-3.7,0-6.2v-1.2c0-2.5,1.2-4.9,3.7-7.4v3.7c2.5,0,1.2-3.7,3.7-2.5
		c-1.2-2.5-1.2-2.5,0-3.7l2.5-2.5c1.2,0,1.2,0,1.2,1.2l1.2-1.2c-1.2-1.2-1.2-2.5,0-3.7l0,0c2.5-1.2,3.7-3.7,6.2-4.9
		c2.5-3.7,4.9-3.7,6.2-6.2c0,0,0,1.2,1.2,1.2l0,0c1.2,0,1.2-1.2,2.5-1.2h-2.5c2.5-3.7,4.9-6.2,8.6-9.9l1.2,1.2c0,0,0-1.2,1.2-1.2
		l0,0c0,0,0,1.2-1.2,1.2l0,0v2.5c1.2,0,2.5-1.2,3.7,0c0-1.2,0-3.7-1.2-4.9c0,0,1.2-1.2,0-1.2c-1.2,0-1.2,1.2-1.2,1.2s0-1.2,1.2-1.2
		l0,0v-2.5l1.2,1.2c1.2,0,1.2-3.7,3.7-2.5c-1.2,1.2-2.5,2.5-2.5,4.9c2.5,1.2,3.7-1.2,4.9-1.2v-3.7c-1.2,0-2.5-1.2-4.9-2.5
		c1.2-1.2,2.5-2.5,2.5-3.7l1.2,1.2c1.2-1.2,3.7-2.5,2.5-4.9c0-1.2,1.2-1.2,2.5-1.2c1.2,0,3.7-1.2,3.7-2.5h-1.2
		c-1.2,1.2-1.2,2.5-3.7,2.5c0-1.2,2.5-2.5,3.7-2.5c1.2-2.5,2.5-2.5,3.7-6.2c1.2,2.5-1.2,3.7-2.5,6.2h2.5c0-2.5,0-4.9,2.5-6.2
		c0-1.2,2.5-2.5,2.5-3.7s-1.2,1.2-3.7,1.2v1.2c-1.2-1.2,0-1.2,0-1.2v-1.2l6.2-4.9c1.2-1.2,1.2-1.2,2.5-1.2s-1.2-2.5,1.2-3.7
		c2.5-1.2,0-1.2,1.2-1.2c1.2,0,1.2-1.2,1.2-2.5c3.7-2.5,6.2-6.2,9.9-9.9c1.2,0,1.2,1.2,1.2,1.2s2.5-3.7,3.7-2.5v-1.2
		c0,0,1.2,0,1.2,1.2l0,0c1.2,0,1.2-1.2,2.5-2.5c2.5,1.2,4.9,4.9,4.9,8.6h1.2l1.2,1.2l-1.2,1.2l-1.2-1.2v-1.2c-1.2,0-1.2,1.2-2.5,0
		c-1.2-1.2-1.2-1.2-2.5,0c0,2.5,0,3.7,0,6.2c-1.2-1.2-1.2-3.7,0-6.2c0-1.2-1.2-3.7,0-6.2h-6.2c0,3.7-1.2,7.4-3.7,11.1h2.5v2.5h1.2
		c1.2,0,1.2,1.2,0,1.2s-1.2-1.2-1.2-1.2s-1.2-1.2-3.7-1.2c-2.5,0,0,3.7-2.5,2.5c0,1.2-2.5,1.2-2.5,3.7c0,0-1.2,1.2,0,2.5
		s1.2-2.5,2.5-2.5v-1.2l1.2-1.2l1.2,1.2c0,0,0,1.2-1.2,1.2l0,0h-1.2c1.2,1.2,3.7,1.2,3.7,3.7s-1.2,2.5,1.2,3.7h-2.5v1.2
		c0,1.2-1.2,0-2.5,1.2c-1.2,1.2,1.2,0,1.2,1.2c-1.2,0-2.5-1.2-4.9-1.2s0,3.7-2.5,4.9c-2.5,1.2-1.2,3.7-2.5,3.7s-1.2-1.2-1.2-2.5
		s-1.2,0-1.2-1.2s2.5-1.2,4.9,0l-1.2-2.5l1.2-1.2c1.2-1.2-1.2-1.2,0-3.7s1.2,1.2,1.2,1.2s1.2-2.5,2.5-3.7H437c0-1.2,0-1.2-1.2-1.2
		s-1.2,1.2-2.5,2.5c-1.2,1.2-1.2-1.2-1.2-1.2l-3.7,1.2c3.7,1.2-2.5,3.7,0,4.9c-1.2,1.2-3.7,0-4.9,1.2s1.2,2.5-1.2,3.7
		c-1.2,1.2-2.5,3.7-1.2,6.2l-2.5,1.2c1.2,3.7,0,6.2-3.7,9.9c-1.2,1.2-3.7,2.5-6.2,3.7c-1.2,1.2-1.2-1.2-2.5,0
		c-1.2,1.2,1.2,1.2,1.2,3.7c0,2.5-2.5,3.7-2.5,6.2c-1.2,0-2.5-1.2-3.7,0c0,2.5-1.2,4.9-3.7,6.2c-1.2-2.5,1.2-2.5,2.5-3.7
		c1.2-1.2-4.9,0-4.9-1.2s-1.2,0-2.5,1.2v2.5c-1.2-1.2-1.2-1.2-4.9-2.5c1.2,1.2,2.5,3.7,0,4.9c-2.5,1.2-1.2,4.9-4.9,3.7
		c0,1.2,1.2,1.2,1.2,2.5s-2.5,2.5-3.7,2.5c-1.2,0-1.2-1.2-2.5-1.2s-1.2,0-1.2,1.2s2.5,1.2,2.5,2.5c0,1.2-1.2,0-2.5,0
		c-1.2,0,1.2,1.2,1.2,2.5c1.2-1.2,1.2-2.5,1.2-3.7c1.2,0,1.2,2.5,3.7,1.2c2.5-1.2,1.2-1.2,0-1.2c0-2.5,0-3.7,2.5-2.5
		c2.5,1.2,1.2-1.2,2.5,0c0-1.2,1.2-1.2,1.2-1.2v-4.9c3.7-2.5,3.7-2.5,6.2,0l-2.5,2.5c-1.2,1.2-1.2,3.7-2.5,3.7c0,1.2,0,1.2-1.2,2.5
		c-3.7,2.5-7.4,7.4-8.6,12.3c-1.2,1.2-3.7,2.5-6.2,3.7l0,0c0-1.2,0-2.5-1.2-2.5s-2.5,4.9,0,4.9l0,0v1.2l-1.2-1.2
		c-1.2,2.5-2.5,6.2-4.9,7.4l-3.7-2.5C365.6,316.5,366.8,317.7,368,316.5L368,316.5z M446.9,232.8
		C446.9,232.8,445.6,232.8,446.9,232.8h-1.2C445.6,231.5,445.6,231.5,446.9,232.8C446.9,231.5,446.9,231.5,446.9,232.8L446.9,232.8z
		 M355.7,268.5C355.7,268.5,355.7,267.2,355.7,268.5C355.7,267.2,355.7,267.2,355.7,268.5C355.7,266,355.7,266,355.7,268.5
		C357,267.2,357,268.5,355.7,268.5L355.7,268.5L355.7,268.5L355.7,268.5z M358.2,376.8L358.2,376.8L358.2,376.8L358.2,376.8
		C357,375.6,358.2,375.6,358.2,376.8L358.2,376.8z M344.6,269.7C344.6,269.7,345.9,269.7,344.6,269.7L344.6,269.7L344.6,269.7z
		 M360.7,190.9l-1.2-1.2C359.4,189.6,359.4,189.6,360.7,190.9L360.7,190.9z M327.4,295.6c1.2,1.2,1.2,1.2,1.2,2.5
		C327.4,296.8,327.4,296.8,327.4,295.6L327.4,295.6z M333.6,268.5c0-1.2,0-3.7,2.5-3.7c2.5,0,1.2,2.5,0,3.7
		c-1.2,1.2,1.2,1.2,1.2,3.7C336,269.7,333.6,269.7,333.6,268.5L333.6,268.5z M337.3,236.4L337.3,236.4L337.3,236.4L337.3,236.4z
		 M334.8,273.4c1.2,1.2,1.2,1.2,1.2,2.5s0,2.5,1.2,3.7c1.2,1.2,1.2,2.5,0,3.7c1.2,1.2,1.2,1.2,1.2,3.7c0-1.2-1.2-2.5-1.2-3.7
		c-1.2,0-1.2,0-1.2,1.2C336,279.5,333.6,277.1,334.8,273.4L334.8,273.4z M339.7,291.9c0,1.2,0,1.2-2.5,2.5c0-1.2-1.2-1.2-1.2-3.7
		C336,288.2,338.5,291.9,339.7,291.9v-1.2C340.9,290.6,339.7,290.6,339.7,291.9L339.7,291.9z M357,261.1L357,261.1
		C357,261.1,355.7,261.1,357,261.1L357,261.1C357,259.8,357,261.1,357,261.1L357,261.1z M357,208.1L357,208.1
		c1.2,1.2,1.2,6.2,1.2,8.6c0,2.5,0,1.2-1.2,1.2c-1.2-1.2,0-3.7,0-4.9S355.7,209.4,357,208.1L357,208.1z M350.8,200.7
		C352,200.7,352,202,350.8,200.7L350.8,200.7z M345.9,186c-1.2,0-1.2-1.2-1.2-1.2L345.9,186L345.9,186z M347.1,206.9
		c1.2,1.2,1.2,1.2,1.2,2.5C347.1,208.1,347.1,206.9,347.1,206.9c-1.2,0-2.5-1.2-2.5-1.2C345.9,204.4,345.9,204.4,347.1,206.9
		L347.1,206.9z M344.6,189.6L344.6,189.6c-1.2,1.2-1.2,0-1.2,0H344.6z M343.4,184.7c-1.2,0-1.2-1.2-1.2-1.2
		C343.4,183.5,343.4,183.5,343.4,184.7L343.4,184.7z M339.7,190.9L339.7,190.9C339.7,190.9,338.5,190.9,339.7,190.9L339.7,190.9z
		 M339.7,195.8L339.7,195.8c0,1.2,0,1.2-1.2,1.2C338.5,197,338.5,195.8,339.7,195.8L339.7,195.8z M339.7,210.6v-1.2
		c0-1.2,0-1.2,1.2-1.2s1.2,1.2,1.2,3.7s-1.2,1.2-1.2,1.2s2.5,2.5,4.9,3.7c-1.2-2.5,0-3.7,0-6.2c1.2,1.2,3.7,0,6.2,0
		c-1.2,1.2-2.5,2.5-1.2,3.7c0,2.5-1.2,3.7-2.5,4.9c1.2,1.2,1.2,0,3.7,1.2l-3.7,3.7c3.7,0,4.9,0,6.2,2.5c-2.5,0-3.7,0-6.2,0
		c1.2-1.2,2.5,0,3.7,0l-3.7-2.5c-1.2,1.2-2.5,1.2-3.7,1.2c0,1.2,1.2,2.5,0,3.7h1.2c1.2,1.2,0,3.7,1.2,3.7s0-3.7,2.5-3.7
		s1.2,1.2,1.2,1.2s-1.2-1.2,1.2-2.5l1.2,1.2c0,1.2-1.2,3.7,1.2,6.2h-3.7c1.2,2.5,2.5,4.9,1.2,8.6c0,1.2,0,2.5,1.2,3.7l2.5,3.7
		c-2.5,0-3.7-2.5-4.9-1.2v1.2c1.2,0,1.2,1.2,2.5,1.2s2.5,4.9,0,8.6h-3.7c-1.2-1.2-1.2-2.5,0-3.7c-1.2,0-1.2,0-4.9-3.7
		c0-1.2,1.2-1.2,2.5,0s-1.2-1.2-1.2-1.2l-3.7,1.2c0,1.2,1.2,1.2,1.2,2.5c0,1.2-2.5,0-3.7,0v-11.1l3.7-2.5c1.2,0,1.2-1.2,1.2-1.2
		s-2.5-1.2-3.7-1.2c-1.2,0-1.2,2.5-2.5,2.5s-1.2-1.2-1.2-1.2c1.2-1.2,1.2-3.7,1.2-6.2c0-1.2,0-2.5,1.2-3.7c1.2,0,1.2-1.2,1.2-2.5
		c-1.2-1.2-1.2,0-1.2,1.2l-2.5-3.7c0-1.2,1.2-1.2,2.5-1.2s1.2,1.2,2.5,1.2s-1.2-3.7,0-6.2c1.2-2.5,0-1.2-1.2-1.2s1.2,3.7-2.5,4.9
		c0-2.5-1.2-4.9,0-7.4c0-1.2-1.2-2.5-1.2-3.7C337.3,210.6,338.5,210.6,339.7,210.6L339.7,210.6z M336,178.6c0,1.2,1.2,2.5,1.2,3.7
		c1.2,1.2,2.5,1.2,1.2,3.7c-1.2-1.2-1.2-2.5-1.2-3.7C334.8,181,334.8,179.8,336,178.6L336,178.6z M333.6,218c-1.2-2.5-1.2-3.7,0-7.4
		C334.8,214.3,333.6,215.5,333.6,218L333.6,218z M333.6,221.7L333.6,221.7L333.6,221.7L333.6,221.7z M326.2,182.3
		c1.2,0,1.2,0,1.2,1.2c2.5-2.5,0-4.9,1.2-6.2c1.2-1.2,1.2,1.2,1.2,1.2s0,1.2,0,2.5c-1.2,0-1.2,1.2-1.2,2.5c0,1.2-1.2,1.2-1.2,1.2
		s1.2,2.5,0,3.7c-1.2,1.2,1.2,1.2,0,2.5c-1.2,1.2,1.2,3.7,1.2,6.2c0,2.5,1.2-1.2,3.7-1.2c2.5,0,1.2,2.5,0,3.7
		c-1.2,0-2.5-1.2-3.7-1.2c-1.2,0-1.2,1.2-1.2,1.2c1.2,3.7,0,6.2,2.5,9.9v1.2c-1.2,2.5-1.2,4.9,0,7.4c0,2.5,0,4.9,0,7.4
		c1.2,1.2,1.2-1.2,3.7-1.2c0,4.9,0,8.6,0,13.5c0,1.2-1.2,2.5-2.5,3.7h2.5c0,2.5,0,6.2,0,8.6c-2.5,2.5,0,6.2-2.5,11.1
		c-1.2-2.5,0-4.9-1.2-7.4c-1.2-2.5,0-4.9,0-7.4s0-4.9,0-7.4c0-2.5,0-3.7-1.2-6.2s0-6.2,0-8.6s0-4.9-1.2-6.2c1.2-2.5,0-4.9,0-7.4
		s0-4.9,0-7.4c0-2.5,0-4.9-1.2-6.2c0-2.5,0-4.9,0-8.6C326.2,187.2,323.7,184.7,326.2,182.3L326.2,182.3z M322.5,253.7L322.5,253.7
		C322.5,254.9,321.2,254.9,322.5,253.7L322.5,253.7z M323.7,181C322.5,182.3,322.5,181,323.7,181L323.7,181z M323.7,245.1v1.2
		c-2.5-1.2-2.5-1.2-1.2-1.2H323.7z M320,169.9c0,1.2,1.2,2.5,1.2,3.7s1.2,1.2,1.2,1.2s1.2,0,1.2,1.2l0,0c-1.2,0-1.2,0-1.2-1.2
		s-1.2-1.2-1.2-1.2s-2.5-1.2-2.5-3.7H320z M313.9,208.1C315.1,208.1,315.1,209.4,313.9,208.1L313.9,208.1z M212.9,559.1
		c-1.2-1.2-1.2-1.2,0-1.2S214.1,556.6,212.9,559.1C214.1,559.1,212.9,559.1,212.9,559.1L212.9,559.1z M212.9,525.8
		C212.9,524.6,214.1,524.6,212.9,525.8C214.1,524.6,214.1,525.8,212.9,525.8L212.9,525.8z M214.1,523.4h-1.2c0-1.2,0-1.2,1.2-1.2
		S214.1,522.2,214.1,523.4h1.2H214.1L214.1,523.4z M231.3,540.6L231.3,540.6c-2.5,0-3.7,2.5-3.7,4.9H224c0-2.5,1.2-4.9,2.5-7.4
		c1.2,0,1.2,1.2,1.2,1.2s1.2-2.5,2.5-2.5c0-1.2,1.2-2.5,2.5-3.7c0,4.9-1.2,6.2-6.2,7.4C227.7,543.1,228.9,540.6,231.3,540.6
		L231.3,540.6C231.3,539.4,231.3,539.4,231.3,540.6C231.3,539.4,231.3,539.4,231.3,540.6C231.3,539.4,231.3,540.6,231.3,540.6
		L231.3,540.6L231.3,540.6z M233.8,524.6c0,2.5,1.2,4.9-1.2,6.2c0-1.2-1.2-1.2-2.5-1.2C233.8,529.5,231.3,525.8,233.8,524.6
		C233.8,524.6,235,524.6,233.8,524.6C235,524.6,235,524.6,233.8,524.6C235,524.6,235,524.6,233.8,524.6L233.8,524.6z M235,522.2
		c-1.2-1.2-1.2-1.2-1.2-2.5C236.3,519.7,236.3,519.7,235,522.2L235,522.2z M235,517.2C235,518.5,235,518.5,235,517.2L235,517.2
		C235,518.5,235,517.2,235,517.2L235,517.2c0-2.5,0-4.9,2.5-6.2C237.5,513.5,236.3,516,235,517.2L235,517.2z M238.7,511.1
		L238.7,511.1L238.7,511.1L238.7,511.1z M241.2,502.4L241.2,502.4C242.4,501.2,242.4,502.4,241.2,502.4L241.2,502.4z M241.2,507.4
		C241.2,507.4,242.4,506.1,241.2,507.4L241.2,507.4z M244.9,497.5L244.9,497.5C246.1,497.5,246.1,497.5,244.9,497.5L244.9,497.5z
		 M244.9,493.8C244.9,493.8,243.7,495.1,244.9,493.8L244.9,493.8L244.9,493.8v-2.5C244.9,491.4,244.9,492.6,244.9,493.8L244.9,493.8
		L244.9,493.8z M249.8,497.5c-1.2-1.2-1.2-1.2-1.2-2.5s1.2-1.2,1.2,0S251.1,495.1,249.8,497.5L249.8,497.5z M248.6,492.6l3.7-2.5
		C252.3,492.6,252.3,492.6,248.6,492.6L248.6,492.6z M254.7,479L254.7,479C254.7,477.8,256,477.8,254.7,479
		C256,477.8,256,479,254.7,479L254.7,479z M262.1,469.2C262.1,469.2,262.1,468,262.1,469.2C263.4,468,263.4,469.2,262.1,469.2
		L262.1,469.2L262.1,469.2z M276.9,447L276.9,447C278.1,447,278.1,447,276.9,447L276.9,447z M283.1,448.3L283.1,448.3
		C284.3,448.3,284.3,448.3,283.1,448.3L283.1,448.3z M284.3,435.9v-1.2h1.2C285.5,435.9,285.5,435.9,284.3,435.9L284.3,435.9z
		 M285.5,428.6c1.2,1.2,1.2,1.2,1.2,1.2S285.5,431,285.5,428.6L285.5,428.6z M289.2,429.8c-1.2,0-1.2-1.2-1.2-1.2s-1.2,0-1.2-1.2
		l0,0c0,0,1.2,0,1.2,1.2l0,0h1.2C290.5,429.8,290.5,429.8,289.2,429.8L289.2,429.8z M289.2,424.9L289.2,424.9h1.2H289.2
		C290.5,424.9,289.2,424.9,289.2,424.9L289.2,424.9z M291.7,426.1C291.7,426.1,291.7,427.3,291.7,426.1L291.7,426.1
		c0-1.2,0-1.2,1.2-1.2S292.9,426.1,291.7,426.1L291.7,426.1z M294.2,422.4L294.2,422.4C294.2,421.2,295.4,421.2,294.2,422.4
		C295.4,421.2,295.4,422.4,294.2,422.4L294.2,422.4z M299.1,417.5L299.1,417.5c-1.2-1.2,0-1.2,0-1.2
		C299.1,416.2,300.3,416.2,299.1,417.5L299.1,417.5C300.3,417.5,300.3,417.5,299.1,417.5L299.1,417.5z M302.8,411.3
		c-1.2-1.2,0-1.2,1.2-2.5S304,411.3,302.8,411.3L302.8,411.3z M305.2,407.6c0-1.2,1.2-1.2,1.2-1.2S306.5,406.4,305.2,407.6
		L305.2,407.6z M311.4,188.4C311.4,189.6,311.4,189.6,311.4,188.4L311.4,188.4z M306.5,186c1.2,1.2,1.2,3.7,1.2,3.7
		C305.2,189.6,306.5,188.4,306.5,186s-1.2-1.2-1.2-2.5C306.5,184.7,307.7,186,306.5,186L306.5,186z M307.7,195.8
		C307.7,195.8,306.5,195.8,307.7,195.8L307.7,195.8z M302.8,298v1.2V298L302.8,298z M305.2,371.9c-1.2,1.2-2.5-1.2-4.9,0l2.5-3.7
		C305.2,370.7,305.2,370.7,305.2,371.9L305.2,371.9z M301.5,295.6v-4.9C302.8,291.9,302.8,293.1,301.5,295.6L301.5,295.6z
		 M300.3,280.8c1.2,2.5,1.2,3.7,1.2,6.2C301.5,285.7,300.3,283.2,300.3,280.8L300.3,280.8z M300.3,272.2v2.5
		c-1.2-3.7-1.2-8.6,0-13.5v6.2C301.5,268.5,301.5,270.9,300.3,272.2L300.3,272.2z M299.1,261.1c-1.2-3.7-1.2-8.6-1.2-13.5
		c1.2,3.7,2.5,8.6,2.5,13.5H299.1z M296.6,179.8L296.6,179.8L296.6,179.8L296.6,179.8z M296.6,182.3c1.2,1.2,1.2,3.7,0,4.9
		s1.2,3.7,0,4.9c0-2.5,1.2-6.2,1.2-9.9H296.6z M297.8,216.7C296.6,216.7,296.6,216.7,297.8,216.7L297.8,216.7z M297.8,219.2
		L297.8,219.2C297.8,220.4,297.8,219.2,297.8,219.2L297.8,219.2z M297.8,225.4c-1.2-1.2-1.2-1.2-1.2-3.7c2.5,1.2,2.5,1.2,2.5,3.7
		H297.8z M297.8,227.8c1.2,6.2,1.2,13.5,1.2,19.7c0-6.2,0-13.5,1.2-19.7H297.8z M265.8,415C265.8,416.2,265.8,416.2,265.8,415
		L265.8,415z M231.3,464.3c0,1.2-1.2,1.2-1.2,1.2s2.5-1.2,3.7-1.2H231.3z M226.4,470.4C226.4,470.4,226.4,471.7,226.4,470.4
		L226.4,470.4z M226.4,475.4C225.2,475.4,225.2,475.4,226.4,475.4L226.4,475.4L226.4,475.4z M224,481.5c0-1.2,1.2-2.5,1.2-3.7
		c0-1.2,1.2-1.2,2.5-1.2c-1.2-3.7,2.5-6.2,2.5-7.4s1.2-2.5,2.5-3.7c1.2-1.2,1.2,1.2,2.5,1.2c-1.2-1.2-1.2-3.7,0-4.9
		c0-1.2,1.2,0,2.5-1.2s-2.5,0-3.7-1.2c0-1.2,1.2-2.5,2.5-2.5c0-1.2,0-1.2,1.2-1.2v-1.2c2.5-2.5,3.7-3.7,4.9-7.4l1.2-1.2
		c1.2,1.2,1.2,1.2,1.2,1.2s1.2-1.2,1.2-2.5s-1.2-1.2,0-3.7c1.2,1.2,2.5-1.2,3.7,0v-3.7h-1.2c0,1.2,0,1.2-1.2,1.2v1.2v-1.2l0,0
		l1.2-1.2c0-1.2,1.2-1.2,1.2,0c1.2,0,1.2,0,1.2-1.2l0,0c1.2-2.5,2.5-2.5,3.7-2.5c1.2,0,1.2,1.2,0,1.2c-1.2,1.2-1.2,2.5-2.5,3.7
		c1.2,0,1.2,0,1.2-1.2c1.2-1.2,2.5-1.2,3.7-1.2v-3.7c-1.2-1.2-1.2-1.2-2.5,0l0,0c0-1.2,1.2-2.5,2.5-3.7c1.2-1.2-1.2,0-1.2-1.2
		s2.5-2.5,2.5-3.7l1.2,1.2c1.2-1.2,1.2-2.5,2.5-3.7h-1.2c-1.2-1.2,1.2-2.5,6.2-3.7v-4.9h2.5c0-1.2,0-2.5,1.2-3.7
		c1.2,1.2,3.7,1.2,2.5,4.9c2.5-2.5,2.5-4.9,3.7-6.2c-1.2-1.2-1.2,1.2-2.5,1.2s1.2-2.5,0-4.9c1.2-1.2,1.2-2.5,2.5-2.5
		c3.7,0,6.2-2.5,6.2-6.2l1.2,1.2c0-1.2,1.2-2.5,2.5-3.7c1.2-1.2,1.2-2.5,0-3.7c1.2-1.2,3.7-1.2,3.7-2.5c1.2-2.5,2.5-3.7,6.2-4.9
		v-1.2c0,0-1.2,0-1.2-1.2l0,0c0,0,1.2,0,1.2,1.2l0,0c1.2-1.2,1.2,1.2,2.5,1.2s-1.2-1.2-1.2-3.7h-1.2c0-1.2,1.2-2.5,2.5-3.7
		c1.2,1.2,1.2,1.2,3.7,1.2c0,1.2-2.5,1.2-1.2,3.7c1.2-1.2,2.5-2.5,2.5-3.7c0,0,1.2,0,1.2,1.2l0,0c1.2,4.9,2.5,11.1,4.9,16
		c0,1.2,0,2.5,1.2,3.7l-3.7,1.2c0,1.2,1.2,1.2,1.2,3.7c0,2.5-1.2-1.2-3.7-1.2l-2.5,4.9h1.2l-1.2,1.2c1.2,3.7-2.5,6.2-3.7,8.6h-1.2
		c-1.2,1.2-1.2,1.2,1.2,3.7c-1.2,1.2-1.2-1.2-3.7-1.2c1.2,2.5-1.2,3.7-2.5,6.2s-2.5,3.7-6.2,4.9c1.2,3.7-2.5,4.9-2.5,7.4
		c0,2.5-2.5,1.2-2.5,2.5s-1.2,1.2-1.2,2.5s-2.5,3.7-2.5,4.9c0,1.2-1.2,1.2-2.5,1.2s-2.5-2.5-3.7-2.5c-1.2,0-1.2,1.2-2.5,2.5
		c-1.2,1.2-1.2,0-1.2,0s-1.2-1.2-1.2,0c0,1.2-1.2,1.2,0,1.2l2.5,1.2c1.2-1.2,1.2-1.2,2.5-2.5c1.2-1.2,1.2,1.2,1.2,1.2v1.2
		c-1.2,1.2-2.5,3.7-6.2,4.9v1.2c0,2.5-2.5,3.7-2.5,6.2s-2.5,3.7-3.7,6.2c-1.2,2.5-1.2,2.5-2.5,2.5c1.2,1.2,1.2,1.2,0,1.2
		s-1.2,1.2-1.2,1.2c-1.2,0-1.2,1.2-1.2,2.5c0,1.2,0,3.7-2.5,3.7c0,1.2,0,1.2-1.2,1.2c-2.5,2.5-3.7,6.2-4.9,9.9l1.2,1.2h-1.2
		l-2.5,4.9c0,0,1.2,0,1.2,1.2l0,0h-1.2l0,0c-1.2,0-1.2,1.2-2.5,2.5v3.7l-2.5-1.2c0,2.5,0,3.7,0,6.2c-1.2-1.2-2.5,0-3.7,1.2
		c-1.2,1.2-1.2,2.5-1.2,3.7c0,1.2-1.2,3.7-2.5,6.2c0,1.2,1.2,1.2,2.5,1.2c-1.2,1.2-1.2,3.7-1.2,4.9s-2.5,0-3.7,1.2
		c-1.2,1.2-1.2,3.7-2.5,4.9c1.2,1.2,2.5,0,3.7,0s-1.2,1.2-1.2,2.5s1.2,1.2,1.2,1.2s-1.2,1.2-1.2,0v3.7c-1.2-1.2-1.2-1.2,0-3.7v-4.9
		c-1.2,0-1.2,0-1.2,1.2c-1.2-2.5-1.2-4.9-3.7-6.2s-1.2-1.2-1.2-1.2s-2.5,1.2-3.7-1.2c1.2,0,2.5-1.2,2.5-1.2c1.2-1.2,1.2-1.2,2.5-1.2
		c0,1.2-2.5,1.2-2.5,3.7s1.2,0,2.5,1.2v-4.9l-1.2-1.2c0-1.2,0-2.5,1.2-2.5c3.7-2.5,2.5-4.9,2.5-7.4c0-1.2-1.2-2.5-1.2-2.5l-1.2,1.2
		l1.2,1.2c0,0-1.2,1.2-1.2,3.7c-1.2-1.2-2.5-1.2-2.5-2.5c-1.2,0-2.5-1.2-3.7-1.2c-1.2-1.2-2.5-3.7-1.2-6.2s2.5-3.7,2.5-6.2
		c1.2,2.5,1.2,3.7,3.7,4.9c2.5-3.7,2.5-3.7-1.2-6.2c0-1.2-1.2-3.7,1.2-6.2c2.5-2.5,0-1.2-2.5-3.7c2.5-4.9,3.7-6.2,7.4-6.2L224,481.5
		z M217.8,512.3c1.2,2.5,1.2,3.7,0,4.9c-1.2-1.2,0-2.5,1.2-4.9H217.8z M216.6,488.9c1.2,0,1.2,1.2,1.2,1.2v2.5c0,0,1.2,0,1.2,1.2
		l0,0h-1.2c-1.2,1.2-2.5,3.7-2.5,6.2c0,1.2-1.2,2.5-2.5,3.7L216.6,488.9z M210.4,507.4c0,1.2-1.2,1.2-2.5,2.5c0-1.2,1.2-2.5,3.7-2.5
		H210.4z M209.2,513.5c1.2,0,1.2,1.2,1.2,2.5h1.2c0-1.2-1.2-1.2,0-3.7c1.2,1.2,2.5,1.2,2.5,3.7c0,2.5,0,2.5,1.2,2.5
		c-3.7,1.2-4.9-2.5-8.6-2.5C207.9,514.8,209.2,514.8,209.2,513.5L209.2,513.5z M209.2,518.5c1.2,1.2,0,1.2-1.2,2.5
		C207.9,519.7,209.2,518.5,209.2,518.5L209.2,518.5z M209.2,556.6L209.2,556.6L209.2,556.6L209.2,556.6z M209.2,524.6L209.2,524.6
		L209.2,524.6L209.2,524.6z M210.4,559.1c-1.2,1.2-1.2,1.2-1.2,1.2s-1.2,0-1.2-1.2l0,0C209.2,557.9,210.4,557.9,210.4,559.1
		L210.4,559.1z M185.8,544.3L185.8,544.3L185.8,544.3L185.8,544.3z"/>
	<polygon points="363.1,211.8 361.9,211.8 363.1,213 	"/>
	<path d="M217.8,506.1c1.2-1.2,1.2,1.2,3.7,1.2c-1.2-2.5-2.5-3.7-3.7-4.9V506.1z"/>
	<path d="M305.2,395.3c-1.2-2.5,1.2-2.5,2.5-2.5v-1.2c-3.7-1.2-6.2,0-8.6-1.2c-1.2,0-1.2,1.2-1.2,2.5
		C300.3,392.8,302.8,394.1,305.2,395.3z"/>
	<path d="M295.4,394.1c1.2-2.5,1.2-4.9,0-8.6C292.9,387.9,295.4,390.4,295.4,394.1z"/>
	<path d="M305.2,389.2c-1.2,0-1.2,0-1.2-1.2c0-1.2,2.5,0,2.5-1.2c0-1.2,0-4.9-2.5-6.2v1.2c-1.2,1.2,0,1.2,0,1.2s0,1.2-1.2,1.2v6.2
		C304,389.2,305.2,390.4,305.2,389.2z"/>
	<path d="M299.1,395.3c0,0,0-1.2-1.2-1.2c0,2.5-2.5,4.9-3.7,6.2C296.6,397.8,297.8,397.8,299.1,395.3z"/>
	<path d="M292.9,407.6L292.9,407.6L292.9,407.6C292.9,408.9,292.9,407.6,292.9,407.6z"/>
	<path d="M307.7,389.2c-1.2-1.2-1.2-1.2-1.2,0C306.5,389.2,306.5,389.2,307.7,389.2z"/>
	<path d="M296.6,407.6c0-1.2,0-1.2,1.2-1.2c-1.2-1.2-2.5-1.2-3.7-1.2C295.4,405.2,295.4,406.4,296.6,407.6z"/>
	<path d="M462.9,218C462.9,218,462.9,219.2,462.9,218L462.9,218z"/>
	<path d="M231.3,476.6h-2.5C230.1,477.8,230.1,477.8,231.3,476.6z"/>
	<path d="M289.2,406.4L289.2,406.4L289.2,406.4c1.2,0,1.2,0,1.2-1.2l0,0C289.2,405.2,289.2,405.2,289.2,406.4z"/>
	<path d="M289.2,394.1l2.5-3.7C290.5,391.6,289.2,391.6,289.2,394.1z"/>
	<polygon points="295.4,402.7 296.6,403.9 296.6,402.7 	"/>
	<path d="M475.2,253.7c1.2,0,2.5-1.2,2.5-2.5C476.4,251.2,475.2,252.5,475.2,253.7z"/>
	<path d="M285.5,422.4L285.5,422.4L285.5,422.4z"/>
	<path d="M278.1,418.7C279.4,418.7,278.1,418.7,278.1,418.7S276.9,418.7,278.1,418.7L278.1,418.7z"/>
	<path d="M283.1,403.9c0-1.2,2.5-1.2,1.2-3.7c-2.5,0-3.7,2.5-6.2,2.5C279.4,405.2,279.4,405.2,283.1,403.9z"/>
	<path d="M284.3,415c0-1.2,0-1.2-1.2-1.2C284.3,415,284.3,415,284.3,415z"/>
	<path d="M275.7,428.6C276.9,428.6,276.9,428.6,275.7,428.6C276.9,428.6,276.9,428.6,275.7,428.6c1.2-1.2,0-1.2,0-1.2
		S275.7,427.3,275.7,428.6C275.7,427.3,275.7,427.3,275.7,428.6L275.7,428.6z"/>
	<path d="M273.2,422.4C273.2,421.2,273.2,421.2,273.2,422.4C272,422.4,273.2,422.4,273.2,422.4z"/>
	<path d="M272,417.5c1.2-1.2,0-2.5,0-3.7C269.5,415,269.5,415,272,417.5z"/>
	<polygon points="289.2,396.5 289.2,396.5 290.5,396.5 	"/>
	<path d="M286.8,403.9v1.2C288,406.4,288,405.2,286.8,403.9z"/>
	<polygon points="288,399 288,400.2 289.2,400.2 	"/>
	<path d="M288,410.1c0-1.2-1.2-2.5,0-3.7C285.5,407.6,285.5,407.6,288,410.1z"/>
	<path d="M286.8,401.5l-1.2-1.2L286.8,401.5z"/>
	<path d="M285.5,407.6h-1.2H285.5z"/>
	<path d="M285.5,403.9C284.3,403.9,284.3,405.2,285.5,403.9L285.5,403.9z"/>
</g>
</svg>
